<svg xmlns="http://www.w3.org/2000/svg" width="338.264" height="297.471" viewBox="0 0 338.264 297.471">
  <g id="Grupo_5507" data-name="Grupo 5507" transform="translate(19.293 -65.792)">
    <g id="Grupo_1927" data-name="Grupo 1927" transform="translate(109.156 43.503) rotate(16)">
      <path id="Trazado_3367" data-name="Trazado 3367" d="M54.2,2.367a8.981,8.981,0,0,1,.088-1.039A23.166,23.166,0,0,0,40.1.939C32.17,3.532,26.816,11.57,25.789,19.851s1.7,16.661,5.876,23.886C23.9,37.313,10.9,38.759,4.739,46.728-.092,52.977-.532,61.561.389,69.406a81.3,81.3,0,0,0,17.4,41.346c-3.615,1.425-4.9,5.862-5.2,9.737-.977,12.737,3.647,25.357,10.3,36.266a42.27,42.27,0,0,0,4.308,6.041c.734-1.072,1.477-2.141,2.22-3.213a30.17,30.17,0,0,1-4.1-15.211,23.637,23.637,0,0,1,4.2-13.7,19.545,19.545,0,0,1,12.992-7.661c4.034-.547,5.978-6.336,7.8-9.344a52.019,52.019,0,0,1,7.826-9.994c-.372-.727-.716-1.468-1.118-2.178a13.643,13.643,0,0,0,2.013,1.275c4.038-3.918,8.35-7.646,13.385-10.146a40.543,40.543,0,0,1,4.683-1.9c1.088-.369,2.252-.711,3.415-.985a13.636,13.636,0,0,0-.235-2.687,19.4,19.4,0,0,0,2.414,2.279,14.731,14.731,0,0,1,2.232-.174,7.21,7.21,0,0,1,4.195-4.618L88.469,81.6a7.01,7.01,0,0,1,5.322-8.33l7.693-1.695-2.015-9.148a24.522,24.522,0,0,1-16.2-13.6,6.662,6.662,0,0,1-3.4-.171,6.73,6.73,0,0,1-4.313-8.484,6.541,6.541,0,0,1,.306-.694c-4.816.154-10.333-6.391-12.636-10.98a9.1,9.1,0,0,1-1.215-4.974,4.078,4.078,0,0,1,3.119-3.684c-4.72-4.145-9.727-8.779-10.816-14.966-.035-.2-.035-.4-.06-.6M8.925,50" transform="translate(37.534 16.97)" fill="#c8378b"/>
      <path id="Trazado_3368" data-name="Trazado 3368" d="M2.414,37.567c-.39-2.325.122-4.731,2.29-6.154,2.487-1.632,5.771-1.294,8.761-.583C9.8,27.117,6.388,22.984,5.045,17.879c-1.3-4.93-.495-10.349,3.1-14.108.794-.831,1.994.484,1.207,1.306-3.494,3.655-3.8,9.179-2.15,13.764,1.891,5.26,6.015,9.344,9.956,13.139.667.643-.116,1.69-.926,1.449-2.684-.8-5.855-1.8-8.682-1.236-3.611.722-4.137,4.179-2.769,7.112a.893.893,0,0,1-1.439,1.018A13.856,13.856,0,0,0,.06,38.289c.025.2.025.4.06.6,1.09,6.186,6.1,10.821,10.816,14.966a4.078,4.078,0,0,0-3.12,3.684,9.107,9.107,0,0,0,1.215,4.975c2.3,4.588,7.82,11.134,12.636,10.98a5.21,5.21,0,0,0,3.8-1.9c.16-.179.317-.376.471-.583.045-.061.092-.114.137-.177a12,12,0,0,0,.971-1.664c.015-.031.032-.058.047-.09.526-1.1,1-2.213,1.46-3.34.277-.683.545-1.368.8-2.061.236-.652.465-1.308.678-1.968a58.784,58.784,0,0,0,2.656-13.423A54.067,54.067,0,0,0,50.7,57.153c1.318.363,2.66.669,4.018.934.935.182,1.873.356,2.826.492a8.482,8.482,0,0,0,3.7-.073,3.524,3.524,0,0,0,2.216-1.928,2.474,2.474,0,0,0,.14-.449c.014-.068.053-.127.061-.2a4.619,4.619,0,0,0-.128-1.608c-.529-2.211-2.094-3.941.981-3.091a11.241,11.241,0,0,0,6.331.285c.141-.044.276-.113.415-.168a6.9,6.9,0,0,0,3.051-2.4,11.163,11.163,0,0,0,1.775-8.109,25.828,25.828,0,0,0-2.787-8c-.525-1.051-1.093-2.024-1.653-3.009-.2-.353-.386-.732-.591-1.077C65.1,18.733,57.159,12.068,46.206,6.784,35.127,1.442,22.159-2.526,10.689,1.92A13.932,13.932,0,0,0,6.041,4.671C2.684,7.866,2.15,13.2,3.514,17.625s4.3,8.181,7.169,11.818c-3.35.023-7.167.257-9.278,2.859a6.579,6.579,0,0,0-1.318,3.04A9.046,9.046,0,0,0,0,36.381,16.517,16.517,0,0,1,2.414,37.567Z" transform="translate(107.056 47.851)" fill="#c8378b"/>
      <path id="Trazado_3369" data-name="Trazado 3369" d="M69.06,40.416c-.376,2.327-1.632,4.443-4.142,5.1-2.879.749-5.882-.624-8.485-2.256,2.28,4.691,4.189,9.7,3.825,14.966-.352,5.086-2.849,9.962-7.459,12.37-1.018.533-1.734-1.1-.725-1.624,4.481-2.342,6.541-7.477,6.449-12.349-.105-5.589-2.7-10.779-5.219-15.637-.426-.823.652-1.564,1.342-1.076,2.287,1.614,4.969,3.583,7.828,3.954,3.652.473,5.259-2.632,4.9-5.849a.893.893,0,0,1,1.69-.5,13.858,13.858,0,0,0,2.455,2.98c.041-.2.106-.391.136-.589.951-6.209-2.305-12.2-5.448-17.643a4.078,4.078,0,0,0,4.136-2.49,9.108,9.108,0,0,0,.444-5.1C70.078,9.58,66.951,1.611,62.339.213A5.208,5.208,0,0,0,58.128.8c-.209.118-.421.254-.633.4-.063.043-.124.078-.186.124a11.991,11.991,0,0,0-1.453,1.265c-.025.025-.049.045-.073.07-.849.869-1.66,1.775-2.454,2.7-.481.558-.955,1.121-1.414,1.7-.432.543-.859,1.09-1.273,1.647a58.762,58.762,0,0,0-6.819,11.863A54.062,54.062,0,0,0,29.6,6.385c-1.132-.767-2.306-1.486-3.507-2.173-.826-.472-1.66-.938-2.519-1.372a8.49,8.49,0,0,0-3.533-1.118,3.526,3.526,0,0,0-2.718,1.116,2.5,2.5,0,0,0-.276.38c-.035.06-.091.1-.121.167a4.619,4.619,0,0,0-.394,1.564c-.208,2.263.72,4.4-1.921,2.613a11.243,11.243,0,0,0-5.905-2.3c-.148,0-.3.019-.447.027A6.9,6.9,0,0,0,4.6,6.583,11.163,11.163,0,0,0,.322,13.695,25.842,25.842,0,0,0,.4,22.168c.161,1.164.386,2.267.6,3.38.077.4.131.818.215,1.21,2.436,11.4,7.818,20.262,16.5,28.778C26.494,64.148,37.5,72.063,49.794,71.529a13.925,13.925,0,0,0,5.285-1.116c4.2-1.951,6.419-6.828,6.546-11.461s-1.447-9.126-3-13.492c3.181,1.052,6.87,2.054,9.7.266a6.575,6.575,0,0,0,2.223-2.457,8.969,8.969,0,0,0,.416-.956A16.521,16.521,0,0,1,69.06,40.416Z" transform="translate(94.46 30.307)" fill="#c8378b"/>
      <path id="Trazado_3370" data-name="Trazado 3370" d="M39.1,65.916c8.745-4.3,16.245-8.345,22.554-10.536.661-.259,1.337-.49,2.025-.7l.212-.073.005.008c.693-.207,1.394-.4,2.112-.558A28.788,28.788,0,0,1,77.24,53.82C63.61,40.96,41.9,20.583,29.773,9.74,15.883-2.676,4.749-.411,0,1.53A18.709,18.709,0,0,1,3.591,3.052C8.638,5.961,26.648,35.67,39.1,65.916Z" transform="translate(159.134 93.021)" fill="#0c51a0"/>
      <path id="Trazado_3371" data-name="Trazado 3371" d="M11.65,78.389l0-.009.223-.023c.713-.1,1.424-.17,2.132-.213,9.145-.912,20.792-2.436,35.377-2.722a7.539,7.539,0,0,1,1.922-1.133c-1.724-30.541,3.18-63.221,6.773-70.322a6.333,6.333,0,0,1,.443-.752c.251-.356.543-.709.843-1.06a24.378,24.378,0,0,0-17.5,11.589c-4.25,6.791-8.114,13.864-12.049,20.84C21.711,48.952,13.947,63.519,7,78.483c-.476,1.026-2.175.491-1.693-.547,7.249-15.607,15.359-30.794,23.834-45.765q3.185-5.626,6.43-11.215c2.173-3.751,4.18-7.752,6.87-11.167A25.578,25.578,0,0,1,59.85.276.915.915,0,0,1,60.73.7c.223-.215.468-.424.7-.635C56.486-.344,44.917.751,35.5,17.307,25.856,34.27,7.525,68.619,0,82.772a28.774,28.774,0,0,1,9.5-4C10.217,78.612,10.934,78.492,11.65,78.389Z" transform="translate(13.186 112.907)" fill="#0c51a0"/>
      <path id="Trazado_3372" data-name="Trazado 3372" d="M54.632.006A25.578,25.578,0,0,0,37.219,9.518c-2.69,3.415-4.7,7.416-6.87,11.167q-3.241,5.591-6.43,11.215C15.444,46.872,7.335,62.059.085,77.666-.4,78.7,1.3,79.238,1.778,78.213c6.95-14.964,14.715-29.531,22.817-43.9,3.935-6.976,7.8-14.05,12.049-20.84a24.378,24.378,0,0,1,17.5-11.589c.419-.491.868-.978,1.366-1.456A.915.915,0,0,0,54.632.006Z" transform="translate(18.405 113.177)" fill="#fff3c9"/>
      <path id="Trazado_3373" data-name="Trazado 3373" d="M15.538,11.07,0,14.493q2.34,12.391,4.734,24.77,6.493,33.48,13.439,66.87l.055.25a98.439,98.439,0,0,0,11.357-3.672c-.006-.011-.016-.022-.022-.033a7.657,7.657,0,0,1-.479-5.506c1.348-5.984,4.509-11.727,9.838-14.876a27.13,27.13,0,0,1,29.521-10.87c3.65-1.6,7.1-3.251,10.386-4.867C66.381,36.312,48.371,6.6,43.324,3.694a18.706,18.706,0,0,0-3.591-1.523C32.306-.214,21.663-.018,20.262.02l.6,2.72A7.011,7.011,0,0,1,15.538,11.07Z" transform="translate(119.401 92.379)" fill="#2869b2"/>
      <path id="Trazado_3374" data-name="Trazado 3374" d="M0,.041,1.442,6.588C1.025,4.392.6,2.2.185,0Z" transform="translate(117.48 107.254)" fill="#8abb2a"/>
      <path id="Trazado_3375" data-name="Trazado 3375" d="M.055.25,0,0C.018.083.034.167.052.25Z" transform="translate(137.575 198.512)" fill="#8abb2a"/>
      <path id="Trazado_3376" data-name="Trazado 3376" d="M8.415,11.145c-.3.352-.591.7-.843,1.06a6.333,6.333,0,0,0-.443.752c-3.593,7.1-8.5,39.781-6.773,70.322,3.106-1.333,7.062-.943,10.706-1.745A27.169,27.169,0,0,1,35.7,88.426a24.566,24.566,0,0,1,6.637,6.9,4.721,4.721,0,0,1,.584,1.309c1.709.227,3.416.433,5.12.574a76.021,76.021,0,0,0,23.725-1.937c-.116-.558-.236-1.116-.352-1.674Q62.742,51.836,54.787,9.927L53.345,3.379,33.99,7.644A7,7,0,0,1,25.7,2.43a.8.8,0,0,1-.351.313,53.485,53.485,0,0,0-11.663,7.3c-.883.726-2.091-.579-1.207-1.308a55.335,55.335,0,0,1,12.04-7.565.848.848,0,0,1,.916.111L25.149,0C21.835,1.544,15.034,4.984,10.485,9.054c-.237.211-.482.42-.7.635C9.284,10.167,8.834,10.654,8.415,11.145Z" transform="translate(64.135 103.916)" fill="#2869b2"/>
      <path id="Trazado_3377" data-name="Trazado 3377" d="M19.91,91.64Q12.97,58.25,6.471,24.77,4.072,12.392,1.737,0L0,.382C.415,2.58.84,4.774,1.257,6.97q7.97,41.9,16.625,83.676c.116.558.236,1.116.352,1.674.577-.136,1.152-.283,1.727-.43C19.944,91.807,19.928,91.723,19.91,91.64Z" transform="translate(117.665 106.872)" fill="#df61a0"/>
      <path id="Trazado_3378" data-name="Trazado 3378" d="M13.264.2a.848.848,0,0,0-.917-.111A55.333,55.333,0,0,0,.308,7.651c-.883.728.324,2.034,1.207,1.308a53.489,53.489,0,0,1,11.663-7.3.793.793,0,0,0,.351-.313c-.009-.038-.027-.071-.036-.109Z" transform="translate(76.302 105)" fill="#fff3c9"/>
      <path id="Trazado_3379" data-name="Trazado 3379" d="M.029.1C.031.063.035.032.037,0,.024.023.013.045,0,.067Z" transform="translate(73.378 236.931)" fill="#45a735"/>
      <path id="Trazado_3380" data-name="Trazado 3380" d="M31.9,63.829v0l.038-.008a29.077,29.077,0,0,0,3.185-.513c.563-.124,1.116-.269,1.664-.424l14.762-2.683c-.269-.722-.537-1.445-.755-2.2a5.767,5.767,0,0,1-.049-2.817c-.073-.157-.153-.31-.218-.472a18.336,18.336,0,0,1-1.168-5.928c-.046-.86-.056-1.725-.05-2.583.055-8.41,1.586-16.99,5.831-24.247C58.985,15.378,66.812,8.537,74.817,7.7a6.747,6.747,0,0,1,.815-.558,30.647,30.647,0,0,1,7.545-2.831,21.4,21.4,0,0,1,4.01-.531,21.934,21.934,0,0,0-15.8,1.084c-1.033.493-1.862-1.079-.831-1.573A23.856,23.856,0,0,1,92.814,4.3a20.762,20.762,0,0,1,6.919,3.158c.035.024.065.052.1.077A27.169,27.169,0,0,0,75.2.642c-3.644.8-7.6.412-10.706,1.745a7.54,7.54,0,0,0-1.922,1.133c-14.585.286-26.232,1.81-35.377,2.722-.708.043-1.419.118-2.132.213l-.223.023,0,.009c-.715.1-1.433.223-2.151.381A28.9,28.9,0,0,0,31.9,63.829Z" transform="translate(0 184.807)" fill="#0c51a0"/>
      <path id="Trazado_3381" data-name="Trazado 3381" d="M22.735,3.291A23.856,23.856,0,0,0,.473,2.278c-1.032.494-.2,2.066.831,1.573a21.934,21.934,0,0,1,15.8-1.084,21.483,21.483,0,0,1,5.109.386C22.39,3.188,22.561,3.251,22.735,3.291Z" transform="translate(70.079 185.816)" fill="#fff3c9"/>
      <path id="Trazado_3382" data-name="Trazado 3382" d="M64.7,1.235,64.7,1.227l-.212.073c-.688.212-1.364.444-2.025.7C56.152,4.194,48.653,8.241,39.908,12.539c-3.288,1.616-6.737,3.264-10.386,4.867A27.13,27.13,0,0,0,0,28.275a17.05,17.05,0,0,1,2.14-1.089c.182-.075.371-.124.555-.195a23.875,23.875,0,0,1,19.18-9.452c1.145.015,1.05,1.79-.093,1.777A21.969,21.969,0,0,0,5.917,26a25.725,25.725,0,0,1,9.68-.418c7.632-2.671,17.68.255,23.973,4.633,6.9,4.8,11.9,11.944,15.48,19.552.366.776.72,1.565,1.041,2.365a18.383,18.383,0,0,1,1.431,5.871c.009.18,0,.357,0,.535A6.064,6.064,0,0,1,58.66,61.1c.062.4.079.8.124,1.2l18.777-4.873c.563-.089,1.125-.19,1.689-.315a29.12,29.12,0,0,0,3.1-.873l.038-.008v-.005A28.9,28.9,0,0,0,66.816.677C66.1.835,65.4,1.028,64.7,1.235Z" transform="translate(158.324 146.399)" fill="#0c51a0"/>
      <path id="Trazado_3383" data-name="Trazado 3383" d="M19.087,1.779C20.23,1.792,20.325.016,19.18,0A23.875,23.875,0,0,0,0,9.454a24.645,24.645,0,0,1,3.223-.988A21.969,21.969,0,0,1,19.087,1.779Z" transform="translate(161.018 163.937)" fill="#fff3c9"/>
      <path id="Trazado_3384" data-name="Trazado 3384" d="M11.5,6.681a7.179,7.179,0,0,1,.48,5.506,6.555,6.555,0,0,1-1.63,2.674c.122.172.236.342.367.515,1.112,1.466,2.629,2.666,3.87,4.037A31.732,31.732,0,0,1,21.1,29.68a24.991,24.991,0,0,1,1.234,5.047,7.343,7.343,0,0,1,8.284-3.137,5.7,5.7,0,0,1,1.428.657,8.648,8.648,0,0,1,2.543-1.124,7.234,7.234,0,0,1,5.36.952,7.6,7.6,0,0,1,1.978,1.9c0-.178.009-.355,0-.535a18.381,18.381,0,0,0-1.431-5.871c-.321-.8-.675-1.589-1.041-2.365-3.584-7.608-8.577-14.75-15.48-19.552C17.68,1.277,7.632-1.65,0,1.022A26.512,26.512,0,0,1,7.391,3.234,8.407,8.407,0,0,1,11.5,6.681Z" transform="translate(173.921 170.963)" fill="#fac79f"/>
      <path id="Trazado_3385" data-name="Trazado 3385" d="M1.719.029c-.336.15-.68.282-1,.46C.563.574.416.667.269.76.183.848.091.94,0,1.032.6.691,1.2.355,1.8.014L1.822,0Z" transform="translate(164.935 186.373)" fill="#ee7c97"/>
      <path id="Trazado_3386" data-name="Trazado 3386" d="M0,.03.052,0A.228.228,0,0,0,0,.03Z" transform="translate(164.726 187.493)" fill="#ee7c97"/>
      <path id="Trazado_3387" data-name="Trazado 3387" d="M18.849,12.273a49.792,49.792,0,0,1-6.68-5.821C7.312,6.919,2.239,4.511.15,0A5.767,5.767,0,0,0,.2,2.817c.218.753.485,1.476.755,2.2a27.361,27.361,0,0,0,4.938,8.42A28.6,28.6,0,0,0,10.26,17.4,27.186,27.186,0,0,0,15.6,20.376,7.141,7.141,0,0,0,21.1,19.9,7.246,7.246,0,0,0,24.55,15.79c.036-.13.048-.268.079-.4A27.659,27.659,0,0,1,18.849,12.273Z" transform="translate(50.591 239.998)" fill="#fac79f"/>
      <path id="Trazado_3388" data-name="Trazado 3388" d="M13.457,53.947q-1.6-1.625-3.153-3.3a7.433,7.433,0,0,1-1.879-5.2A7.182,7.182,0,0,1,10.7,40.591a7.268,7.268,0,0,1,5.2-1.878,7.352,7.352,0,0,1,4.854,2.276c1.091,1.185,2.187,2.364,3.32,3.506.013-.022.024-.044.037-.067a10.744,10.744,0,0,1,.313-1.995C22.89,41,21.406,39.5,19.956,37.976a7.011,7.011,0,0,1-.94-8.177,16.77,16.77,0,0,1-.588-3.1,42.581,42.581,0,0,1,.145-7.013c.316-3.885.774-7.858,2.534-11.334a4.442,4.442,0,0,1,1.458-1.82A7.472,7.472,0,0,1,25.513,0c-8,.841-15.831,7.683-19.68,14.265C1.587,21.522.056,30.1,0,38.512c-.006.858,0,1.722.05,2.583A18.336,18.336,0,0,0,1.22,47.023c.065.162.145.315.219.472C3.527,52.006,8.6,54.414,13.457,53.947Z" transform="translate(49.303 192.503)" fill="#fac79f"/>
      <path id="Trazado_3389" data-name="Trazado 3389" d="M71.152,60.935a62.789,62.789,0,0,1-.291,7.132c2.752-.672,5.49-1.4,8.192-2.249A129.778,129.778,0,0,0,100.913,56.7c4.586-2.427,9.143-4.137,12.839-7.922.235-.241.453-.5.677-.747a7.671,7.671,0,0,1-3.191-3.067,7.265,7.265,0,0,1-.479-5.506,7.439,7.439,0,0,1,3.448-4.107c.2-.11.377-.241.568-.358a18.581,18.581,0,0,0,1.994-1.846,26.689,26.689,0,0,0,2.717-4.364c1.049-2.432,1.88-4.948,2.689-7.471a6.923,6.923,0,0,1,.67-1.449,24.99,24.99,0,0,0-1.234-5.047A31.73,31.73,0,0,0,115.1,4.552c-1.241-1.372-2.758-2.571-3.87-4.037-.132-.174-.245-.343-.367-.515a7.375,7.375,0,0,1-1.577,1.27,25.045,25.045,0,0,1,5.052,6.21,23.647,23.647,0,0,1,2.105,4.973,24.137,24.137,0,0,1,.564,11.4,25.169,25.169,0,0,1-7.387,13.12c-4.411,4.368-10.906,7.275-16.5,9.871a121.537,121.537,0,0,1-19.087,6.961,137.1,137.1,0,0,1-40,4.695c-1.367-.038-2.736-.1-4.1-.187-2.18.351-4.5.386-6.6.524-2.65.174-5.65.466-8.225-.376C9.367,56.579,4.628,53.125.321,49.111a10.737,10.737,0,0,0-.313,1.995c0,.032-.006.063-.008.1q1.082,1.089,2.228,2.111a26.689,26.689,0,0,0,4.3,2.821,18.707,18.707,0,0,0,2.59.838c.22.026.439.068.662.086a7.26,7.26,0,0,1,6.734,7.476,7.1,7.1,0,0,1-1.834,4.351,57.961,57.961,0,0,0,11.479,2.2,128.627,128.627,0,0,0,39.168-1.774,58.19,58.19,0,0,0,.5-8.654C65.759,57.221,71.088,57.516,71.152,60.935Z" transform="translate(73.407 185.825)" fill="#000d20"/>
      <path id="Trazado_3390" data-name="Trazado 3390" d="M0,.015.027,0h0Z" transform="translate(166.731 186.372)" fill="#000d20"/>
      <path id="Trazado_3391" data-name="Trazado 3391" d="M14.62,22.036a5.364,5.364,0,0,1,.723-2.636,5.326,5.326,0,0,1,.991-1.6,19.734,19.734,0,0,0,1.737-2.687,20.517,20.517,0,0,0,1.042-3.222A19.91,19.91,0,0,0,19.268,8.4c-.005-.038-.008-.076-.014-.114a7.815,7.815,0,0,1,.952-5.359A6.055,6.055,0,0,1,22.125.937,5.691,5.691,0,0,0,20.7.28a7.343,7.343,0,0,0-8.284,3.137,6.927,6.927,0,0,0-.67,1.449C10.934,7.388,10.1,9.9,9.054,12.336A26.69,26.69,0,0,1,6.337,16.7a18.583,18.583,0,0,1-1.994,1.846c-.191.117-.372.248-.568.358A7.44,7.44,0,0,0,.327,23.011a7.266,7.266,0,0,0,.479,5.506A7.671,7.671,0,0,0,4,31.584a5.453,5.453,0,0,0,.915.381,7.274,7.274,0,0,0,5.506-.478,25.03,25.03,0,0,0,5.833-4.575A7.363,7.363,0,0,1,14.62,22.036Z" transform="translate(183.839 202.273)" fill="#fac79f"/>
      <path id="Trazado_3392" data-name="Trazado 3392" d="M32.193,19.151a7.26,7.26,0,0,0-6.734-7.476c-.222-.017-.441-.06-.662-.086a18.7,18.7,0,0,1-2.59-.838,26.688,26.688,0,0,1-4.3-2.821q-1.145-1.024-2.228-2.111l-.029-.028c-1.133-1.142-2.23-2.322-3.32-3.506A7.352,7.352,0,0,0,7.476.008a7.269,7.269,0,0,0-5.2,1.878A7.182,7.182,0,0,0,0,6.74a7.433,7.433,0,0,0,1.879,5.2q1.546,1.679,3.153,3.3a49.8,49.8,0,0,0,6.68,5.821,27.655,27.655,0,0,0,5.78,3.117,25.056,25.056,0,0,0,7.226,1.7,7.314,7.314,0,0,0,5.2-1.879c.158-.146.3-.335.443-.5A7.1,7.1,0,0,0,32.193,19.151Z" transform="translate(57.729 231.207)" fill="#fac79f"/>
      <path id="Trazado_3393" data-name="Trazado 3393" d="M24.507,18.884a7.187,7.187,0,0,1-3.448,4.105,7.266,7.266,0,0,1-5.506.48,7.073,7.073,0,0,1-3.485-2.594l.1.145a15.736,15.736,0,0,0-1.946-2.161,18.527,18.527,0,0,0-2.341-1.494,14.592,14.592,0,0,0-1.431-.472c-.367-.03-.737-.045-1.105-.04a21.713,21.713,0,0,0-3.3.776c-.7.285-1.382.6-2.047.948.124.127.258.244.38.373-.035.063-.081.12-.118.182a6.075,6.075,0,0,1,1.4.69C4.025,21.437,6.4,23.055,8.9,24.463c.616.347,1.249.657,1.87.994.222.1.444.2.668.29.908.378,1.839.7,2.781.991a7.149,7.149,0,0,1,.857-.332c.1-.032.208-.053.311-.083a4.809,4.809,0,0,1,1.336-.485.757.757,0,0,1,.491.076,11.477,11.477,0,0,1,3.214-.1A11.143,11.143,0,0,1,23.8,26.836a10.808,10.808,0,0,1,1.01.55c1.951-.109,3.9-.248,5.852-.364C34.63,26.785,37.417,31,37.392,34.5a6.634,6.634,0,0,1-1.006,3.2,1.791,1.791,0,0,1,.161.364,1.526,1.526,0,0,1-.583,1.5c-.025.02-.057.033-.083.051a1.577,1.577,0,0,1-.562.9,3.312,3.312,0,0,1-1.955.595c-.616.009-1.293,0-1.969-.033a14.838,14.838,0,0,1-1.479.159c-2.721.161-5.421.358-8.111.416a5.408,5.408,0,0,1,.482.486,1.009,1.009,0,0,1-.082,1.607,7.651,7.651,0,0,1,6.219,5.583c1.042,3.9-1.856,7.424-5.416,8.477a16.994,16.994,0,0,1-2.11.468c1.368.082,2.737.149,4.1.187a137.106,137.106,0,0,0,40-4.694A121.542,121.542,0,0,0,84.087,46.8c5.591-2.6,12.086-5.5,16.5-9.871a25.17,25.17,0,0,0,7.387-13.12,24.136,24.136,0,0,0-.564-11.4A23.649,23.649,0,0,0,105.3,7.436a25.051,25.051,0,0,0-5.052-6.21c-.082.048-.16.118-.242.162-1.431.757-3.956,1.206-5.506.478A25.543,25.543,0,0,0,89.624.174c-.449-.046-.9-.107-1.346-.138C87.76,0,87.243,0,86.727,0a16.977,16.977,0,0,0-2.411.5L84.29.518c-.6.341-1.2.677-1.8,1.017-.09.09-.173.178-.265.268s-.237.231-.429.4c-.1.148-.209.3-.308.449-.309.48-.548.993-.839,1.481,1.117-1.872.112-.159-.113.478a30.217,30.217,0,0,0-.956,3.438c-.873,3.875-5.517,5.533-8.954,4.585a7.245,7.245,0,0,1-4.084-3.415,98.429,98.429,0,0,1-11.357,3.672h0c-.575.147-1.15.294-1.727.43a76.019,76.019,0,0,1-23.725,1.937c-1.7-.141-3.411-.347-5.12-.574A8.041,8.041,0,0,1,24.507,18.884ZM64.3,23.812a28.441,28.441,0,0,1,5.4-1.846q2.932-.95,5.83-1.97a34.432,34.432,0,0,1-2.9-4.591c-.36-.822.755-1.11,1.864-1.484a15.467,15.467,0,0,1,1.678-.652L79.325,12l.264-.051.153.1.862.865.938-.377.264-.051.152.1,3.576,3.587c.229.229.4.413.572.586.1-.021.193-.037.3-.064,1.8-.444,3.562-1.023,5.314-1.593l2.15-.7c.321.3.623.625.921.952l1.294-.42a29.117,29.117,0,0,1,4.017,5.024q-2.443.93-4.861,1.9c-.851.341-3.627,1.078-3.957,1.791-.355.766,4.552,5.41,3.85,5.774a31.415,31.415,0,0,1-4.886,2.009c-.835.266-2.261,1.013-3.119.879a2.274,2.274,0,0,1-1.144-.675,2.7,2.7,0,0,1-1.072.143c-1.219-.19-2.3-2.194-2.929-2.9l-2.047-2.3c-1.25.413-2.467.86-3.775,1.2a37.253,37.253,0,0,0-5.54,1.66,1.043,1.043,0,0,1-.55.132l-.363-.232c-.207-.229-.381-.474-.579-.708-.242.091-.489.174-.725.278a1.082,1.082,0,0,1-.55.132L67.5,28.8a27.7,27.7,0,0,1-3.369-4.58l-.051-.2ZM51.11,22.881c-.5-.419-.539-1.05.407-1.562a3.529,3.529,0,0,1,.36-.125l0,0,.27-.126.207-.038c1.19-.314,2.811-.394,3.847-.736a13.63,13.63,0,0,1,2.674-.751,1.566,1.566,0,0,1,.674.033c.482.171.448.709.182,1.1-.012.018-.031.033-.044.05.467.177.433.7.17,1.086a4.674,4.674,0,0,1-1.881,1.36,13,13,0,0,1-5.31,1.309C51.426,24.485,50.462,23.651,51.11,22.881Zm-15.541,1.21c.073-.027.175-.031.254-.053a.7.7,0,0,1,.751-.158c1.2-.134,2.72-.013,3.761-.216a13.934,13.934,0,0,1,2.759-.407,1.4,1.4,0,0,1,.642.12c.409.226.269.728-.052,1.079a.843.843,0,0,1,.179.057c.425.236.262.771-.085,1.125a5.287,5.287,0,0,1-2.139,1.124,13.047,13.047,0,0,1-5.433.626c-1.117-.138-1.827-.977-1.279-1.649C34.409,25.242,34.436,24.519,35.569,24.091Z" transform="translate(82.442 185.869)" fill="#0a2446"/>
      <path id="Trazado_3394" data-name="Trazado 3394" d="M11.183,6.937a1.44,1.44,0,0,1,.581-.906,38.786,38.786,0,0,1-5.641-2.41,10.991,10.991,0,0,1-4.237-1.51C1.147,1.593.732,1.04.75.491.5.329.251.163,0,0,2.3,4.13,6.234,7.113,10.266,9.6l.027.017c.206.109.41.22.618.325.27.115.558.219.843.324C10.571,9.223,9.967,7.809,11.183,6.937Z" transform="translate(79.704 219.861)" fill="#0a2446"/>
      <path id="Trazado_3395" data-name="Trazado 3395" d="M.522,0,.471.033A1.727,1.727,0,0,0,.1.41C.068.46.036.512,0,.562.138.437.276.316.414.183.558.032.571-.015.522,0Z" transform="translate(164.255 187.489)" fill="#0a2446"/>
      <path id="Trazado_3396" data-name="Trazado 3396" d="M0,.208C.086.136.144.082.213.021L.228,0C.151.069.074.145,0,.208Z" transform="translate(164.028 188.051)" fill="#0a2446"/>
      <path id="Trazado_3397" data-name="Trazado 3397" d="M9.951,0,9.614.033c-1.634.48-3.133,1.1-4.8,1.54A47.675,47.675,0,0,0,0,2.957c.2.233.372.479.579.708L.941,3.9a1.045,1.045,0,0,0,.55-.132,37.25,37.25,0,0,1,5.54-1.66c1.308-.343,2.525-.79,3.775-1.2l-.7-.788Z" transform="translate(151.575 211.532)" fill="#000d20"/>
      <path id="Trazado_3398" data-name="Trazado 3398" d="M7.039,6.395c-.851.341-3.627,1.078-3.957,1.791-.354.767,4.553,5.411,3.85,5.774a31.6,31.6,0,0,1-4.885,2.011c-.541.172-1.325.529-2.047.734a2.273,2.273,0,0,0,1.144.675c.858.134,2.284-.613,3.119-.879a31.424,31.424,0,0,0,4.886-2.009c.7-.364-4.205-5.008-3.85-5.774C5.628,8,8.4,7.268,9.256,6.927q2.418-.972,4.861-1.9A29.117,29.117,0,0,0,10.1,0L8.806.42A35.421,35.421,0,0,1,11.9,4.491Q9.459,5.425,7.039,6.395Z" transform="translate(168.43 200.791)" fill="#000d20"/>
      <path id="Trazado_3399" data-name="Trazado 3399" d="M4.068,4.3A2.753,2.753,0,0,0,5.5,4.269c-.172-.173-.343-.357-.572-.586L1.354.1,1.2,0,.938.051,0,.428,2.714,3.151C3.277,3.716,3.574,4.128,4.068,4.3Z" transform="translate(163.046 198.345)" fill="#000d20"/>
      <path id="Trazado_3400" data-name="Trazado 3400" d="M1.138,1.621a10.991,10.991,0,0,0,4.237,1.51C3.535,2.179,1.745,1.12,0,0-.018.55.4,1.1,1.138,1.621Z" transform="translate(80.454 220.351)" fill="#000d20"/>
      <path id="Trazado_3401" data-name="Trazado 3401" d="M.666,0C-.55.872.054,2.286,1.238,3.331c.359.132.7.286,1.039.444.381.016.762.031,1.141.029.312,0,.625-.03.938-.037a12.234,12.234,0,0,1-1.237-.541C1.7,2.505.473,1.124.666,0Z" transform="translate(90.221 226.798)" fill="#000d20"/>
      <path id="Trazado_3402" data-name="Trazado 3402" d="M2.63.542A7.341,7.341,0,0,1,0,1.459c.676.031,1.353.042,1.969.033A3.311,3.311,0,0,0,3.925.9,1.576,1.576,0,0,0,4.486,0,3.368,3.368,0,0,1,2.63.542Z" transform="translate(113.838 225.483)" fill="#000d20"/>
      <path id="Trazado_3403" data-name="Trazado 3403" d="M1.168,0C1.065.03.959.051.857.083A7.142,7.142,0,0,0,0,.415C.132.456.263.5.4.537A4.127,4.127,0,0,1,1.168,0Z" transform="translate(96.661 212.191)" fill="#e50019"/>
      <path id="Trazado_3404" data-name="Trazado 3404" d="M.636.67a.763.763,0,0,1-.575.9c-.021,0-.041.012-.061.017.34.038.68.082,1.023.107,1.439.1,2.884.111,4.326.075C6.173,1.747,7,1.69,7.82,1.644a10.779,10.779,0,0,0-1.01-.55A11.141,11.141,0,0,0,3.441.071a11.476,11.476,0,0,0-3.214.1A.779.779,0,0,1,.636.67Z" transform="translate(99.428 211.61)" fill="#e50019"/>
      <path id="Trazado_3405" data-name="Trazado 3405" d="M3.367.765A12.909,12.909,0,0,0,2,1.169l.094-.034a.886.886,0,0,1-.579.049A.769.769,0,0,1,1.078.818a.766.766,0,0,1-.05-.584c.009-.027.034-.058.049-.088C.918.1.758.052.6,0A1.44,1.44,0,0,0,.02.906C-.173,2.031,1.059,3.411,2.474,4.132a12.241,12.241,0,0,0,1.237.541c1.021-.023,2.043-.053,3.062-.122.138-.009.277-.02.414-.03.572-.056,1.145-.111,1.716-.181a16.12,16.12,0,0,0,2.621-.453,5.7,5.7,0,0,1,2.257-.168,1.237,1.237,0,0,0,.431-.686,1.241,1.241,0,0,0-.349-.921,5.4,5.4,0,0,0-.482-.486A40.7,40.7,0,0,1,3.367.765Z" transform="translate(90.867 225.892)" fill="#482080"/>
      <path id="Trazado_3406" data-name="Trazado 3406" d="M1.088,1.653A6.45,6.45,0,0,1,0,2.457a3.368,3.368,0,0,0,1.856-.542c.026-.019.058-.031.083-.051a1.527,1.527,0,0,0,.583-1.5A1.786,1.786,0,0,0,2.36,0,7.3,7.3,0,0,1,1.088,1.653Z" transform="translate(116.468 223.568)" fill="#ffd400"/>
      <path id="Trazado_3407" data-name="Trazado 3407" d="M1.468,2.931A13.046,13.046,0,0,0,6.9,2.305,5.287,5.287,0,0,0,9.04,1.181c.348-.354.51-.889.085-1.125A.844.844,0,0,0,8.946,0c-.012.014-.02.031-.033.044A5.282,5.282,0,0,1,6.774,1.167a13.008,13.008,0,0,1-5.433.627A2.019,2.019,0,0,1,.189,1.282C-.359,1.954.351,2.794,1.468,2.931Z" transform="translate(117.179 210.325)" fill="#000d20"/>
      <path id="Trazado_3408" data-name="Trazado 3408" d="M1.769,3.755a13,13,0,0,0,5.31-1.309A4.676,4.676,0,0,0,8.96,1.086C9.223.7,9.256.177,8.789,0A4.841,4.841,0,0,1,6.953,1.31,13.058,13.058,0,0,1,1.643,2.62,2.228,2.228,0,0,1,.208,2.165C-.44,2.935.524,3.769,1.769,3.755Z" transform="translate(133.344 206.585)" fill="#000d20"/>
      <path id="Trazado_3409" data-name="Trazado 3409" d="M1.476,2.993a13.007,13.007,0,0,0,5.433-.627A5.284,5.284,0,0,0,9.048,1.243c.013-.013.021-.03.033-.044C9.4.848,9.543.346,9.133.12A1.4,1.4,0,0,0,8.491,0,13.931,13.931,0,0,0,5.732.407C4.691.61,3.174.488,1.971.623a.76.76,0,0,1-.08,1.445A.76.76,0,0,1,1.22.781C1.141.8,1.039.807.966.835-.167,1.262-.194,1.986.324,2.481A2.02,2.02,0,0,0,1.476,2.993Z" transform="translate(117.045 209.125)" fill="#7da5b2"/>
      <path id="Trazado_3410" data-name="Trazado 3410" d="M1.783,3.818a13.058,13.058,0,0,0,5.31-1.309A4.842,4.842,0,0,0,8.929,1.2c.013-.017.032-.032.044-.05.266-.386.3-.925-.182-1.1A1.566,1.566,0,0,0,8.117.02,13.635,13.635,0,0,0,5.442.772c-1.036.342-2.657.422-3.847.736L1.626,1.5l.395.019L2.2,1.6l.261.285.07.19,0,.3-.1.271-.2.205-.271.126-.238.042L1.319,3l-.174-.084L.883,2.636l-.07-.191v-.3l.1-.27.2-.2a3.531,3.531,0,0,0-.36.125c-.946.512-.907,1.143-.407,1.562A2.228,2.228,0,0,0,1.783,3.818Z" transform="translate(133.204 205.387)" fill="#7da5b2"/>
      <path id="Trazado_3411" data-name="Trazado 3411" d="M3.42,16.854l.363.233a1.083,1.083,0,0,0,.55-.132c.237-.1.483-.187.725-.278a47.631,47.631,0,0,1,4.815-1.384c1.665-.437,3.165-1.06,4.8-1.54l.338-.033.154.114.7.788,2.047,2.3c.631.709,1.711,2.713,2.929,2.9a2.7,2.7,0,0,0,1.072-.143c.722-.205,1.506-.562,2.047-.734a31.6,31.6,0,0,0,4.885-2.011c.7-.363-4.2-5.007-3.85-5.774.329-.713,3.106-1.45,3.957-1.791q2.42-.97,4.861-1.9A35.427,35.427,0,0,0,30.719,3.4c-.3-.327-.6-.652-.921-.952l-2.15.7c-1.752.569-3.511,1.149-5.314,1.593-.112.027-.2.043-.3.064a2.753,2.753,0,0,1-1.433.027c-.494-.169-.791-.581-1.355-1.146L16.529.96,15.667.1,15.514,0,15.25.051,12.087,1.325c.095-.03.187-.069.283-.1a.76.76,0,0,1,.9.575.774.774,0,0,1-.574.9,12.786,12.786,0,0,0-1.381.516C12.185,4.45,13.071,5.674,14,6.867a.771.771,0,0,1-.042,1.066.761.761,0,0,1-1.067-.042Q11.129,5.625,9.5,3.267a.757.757,0,0,1,.315-1.02c.195-.1.4-.18.6-.27-1.109.375-2.224.662-1.864,1.484a34.424,34.424,0,0,0,2.9,4.591q-2.9,1.021-5.83,1.97a28.444,28.444,0,0,0-5.4,1.846l-.221.2.051.2A27.69,27.69,0,0,0,3.42,16.854Zm18.445.831a.756.756,0,1,1-1.11,1.026l-4.083-4.794a.755.755,0,0,1,1.109-1.024ZM1.891,11.306l9.877-3.151c.927-.295,1.242,1.181.325,1.475L2.216,12.781C1.288,13.076.973,11.6,1.891,11.306Z" transform="translate(146.517 197.813)" fill="#e50019"/>
      <path id="Trazado_3412" data-name="Trazado 3412" d="M.572,1.21c.128.033.315.1.509.168.065,0,.158.007.325.026.322.037.645.065.966.1.021,0,.04-.013.061-.017a.763.763,0,0,0,.575-.9A.779.779,0,0,0,2.6.089.757.757,0,0,0,2.108.013,4.811,4.811,0,0,0,.772.5,4.132,4.132,0,0,0,0,1.035C.192,1.091.379,1.159.572,1.21Z" transform="translate(97.056 211.693)" fill="#fff3c9"/>
      <path id="Trazado_3413" data-name="Trazado 3413" d="M.085.672a.769.769,0,0,0,.437.366A.886.886,0,0,0,1.1.989l-.094.034a12.919,12.919,0,0,1,1.367-.4C2.049.545,1.724.489,1.4.4.955.286.521.137.084,0,.07.03.044.061.035.088A.766.766,0,0,0,.085.672Z" transform="translate(91.859 226.038)" fill="#fff3c9"/>
      <path id="Trazado_3414" data-name="Trazado 3414" d="M.886,1.492A.76.76,0,0,0,.966.047.7.7,0,0,0,.216.206.76.76,0,0,0,.886,1.492Z" transform="translate(118.049 209.701)" fill="#fff3c9"/>
      <path id="Trazado_3415" data-name="Trazado 3415" d="M0,.645v.3l.07.191.261.283L.505,1.5.9,1.518l.239-.042.271-.126.2-.205.1-.272,0-.3-.07-.19L1.382.1,1.208.019.813,0,.782.006.575.044.3.169l0,0-.2.2Z" transform="translate(134.018 206.889)" fill="#fff3c9"/>
      <path id="Trazado_3416" data-name="Trazado 3416" d="M.1,2.066Q1.73,4.422,3.489,6.689a.761.761,0,0,0,1.067.042A.771.771,0,0,0,4.6,5.666C3.671,4.472,2.785,3.249,1.914,2.015A12.763,12.763,0,0,1,3.3,1.5.773.773,0,0,0,3.87.6a.76.76,0,0,0-.9-.575c-.1.029-.188.068-.283.1A15.459,15.459,0,0,0,1.01.775c-.2.09-.4.17-.6.27A.758.758,0,0,0,.1,2.066Z" transform="translate(155.917 199.014)" fill="#fff3c9"/>
      <path id="Trazado_3417" data-name="Trazado 3417" d="M.875,4.664l9.878-3.151c.917-.293.6-1.769-.325-1.475L.55,3.19C-.368,3.483-.052,4.959.875,4.664Z" transform="translate(147.858 205.929)" fill="#fff3c9"/>
      <path id="Trazado_3418" data-name="Trazado 3418" d="M.238.2A.767.767,0,0,0,.2,1.264L4.278,6.058a.756.756,0,1,0,1.11-1.026L1.3.239A.762.762,0,0,0,.238.2Z" transform="translate(162.995 210.466)" fill="#fff3c9"/>
      <path id="Trazado_3419" data-name="Trazado 3419" d="M4.874,26.8c3.437.947,8.081-.711,8.954-4.586a30.2,30.2,0,0,1,.956-3.438c.225-.638,1.229-2.35.113-.478.291-.488.53-1,.839-1.481.1-.153.2-.3.308-.449-.069.061-.128.115-.213.187.074-.063.151-.14.228-.208.035-.05.068-.1.1-.153a1.724,1.724,0,0,1,.366-.376.228.228,0,0,1,.052-.029c.048-.019.036.028-.108.179.092-.09.176-.178.265-.268s.183-.183.269-.272c.147-.092.294-.186.447-.27.323-.178.667-.31,1-.46l.1-.029h0a16.976,16.976,0,0,1,2.41-.5c.517-.008,1.033,0,1.552.033.451.031.9.092,1.346.138a25.545,25.545,0,0,1,4.877,1.692c1.551.728,4.075.278,5.506-.478.082-.044.16-.113.242-.162a7.373,7.373,0,0,0,1.577-1.27,6.553,6.553,0,0,0,1.63-2.674,7.179,7.179,0,0,0-.48-5.506,8.407,8.407,0,0,0-4.106-3.448A26.517,26.517,0,0,0,25.724.275a25.724,25.724,0,0,0-9.68.418,24.64,24.64,0,0,0-3.223.988c-.183.071-.373.119-.555.195a17.062,17.062,0,0,0-2.14,1.089C4.8,6.114,1.636,11.856.289,17.841a7.657,7.657,0,0,0,.479,5.506c.006.011.016.022.022.033A7.245,7.245,0,0,0,4.874,26.8Zm-1.3-14.644A20.389,20.389,0,0,1,26.811.872c1.115.264.563,1.954-.546,1.692a18.556,18.556,0,0,0-21,10.133C4.788,13.72,3.09,13.187,3.574,12.151Z" transform="translate(148.198 171.709)" fill="#fac79f"/>
      <path id="Trazado_3420" data-name="Trazado 3420" d="M0,.4C.192.231.342.092.429,0,.291.134.153.255.015.38Z" transform="translate(164.241 187.672)" fill="#f5b6c5"/>
      <path id="Trazado_3421" data-name="Trazado 3421" d="M10.057.177A8.649,8.649,0,0,0,7.514,1.3a6.054,6.054,0,0,0-1.92,1.993,7.814,7.814,0,0,0-.952,5.359c.006.038.009.076.014.114A19.9,19.9,0,0,1,4.5,12.255a20.508,20.508,0,0,1-1.042,3.222,19.75,19.75,0,0,1-1.737,2.687,5.325,5.325,0,0,0-.991,1.6A5.366,5.366,0,0,0,.008,22.4,7.363,7.363,0,0,0,1.64,27.275c.087.1.154.229.248.322a7.175,7.175,0,0,0,4.854,2.276c1.785.013,3.979-.46,5.2-1.878A27.448,27.448,0,0,0,15.48,23.15a28.48,28.48,0,0,0,2.349-5.529A27.525,27.525,0,0,0,18.657,6.8c-.046-.4-.063-.8-.124-1.2a6.063,6.063,0,0,0-1.138-2.562,7.6,7.6,0,0,0-1.978-1.9A7.234,7.234,0,0,0,10.057.177Z" transform="translate(198.451 201.909)" fill="#fac79f"/>
      <path id="Trazado_3422" data-name="Trazado 3422" d="M1.779,12.38a18.556,18.556,0,0,1,21-10.133c1.109.262,1.661-1.428.546-1.692A20.389,20.389,0,0,0,.086,11.834C-.4,12.87,1.3,13.4,1.779,12.38Z" transform="translate(151.685 172.026)" fill="#fff3c9"/>
      <path id="Trazado_3423" data-name="Trazado 3423" d="M.031,10.474c.034-.021.062-.052.1-.071.845-.483,2.035-.16,3.14.339.819.373,1.592.843,2.142,1.156a23.983,23.983,0,0,1,5.2,3.984c.666-.352,1.351-.662,2.047-.948a21.73,21.73,0,0,1,3.3-.776c.368,0,.738.011,1.105.04a14.611,14.611,0,0,1,1.431.472,18.538,18.538,0,0,1,2.341,1.494,15.733,15.733,0,0,1,1.946,2.161l-.1-.145a7.073,7.073,0,0,0,3.485,2.594,7.266,7.266,0,0,0,5.506-.48,7.186,7.186,0,0,0,3.448-4.105,8.04,8.04,0,0,0,.106-4.2,4.716,4.716,0,0,0-.584-1.309A24.566,24.566,0,0,0,28,3.778c-.035-.025-.065-.053-.1-.077A20.762,20.762,0,0,0,20.976.543c-.173-.04-.344-.1-.518-.137A22.184,22.184,0,0,0,11.339.55,30.648,30.648,0,0,0,3.794,3.381a6.733,6.733,0,0,0-.815.558A7.472,7.472,0,0,0,.031,10.474ZM2.369,4.925a20.389,20.389,0,0,1,25.826.47c.875.738-.443,1.934-1.306,1.207A18.558,18.558,0,0,0,3.575,6.231C2.678,6.934,1.469,5.631,2.369,4.925Z" transform="translate(71.838 188.563)" fill="#fac79f"/>
      <path id="Trazado_3424" data-name="Trazado 3424" d="M26.1,9.387c1.144-.034,1.045,1.743-.093,1.777C17.39,11.418,9.528,7.42,2.683,2.529,1.5,3.808.349,5.08.122,6.747-.222,9.267-.005,12.42,2.97,13.082c-1.025-.006-2.135.168-1.446,1.472.056.106.126.2.183.307.251.163.5.329.75.491C4.2,16.47,5.992,17.53,7.831,18.482a38.778,38.778,0,0,0,5.641,2.41c.157.052.316.1.475.146.437.137.871.286,1.315.4.325.086.65.141.975.216a40.7,40.7,0,0,0,10.014.86c2.69-.058,5.39-.255,8.111-.416a14.851,14.851,0,0,0,1.479-.159,7.342,7.342,0,0,0,2.63-.917,6.456,6.456,0,0,0,1.088-.8,7.307,7.307,0,0,0,1.271-1.653,6.633,6.633,0,0,0,1.006-3.2c.025-3.5-2.762-7.713-6.733-7.476-1.951.116-3.9.255-5.852.364-.824.046-1.646.1-2.471.125-1.442.037-2.887.029-4.326-.075-.343-.025-.682-.069-1.023-.107-.321-.036-.644-.064-.966-.1-.167-.019-.26-.025-.325-.026-.194-.064-.382-.135-.509-.168-.193-.051-.38-.119-.572-.174-.132-.038-.264-.081-.4-.122-.942-.289-1.873-.613-2.781-.991-.224-.093-.446-.193-.668-.29-.621-.337-1.254-.647-1.87-.994C10.844,3.923,8.47,2.305,6.1.69A6.074,6.074,0,0,0,4.706,0a9.589,9.589,0,0,1-.845,1.186C10.422,5.841,17.857,9.632,26.1,9.387Z" transform="translate(77.997 205)" fill="#fac79f"/>
      <path id="Trazado_3425" data-name="Trazado 3425" d="M43.439,12.892A7.651,7.651,0,0,0,37.22,7.308a5.7,5.7,0,0,0-2.257.168,16.13,16.13,0,0,1-2.621.453c-.571.07-1.144.125-1.716.181-.138.011-.276.021-.414.03-1.02.069-2.041.1-3.062.122-.313.007-.625.036-.938.037-.38,0-.761-.012-1.141-.029-.339-.158-.68-.312-1.039-.444-.286-.105-.573-.209-.843-.324-.208-.1-.412-.216-.618-.325,1.158.715,2.441,1.571,2.655,2.913a3.325,3.325,0,0,1-.063,1.207,5.978,5.978,0,0,1-6.132,4.559,9.458,9.458,0,0,1-2.482-.627,30.742,30.742,0,0,1-6.733-3.555C5.6,8.774,2.231,4.829.891,0a7.011,7.011,0,0,0,.94,8.177C3.282,9.706,4.765,11.2,6.3,12.634c4.307,4.014,9.045,7.467,14.792,9.349,2.576.842,5.575.549,8.225.376,2.1-.137,4.415-.173,6.6-.524a17,17,0,0,0,2.111-.468C41.582,20.315,44.481,16.788,43.439,12.892Z" transform="translate(67.428 222.302)" fill="#fac79f"/>
      <path id="Trazado_3426" data-name="Trazado 3426" d="M9.6,35.248A30.74,30.74,0,0,0,16.336,38.8a9.458,9.458,0,0,0,2.482.627,5.978,5.978,0,0,0,6.132-4.559,3.325,3.325,0,0,0,.063-1.207c-.214-1.341-1.5-2.2-2.655-2.913l-.027-.017c-4.033-2.489-7.967-5.472-10.266-9.6-.058-.1-.127-.2-.183-.307-.689-1.3.422-1.478,1.446-1.472-2.975-.662-3.192-3.815-2.848-6.335.227-1.667,1.38-2.939,2.56-4.218-.193-.137-.392-.267-.583-.406-.923-.671.03-2.173.957-1.5.263.192.538.372.8.561a9.6,9.6,0,0,0,.845-1.186c.037-.062.083-.119.118-.182-.122-.13-.255-.247-.38-.373a23.986,23.986,0,0,0-5.2-3.984C9.058,1.42,8.285.95,7.466.577,6.361.078,5.171-.245,4.326.238c-.035.02-.063.05-.1.071A4.444,4.444,0,0,0,2.771,2.13C1.01,5.605.553,9.578.237,13.463a42.563,42.563,0,0,0-.145,7.013,16.755,16.755,0,0,0,.588,3.1C2.019,28.4,5.389,32.348,9.6,35.248Zm.774-14.354a14.735,14.735,0,0,0,3.418,5.34.889.889,0,0,1-1.306,1.207A16.073,16.073,0,0,1,8.8,21.724a.914.914,0,0,1,.37-1.2A.9.9,0,0,1,10.377,20.894Z" transform="translate(67.639 198.728)" fill="#fac79f"/>
      <path id="Trazado_3427" data-name="Trazado 3427" d="M1.524,5.686a18.558,18.558,0,0,1,23.313.371c.862.728,2.181-.468,1.306-1.207A20.389,20.389,0,0,0,.317,4.38C-.583,5.085.627,6.389,1.524,5.686Z" transform="translate(73.889 189.109)" fill="#fff3c9"/>
      <path id="Trazado_3428" data-name="Trazado 3428" d="M24.285,10.71c1.138-.034,1.237-1.811.093-1.777C16.134,9.178,8.7,5.387,2.138.732,1.872.543,1.6.362,1.334.17.406-.5-.547,1,.376,1.669c.191.139.39.269.583.406C7.8,6.966,15.666,10.964,24.285,10.71Z" transform="translate(79.72 205.455)" fill="#fff3c9"/>
      <path id="Trazado_3429" data-name="Trazado 3429" d="M.454.095A.914.914,0,0,0,.083,1.3,16.074,16.074,0,0,0,3.768,7.014.889.889,0,0,0,5.074,5.807,14.735,14.735,0,0,1,1.656.467.9.9,0,0,0,.454.095Z" transform="translate(76.36 219.155)" fill="#fff3c9"/>
      <path id="Trazado_3430" data-name="Trazado 3430" d="M1.375,22.1c.008.038.027.071.036.109a7,7,0,0,0,8.294,5.214L29.06,23.162l.185-.041,1.737-.382L46.52,19.316a7.011,7.011,0,0,0,5.322-8.33l-.6-2.72L50.63,5.486A7.01,7.01,0,0,0,42.3.163l-4.264.94L9.751,7.334l-4.265.94A7.01,7.01,0,0,0,.163,16.6l.7,3.179.282,1.282ZM.857,13.932A6.414,6.414,0,0,1,4.22,9.324c1.036-.487,1.866,1.087.831,1.573a4.755,4.755,0,0,0-2.509,3.644,13.582,13.582,0,0,0,.879,6.053c.336,1.1-1.4,1.469-1.736.383A14.436,14.436,0,0,1,.857,13.932Z" transform="translate(88.42 84.133)" fill="#0c51a0"/>
      <path id="Trazado_3431" data-name="Trazado 3431" d="M2.734,11.363A13.58,13.58,0,0,1,1.855,5.31,4.755,4.755,0,0,1,4.364,1.666C5.4,1.18,4.569-.394,3.533.092A6.413,6.413,0,0,0,.17,4.7,14.432,14.432,0,0,0,1,11.745C1.331,12.832,3.07,12.459,2.734,11.363Z" transform="translate(89.107 93.365)" fill="#fff3c9"/>
      <path id="Trazado_3432" data-name="Trazado 3432" d="M.06,38.294c.025.2.026.4.06.6,1.091,6.186,6.1,10.819,10.82,14.963a4.079,4.079,0,0,0-3.118,3.685,9.11,9.11,0,0,0,1.216,4.974c2.3,4.588,7.823,11.132,12.639,10.977a5.21,5.21,0,0,0,3.8-1.905c.16-.179.317-.376.471-.583.046-.061.092-.113.137-.176a12.015,12.015,0,0,0,.971-1.664c.015-.031.032-.058.047-.09.525-1.1,1-2.213,1.459-3.34.277-.683.545-1.368.8-2.061.236-.653.464-1.308.677-1.969a58.776,58.776,0,0,0,2.653-13.424,54.057,54.057,0,0,0,18.018,8.864c1.318.363,2.66.668,4.019.933.934.182,1.873.356,2.826.491a8.495,8.495,0,0,0,3.7-.074,3.527,3.527,0,0,0,2.216-1.929,2.525,2.525,0,0,0,.139-.449c.014-.068.053-.127.061-.2a4.618,4.618,0,0,0-.129-1.608c-.53-2.211-2.1-3.94.981-3.092a11.24,11.24,0,0,0,6.331.283c.141-.045.276-.113.415-.168a6.893,6.893,0,0,0,3.05-2.4,11.162,11.162,0,0,0,1.773-8.109,25.834,25.834,0,0,0-2.789-8c-.525-1.051-1.093-2.023-1.653-3.009-.2-.352-.387-.732-.592-1.077C65.091,18.721,57.153,12.058,46.2,6.778c-11.081-5.34-24.049-9.3-35.518-4.855A13.921,13.921,0,0,0,6.033,4.675C2.676,7.871,2.143,13.2,3.509,17.63s4.3,8.179,7.172,11.816c-3.35.023-7.166.258-9.277,2.861a6.578,6.578,0,0,0-1.317,3.04A8.854,8.854,0,0,0,0,36.387" transform="translate(82.328 0)" fill="#c8378b"/>
      <path id="Trazado_3433" data-name="Trazado 3433" d="M0,0C.245.088.486.183.729.277.67.219.616.156.557.1.371.068.186.032,0,0Z" transform="translate(91.618 79.256)" fill="#0a2446"/>
      <path id="Trazado_3434" data-name="Trazado 3434" d="M30.879,11.319,28.385,0A24.277,24.277,0,0,1,15.236,7.864,24.273,24.273,0,0,1,0,6.252l2.494,11.32Z" transform="translate(99.518 78.163)" fill="#e9985f"/>
      <path id="Trazado_3435" data-name="Trazado 3435" d="M1.334,3.9l-.007-.007.179.812c.029-.775.063-1.55.091-2.326a4.182,4.182,0,0,1,2.612,7.24,4.133,4.133,0,0,1-1.548.9,24.251,24.251,0,0,1,.17,2.6A6.682,6.682,0,0,0,5.958,11.5a6.754,6.754,0,0,0,.351-9.544C5.045.6,1.719.07,0,0,.03,1.277,1.078,2.436.8,3.631.831,3.752,1.3,3.78,1.334,3.9Z" transform="translate(131.119 48.728)" fill="#fac79f"/>
      <path id="Trazado_3436" data-name="Trazado 3436" d="M2.92,1.328A4.16,4.16,0,0,0,.091,0C.063.776.029,1.551,0,2.326L.758,5.768c.174.791.3,1.582.4,2.37A4.135,4.135,0,0,0,2.7,7.24,4.183,4.183,0,0,0,2.92,1.328Z" transform="translate(132.624 51.107)" fill="#e39157"/>
      <path id="Trazado_3437" data-name="Trazado 3437" d="M5.459,9.344A4.182,4.182,0,0,1,2.778,4.07a4.121,4.121,0,0,1,1.2-1.81l-.009-.012A14.928,14.928,0,0,1,2.665,0a6.746,6.746,0,0,0,2,11.788,6.682,6.682,0,0,0,3.412.171,24.129,24.129,0,0,1-.938-2.433A4.14,4.14,0,0,1,5.459,9.344Zm-1.032,1.13a.9.9,0,0,1-1.232.271A6.972,6.972,0,0,1,.218,4.153a.91.91,0,0,1,.937-.845A.9.9,0,0,1,2,4.245a5.778,5.778,0,0,0-.059.831l.013.371.005.038.032.23a5.869,5.869,0,0,0,.169.769l.113.352.017.037.075.17a6.354,6.354,0,0,0,.363.7,3.164,3.164,0,0,0,.375.528,5.886,5.886,0,0,0,.539.573,3.4,3.4,0,0,0,.514.4A.907.907,0,0,1,4.427,10.474Z" transform="translate(79.1 60.188)" fill="#fac79f"/>
      <path id="Trazado_3438" data-name="Trazado 3438" d="M3.484,5.535a5.852,5.852,0,0,1-.539-.573,3.167,3.167,0,0,1-.376-.528,6.367,6.367,0,0,1-.363-.7l-.075-.17-.017-.037L2,3.176a5.857,5.857,0,0,1-.169-.769L1.8,2.178,1.8,2.14l-.013-.371A5.766,5.766,0,0,1,1.843.938.9.9,0,0,0,1,0,.91.91,0,0,0,.061.847,6.972,6.972,0,0,0,3.038,7.438.892.892,0,1,0,4,5.934,3.4,3.4,0,0,1,3.484,5.535Z" transform="translate(79.257 63.494)" fill="#fff3c9"/>
      <path id="Trazado_3439" data-name="Trazado 3439" d="M.207,1.81A4.182,4.182,0,0,0,2.888,7.084a4.139,4.139,0,0,0,1.677.182C4.32,6.512,4.1,5.743,3.931,4.953l-.6-2.733A14.486,14.486,0,0,1,1.405,0,4.12,4.12,0,0,0,.207,1.81Z" transform="translate(81.671 62.448)" fill="#e39157"/>
      <path id="Trazado_3440" data-name="Trazado 3440" d="M8.352,40.889a24.287,24.287,0,0,0,5,7.207c.059.059.113.122.172.18a24.74,24.74,0,0,0,7.17,4.882A24.193,24.193,0,0,0,49.08,46.905a24.72,24.72,0,0,0,5.113-9.389,24.118,24.118,0,0,0,.764-9.529c-.094-.789-.223-1.579-.4-2.37L53.8,22.175l-.179-.812-.1-.086c-.028.5-4.839-21.69-5.137-21.271-.01.028-15.428,15.035-27.6,10.97C2.31,4.8,1.581,12.932.2,17.774S4.977,33.317,4.977,33.317m1.2.093.6,2.733m1.831,4.718c-.487-1.039,1.091-1.873,1.578-.833,3.921,8.359,12.623,12.9,21.588,13.409a.893.893,0,0,1-.092,1.782C22.128,54.679,12.789,49.771,8.611,40.861Z" transform="translate(78.822 31.258)" fill="#fac79f"/>
      <path id="Trazado_3441" data-name="Trazado 3441" d="M.405,0a.749.749,0,0,0-.27.263A.981.981,0,0,0,.013.935a12,12,0,0,0,.652,2.4.9.9,0,0,0,.516.433A.9.9,0,0,0,2.306,3.2l.04-.228a.913.913,0,0,0-.1-.461l.035.1A10.826,10.826,0,0,1,1.83.906L1.817.9A13.425,13.425,0,0,1,.405,0Z" transform="translate(85.948 65.788)" fill="#fff3c9"/>
      <path id="Trazado_3442" data-name="Trazado 3442" d="M23.166,15.669a.893.893,0,0,0,.092-1.782C14.294,13.379,5.592,8.837,1.67.478,1.183-.563-.395.271.092,1.31,4.27,10.22,13.61,15.128,23.166,15.669Z" transform="translate(87.341 70.809)" fill="#fff3c9"/>
      <path id="Trazado_3443" data-name="Trazado 3443" d="M6.368,1.363A.907.907,0,0,0,6.1.13.9.9,0,0,0,4.866.4L4.7.66,4.617.784h0a3.473,3.473,0,0,1-.438.42L4.06,1.3V1.291l-.264.151-.276.125.009,0-.183.05-.305.061-.074.014H2.89c-.1,0-.193-.012-.288-.018a.833.833,0,0,1-.373.068,2.455,2.455,0,0,1-.688-.146A2.642,2.642,0,0,1,.93,1.269C.883,1.233.845,1.185.8,1.147a.847.847,0,0,0-.667.389A.91.91,0,0,0,.4,2.77a4.254,4.254,0,0,0,3.325.585A4.265,4.265,0,0,0,6.368,1.363Z" transform="translate(105.575 60.631)" fill="#e39157"/>
      <path id="Trazado_3444" data-name="Trazado 3444" d="M.479,5.079a13.825,13.825,0,0,0,16.175-3.56C17.4.647,16.1-.573,15.35.3A12.01,12.01,0,0,1,1.326,3.507C.28,3.038-.569,4.608.479,5.079Z" transform="translate(103.442 70.069)" fill="#e39157"/>
      <path id="Trazado_3445" data-name="Trazado 3445" d="M0,.009,0,0V.017Z" transform="translate(132.366 52.263)" fill="#f67829"/>
      <path id="Trazado_3446" data-name="Trazado 3446" d="M1.685,8.32C1.02,9.247-.5,8.293.166,7.361A17.763,17.763,0,0,1,13.519,0c1.148-.071,1.067,1.716-.071,1.787A15.847,15.847,0,0,0,1.685,8.32Z" transform="translate(87.017 44.545)" fill="#313133"/>
      <path id="Trazado_3447" data-name="Trazado 3447" d="M1.444,4.311C.488,4.934-.584,3.493.376,2.866A17.765,17.765,0,0,1,15.489.849c1.1.35.372,1.986-.715,1.64A15.848,15.848,0,0,0,1.444,4.311Z" transform="translate(109.161 39.616)" fill="#313133"/>
      <path id="Trazado_3448" data-name="Trazado 3448" d="M3.2,40c.062.126.105.265.176.385,2.221,3.773,7.5,4.931,12.432,5.869a3.952,3.952,0,0,0-1.929,3.748,4.684,4.684,0,0,0,2.078,2.9c2.937,2.2,9.053,4.457,13.178,2.434A6.508,6.508,0,0,0,32.02,52.53c.1-.185.2-.382.286-.584.027-.06.056-.114.082-.175a10.2,10.2,0,0,0,.493-1.518c.007-.027.016-.052.022-.08.227-.954.408-1.9.568-2.853.1-.575.187-1.147.26-1.718.069-.538.13-1.074.177-1.609a36.371,36.371,0,0,0-.486-10.186,52.621,52.621,0,0,0,17.383-1.143c1.213-.278,2.434-.6,3.661-.965.844-.248,1.69-.5,2.54-.791a10.89,10.89,0,0,0,3.182-1.525A3.863,3.863,0,0,0,61.7,27.189a1.682,1.682,0,0,0,.027-.361,1.513,1.513,0,0,0,.012-.158,2.413,2.413,0,0,0-.444-1.043c-.914-1.292-2.623-1.846.207-2.493a14.087,14.087,0,0,0,5.523-2.327c.113-.087.215-.187.323-.28a7.9,7.9,0,0,0,2.136-2.847,7.116,7.116,0,0,0-.147-6.221A13.349,13.349,0,0,0,65.279,7.13c-.671-.506-1.362-.941-2.05-1.388-.246-.16-.485-.344-.733-.5C55.275.8,47.046-.567,36.5.2,25.833.981,13.821,3.448,4.843,11.039A17.131,17.131,0,0,0,1.4,14.76a8.153,8.153,0,0,0,.5,9.816C4,27.046,7.3,28.428,10.535,29.758,7.649,31.107,4.4,32.786,3.12,35.4a4.981,4.981,0,0,0-.507,2.592,5.054,5.054,0,0,0,.139.742" transform="translate(47.439 9.584)" fill="#c8378b"/>
      <ellipse id="Elipse_2" data-name="Elipse 2" cx="3.784" cy="3.784" rx="3.784" ry="3.784" transform="translate(93.211 54.391)" fill="#313133"/>
      <ellipse id="Elipse_3" data-name="Elipse 3" cx="1.586" cy="1.586" rx="1.586" ry="1.586" transform="translate(96.038 54.69)" fill="#fff3c9"/>
      <ellipse id="Elipse_4" data-name="Elipse 4" cx="3.784" cy="3.784" rx="3.784" ry="3.784" transform="translate(115.356 48.372)" fill="#313133"/>
      <ellipse id="Elipse_5" data-name="Elipse 5" cx="1.586" cy="1.586" rx="1.586" ry="1.586" transform="translate(118.183 48.671)" fill="#fff3c9"/>
      <path id="Trazado_3449" data-name="Trazado 3449" d="M1.14,1.861A8.2,8.2,0,0,0,.565,4.79,11.3,11.3,0,0,1,.137,7.752a1.92,1.92,0,0,0-.124.894A11.892,11.892,0,0,0,5.4,5.084a.782.782,0,0,1,.081-.063c.522-1.292.809-3.047.008-4.113a2.262,2.262,0,0,0-.83-.659A2.291,2.291,0,0,0,3.353.019,2.386,2.386,0,0,0,2.5.339,3.41,3.41,0,0,0,1.14,1.861Z" transform="translate(113.418 65.475)" fill="#ec411b"/>
    </g>
    <g id="Grupo_1983" data-name="Grupo 1983" transform="translate(-22.641 165.155) rotate(-8)">
      <g id="Capa_22" data-name="Capa 22" transform="translate(0 0)">
        <g id="Grupo_1974" data-name="Grupo 1974" transform="translate(3.124 65.694)">
          <g id="Grupo_1970" data-name="Grupo 1970" transform="translate(44.577 57.048)">
            <path id="Trazado_3620" data-name="Trazado 3620" d="M15.469,1.509A35.505,35.505,0,0,1,22.947,0a19.706,19.706,0,0,0-7.9,3.494A26.761,26.761,0,0,1,19.7,2.448C33.263.666,44.32,10.471,42.408,27.067l2.111,2.17c3.046-2.522,10.039-8.591,14.747-7.531a1.683,1.683,0,0,1,.955.4s0,0,.005,0l.038.031c-.042.018-.085.033-.123.052-2.254.933-3.676,2.111-3.426,4.28L61.584,23.2l.08-.053a.17.17,0,0,1,.028.02h0A6.024,6.024,0,0,1,63.234,24.8a.009.009,0,0,0,.006.006l.054.076c-.1.005-.2.012-.3.021-2.718.225-5.572,1.826-5.059,4.385,1.492-.685,3.838-2.758,5.688-3.64l.1-.048.006.009a5.047,5.047,0,0,1,.967,2.169c.8,3.157-.561,5.872-2.25,8.013-1.837,2.33-4.525,4.143-7.18,6.062C44.448,49.66,28.98,56.361,20.177,47.79l-.172-.193c-2.117-2.487-5.274-6.4-7.771-10.026q-1.044-1.548-2.015-3.122A101.2,101.2,0,0,1,1.1,14.753q-.273-.8-.531-1.608Q.27,12.192,0,11.23A37.636,37.636,0,0,1,15.469,1.509Z" transform="translate(3.358 0.265)" fill="#a1785d" fill-rule="evenodd"/>
            <path id="Trazado_3621" data-name="Trazado 3621" d="M18.409,3.758A19.706,19.706,0,0,1,26.3.265l.173-.033L26.71.193c.135-.02.27-.041.4-.057S27.376.1,27.5.09c.073-.009.147-.017.219-.021.117-.013.232-.022.349-.028.178-.014.354-.025.532-.028a.56.56,0,0,1,.063,0C28.824,0,28.98,0,29.134,0s.3,0,.445.007.312.009.468.019c.1,0,.205.011.306.02a15.759,15.759,0,0,1,3.318.611c.123.036.242.074.366.112.465.148.926.316,1.377.506.133.055.265.112.4.171a18.88,18.88,0,0,1,2.7,1.473c.1.066.207.136.31.207s.2.137.307.211A21.162,21.162,0,0,1,40.94,4.764c.146.127.293.259.435.391.083.075.166.148.244.226s.155.147.231.221c.112.107.221.217.332.327q.525.53,1.017,1.089c.069.08.139.16.207.241.126.142.246.286.364.433s.238.295.355.444.228.294.341.443c.151.2.3.4.442.609.077.109.152.215.227.325.088.128.173.258.258.384s.167.258.25.389c.292.459.566.921.822,1.392.052.09.1.185.152.276.075.139.148.279.221.422l.119.237c.1.2.2.408.3.613.082.174.161.347.236.521.052.116.1.237.153.354.063.146.123.293.181.443l.141.357c.052.14.1.279.154.419.046.123.088.245.128.369.126.36.238.719.34,1.077.033.117.065.233.1.348.033.13.069.256.1.386.021.079.039.16.058.237.028.114.056.228.079.342.032.144.062.291.09.437.036.184.07.37.1.555.026.144.048.288.068.434a.083.083,0,0,1,0,.028c.022.143.04.286.056.43s.031.282.043.425c.029.312.049.624.06.934,0,.119,0,.236.007.352.006.176,0,.353,0,.529,0,.106-.008.21-.012.313-.005.137-.015.27-.023.406a.031.031,0,0,1,0,.018c-.01.133-.021.27-.035.4s-.028.248-.045.369c-.02.156-.042.312-.073.467-.02.12-.043.238-.067.353-.028.131-.057.259-.087.387.174-.2.351-.4.532-.589.005,0,.006-.007.011-.009l.167-.177c.108-.112.219-.223.328-.332.084-.085.169-.168.254-.247s.172-.163.259-.243.174-.16.262-.238c.264-.236.535-.464.811-.684.184-.147.372-.29.56-.43s.379-.278.574-.408c.148-.1.3-.2.451-.3a.437.437,0,0,1,.05-.032l.168-.109c.074-.046.15-.094.226-.138.12-.074.241-.145.363-.216.1-.061.208-.119.314-.177.044-.026.087-.052.135-.076.108-.06.216-.116.326-.174a.6.6,0,0,0,.065-.035q.217-.113.439-.218l0,0c.149-.074.3-.145.458-.216l.005,0c.207-.092.412-.183.619-.269h0c.316-.13.633-.251.951-.365.539-.188,1.083-.357,1.637-.5.151-.036.3-.072.45-.1C66.7,17.24,72.644,28,71.284,33.83a0,0,0,0,0,0,0,19.9,19.9,0,0,1-3.046,4.383.034.034,0,0,1-.012.013c-.5.512-1.084,1.079-1.768,1.712-1.545,1.43-3.113,2.882-4.922,4.324,0,0,0,0,0,0a64.254,64.254,0,0,1-7.719,4.958c.019,0,.036-.005.055-.006-.216.114-.439.225-.664.337-5.086,2.523-13.373,6.635-23.083,5.176A28.656,28.656,0,0,1,21.177,51.8a88.734,88.734,0,0,1-9.151-11.516c-.752-1.094-1.478-2.206-2.159-3.344A103.224,103.224,0,0,1,.722,17.485Q.346,16.417,0,15.339a45.335,45.335,0,0,1,3.358-3.845q.27.962.564,1.915.258.808.531,1.608a101.2,101.2,0,0,0,9.123,19.7q.968,1.578,2.015,3.122c2.5,3.622,5.655,7.539,7.771,10.026l.172.193c8.8,8.571,24.271,1.87,35.09-5.942,2.656-1.919,5.344-3.732,7.18-6.062,1.689-2.142,3.052-4.856,2.25-8.013a5.047,5.047,0,0,0-.967-2.169,2.585,2.585,0,0,0-.357-.643c-.043-.056-.087-.109-.133-.16a.009.009,0,0,1-.006-.006,6.024,6.024,0,0,0-1.539-1.628h0a3.5,3.5,0,0,0-.68-.637,3.576,3.576,0,0,0-.785-.421s-.005,0-.005,0a1.683,1.683,0,0,0-.955-.4c-4.708-1.06-11.7,5.009-14.747,7.531l-2.111-2.17c1.911-16.6-9.145-26.4-22.7-24.619A26.761,26.761,0,0,0,18.409,3.758Z" transform="translate(0 0)" fill="#3d2f1a" fill-rule="evenodd"/>
            <path id="Trazado_3622" data-name="Trazado 3622" d="M5.119.1c.1-.009.2-.016.3-.021L5.363,0c.046.051.09.1.133.16A2.585,2.585,0,0,1,5.853.8L5.847.793l-.1.048C3.9,1.723,1.552,3.8.06,4.481-.453,1.923,2.4.322,5.119.1Z" transform="translate(61.236 25.066)" fill="#3d2f1a" fill-rule="evenodd"/>
            <path id="Trazado_3623" data-name="Trazado 3623" d="M3.577.031,3.54,0a3.576,3.576,0,0,1,.785.421,3.5,3.5,0,0,1,.68.637.17.17,0,0,0-.028-.02l-.08.053L.028,4.362C-.221,2.194,1.2,1.015,3.454.083,3.492.064,3.535.048,3.577.031Z" transform="translate(60.045 22.374)" fill="#3d2f1a" fill-rule="evenodd"/>
          </g>
          <g id="Grupo_1971" data-name="Grupo 1971" transform="translate(4.337 4.332)">
            <path id="Trazado_3624" data-name="Trazado 3624" d="M7.518,5.138C4.807,3.477,2.3,1.748,0,0A91,91,0,0,0,7.518,5.138Z" transform="translate(30.614 111.153)" fill="#a1785d" fill-rule="evenodd"/>
            <path id="Trazado_3625" data-name="Trazado 3625" d="M2.395,1.974Q1.158.986,0,0,1.156.989,2.395,1.974Z" transform="translate(26.527 107.865)" fill="#a1785d" fill-rule="evenodd"/>
            <path id="Trazado_3626" data-name="Trazado 3626" d="M9.217,18.281l-.338.536A58.36,58.36,0,0,0,.066,46.5C-.871,65.48,8.438,79.271,14,87.51a84.669,84.669,0,0,0,13.9,15.8A87.176,87.176,0,0,0,62.795,122.3c6.071-3.939,15.459-11.756,20.19-24.527A48.489,48.489,0,0,0,86.164,81.6a40.06,40.06,0,0,0-.5-6.921,54.78,54.78,0,0,0-2.333-8.59c-1.053-3.324-2.491-7.874-4.659-15.185-1.215-4.1-1.865-6.393-2.3-7.908-.291-1.028-.482-1.707-.68-2.34a59.713,59.713,0,0,0-8.437-16.325,78.557,78.557,0,0,0-11.69-13.093A51.908,51.908,0,0,0,41.356,1.919C36.734.017,32.65-.474,29.221.459a25.4,25.4,0,0,0-6.365,3.1C15.714,7.938,11.959,13.917,9.217,18.281Z" transform="translate(0 0)" fill="#a1785d" fill-rule="evenodd"/>
            <path id="Trazado_3627" data-name="Trazado 3627" d="M0,0C.185.241.379.485.575.735.376.485.184.239,0,0Z" transform="translate(13.511 94.24)" fill="#3d2f1a"/>
          </g>
          <path id="Trazado_3628" data-name="Trazado 3628" d="M24.925,4.193A29.443,29.443,0,0,1,32.418.609,16.811,16.811,0,0,1,34.163.232c.224-.035.449-.067.679-.093.138-.02.281-.036.424-.048.228-.023.456-.043.685-.054.3-.019.6-.031.91-.035s.612,0,.92.008c.154.005.308.011.462.019q.463.027.932.072c.624.062,1.255.148,1.886.262.319.058.636.121.954.19s.639.142.961.225q1.273.324,2.558.777c.277.1.556.2.833.3,1.136.431,2.282.931,3.426,1.492q.49.244.98.5a60.786,60.786,0,0,1,12.02,8.489q.457.407.907.823t.9.842q.9.849,1.768,1.732.438.441.869.891t.856.906q.428.453.845.918l0,0q.419.463.83.931l0,0c.274.315.545.629.817.946s.537.637.8.957l0,0c.264.322.528.644.786.968l0,0c.26.326.519.65.773.978s.509.657.758.988.5.663.74,1,.485.666.724,1c1.069,1.514,2.082,3.049,3.019,4.6q.47.775.916,1.551.742,1.294,1.416,2.6c.179.344.353.691.522,1.035q.644,1.3,1.208,2.591c.15.344.3.689.437,1.029,0,0,0,0,0,0,.142.345.278.688.409,1.027.4,1.026.757,2.047,1.069,3.056.515,1.65.93,3.343,2.993,10.3,5.255,17.737,6.362,19.616,7.115,24.322,1.915,11.935-1.659,21.929-2.9,25.28-6,16.2-18.633,24.734-23.55,27.694A91.891,91.891,0,0,1,43.5,121.243q-.517-.308-1.028-.62c-2.711-1.66-5.217-3.39-7.518-5.138q-.867-.658-1.692-1.314-1.236-.988-2.395-1.974c-.516-.437-1.018-.876-1.508-1.313-.734-.653-1.442-1.306-2.124-1.951q-.326-.307-.642-.617a91.022,91.022,0,0,1-7.557-8.245c-.14-.174-.275-.343-.409-.511-.067-.086-.135-.17-.2-.254-.2-.25-.39-.494-.575-.735q-.647-.842-1.2-1.59c-.1-.141-.205-.282-.305-.419-.648-.89-1.182-1.663-1.605-2.293C9.019,85.793-.938,71.041.071,50.617a62.49,62.49,0,0,1,9.475-29.78C12.491,16.162,16.609,9.3,24.925,4.193ZM13.554,22.613l-.338.536A58.36,58.36,0,0,0,4.4,50.83C3.466,69.813,12.776,83.6,18.336,91.842a84.67,84.67,0,0,0,13.9,15.8A87.176,87.176,0,0,0,67.132,126.63c6.071-3.939,15.459-11.756,20.19-24.527A48.489,48.489,0,0,0,90.5,85.937a40.059,40.059,0,0,0-.5-6.921,54.779,54.779,0,0,0-2.333-8.59c-1.053-3.324-2.491-7.874-4.659-15.185-1.215-4.1-1.865-6.393-2.3-7.908-.291-1.028-.482-1.707-.68-2.34A59.713,59.713,0,0,0,71.6,28.67,78.557,78.557,0,0,0,59.91,15.576,51.908,51.908,0,0,0,45.693,6.251c-4.622-1.9-8.706-2.393-12.135-1.46a25.4,25.4,0,0,0-6.365,3.1C20.051,12.27,16.3,18.249,13.554,22.613Z" transform="translate(0 0)" fill="#3d2f1a" fill-rule="evenodd"/>
          <g id="Grupo_1972" data-name="Grupo 1972" transform="translate(59.765 98.175)">
            <path id="Trazado_3629" data-name="Trazado 3629" d="M130.405,20.151c-.258-1.54-1.282-2.693-4.388-5.066a44.512,44.512,0,0,0-4.988-3.511,38.338,38.338,0,0,0-11.408-4.753,37.657,37.657,0,0,0-13.139-.4c-3.558.5-6.489,1.524-12.352,3.572-4.768,1.666-6.595,2.623-11.253,3.852-2.5.66-2.711.577-5.822,1.421-3.254.884-4.372,1.34-6.331,1.4a18.233,18.233,0,0,1-4.921-.724c-4.722-1.1-7.709-1.791-11.024-3.664-.737-.416-1.577-.94-5.612-4.27-2.288-1.888-5.392-4.5-9.04-7.748C28.528.019,18.044-1.385,9.2,6.095-.894,14.628-.043,27.273.06,28.5A95.216,95.216,0,0,0,20.9,38.237,92.84,92.84,0,0,0,31.324,40.97a91.261,91.261,0,0,0,16.351,1.769,89.4,89.4,0,0,0,26.89-3.632c5.665-1.705,11.618-3.5,16.974-7.141,2.954-2.01,6.115-3.7,9.129-5.619a19.8,19.8,0,0,1,4.645-2.332,21.742,21.742,0,0,1,5.715-1.021,30.358,30.358,0,0,1,4.926.112,39.644,39.644,0,0,1,9.159,2.019,4.393,4.393,0,0,0,2.436-.1,4.625,4.625,0,0,0,2.646-2.593A4.45,4.45,0,0,0,130.405,20.151Z" transform="translate(0.396 2.328)" fill="#a1785d" fill-rule="evenodd"/>
            <path id="Trazado_3630" data-name="Trazado 3630" d="M125.3,20.079h0c-.462-.411-1.087-.917-1.911-1.546a41.028,41.028,0,0,0-4.528-3.2,34.352,34.352,0,0,0-10.184-4.274,33.4,33.4,0,0,0-11.587-.338c-3.134.441-5.764,1.36-11.525,3.372-1.547.541-2.753,1-3.919,1.436a68.722,68.722,0,0,1-7.659,2.514c-1.216.321-1.938.481-2.637.635-.8.177-1.548.343-3.154.779-.69.187-1.288.357-1.816.506A20.528,20.528,0,0,1,60.857,21a22.311,22.311,0,0,1-6.035-.834c-4.829-1.122-8.318-1.932-12.176-4.112-1.039-.587-2.035-1.231-6.239-4.7-2.71-2.236-5.44-4.566-8.132-6.94A22.683,22.683,0,0,0,12,9.407,21.235,21.235,0,0,0,5.027,21.035a25.937,25.937,0,0,0-.673,4.993,90.731,90.731,0,0,0,17.891,8.084,88.224,88.224,0,0,0,9.931,2.6A86.9,86.9,0,0,0,47.748,38.4a86.132,86.132,0,0,0,25.568-3.448C78.714,33.33,84.3,31.65,89.1,28.381c1.835-1.249,3.718-2.366,5.54-3.446,1.287-.763,2.5-1.484,3.7-2.246l.051-.032a23.687,23.687,0,0,1,5.545-2.753,25.976,25.976,0,0,1,6.809-1.236,35.548,35.548,0,0,1,5.627.123,44.053,44.053,0,0,1,9.718,2.086,6.943,6.943,0,0,0-.794-.8m2.884-3.239c1.461,1.3,2.041,2.207,2.226,3.312a4.45,4.45,0,0,1-.209,2.277,4.625,4.625,0,0,1-2.646,2.593,4.393,4.393,0,0,1-2.436.1,39.644,39.644,0,0,0-9.159-2.019,30.358,30.358,0,0,0-4.926-.112,21.742,21.742,0,0,0-5.715,1.021,19.8,19.8,0,0,0-4.645,2.332c-3.014,1.919-6.175,3.609-9.129,5.619C86.184,35.61,80.231,37.4,74.566,39.108a89.4,89.4,0,0,1-26.89,3.632A91.261,91.261,0,0,1,31.324,40.97,92.84,92.84,0,0,1,20.9,38.237,95.216,95.216,0,0,1,.06,28.5C-.043,27.273-.894,14.628,9.2,6.095,18.044-1.385,28.528.019,30.127.261c3.649,3.245,6.752,5.86,9.04,7.748,4.035,3.329,4.875,3.853,5.612,4.27,3.315,1.873,6.3,2.567,11.024,3.664a18.233,18.233,0,0,0,4.921.724c1.959-.06,3.077-.516,6.331-1.4,3.111-.845,3.317-.761,5.822-1.421,4.659-1.228,6.486-2.186,11.253-3.852,5.862-2.048,8.794-3.072,12.352-3.572a37.657,37.657,0,0,1,13.139.4,38.338,38.338,0,0,1,11.408,4.753,44.459,44.459,0,0,1,4.987,3.511c.877.67,1.587,1.242,2.162,1.754Z" transform="translate(0.396 2.328)" fill="#3d2f1a"/>
            <path id="Trazado_3631" data-name="Trazado 3631" d="M29.451,7.87c-2.168-1.485-7.244,2.655-10.587.075a4.577,4.577,0,0,1-1.115-1.264,10.938,10.938,0,0,1-1.041-2.147c-.927-2.613-.3-4.065-.873-4.444C14.671-.679,9.463,3.567,5.752,9.484A39.921,39.921,0,0,0,0,26.069l3.588,1.658L5.8,28.964c.393.042.99.106,1.717.19,9.4,1.079,10.864,1.94,12.69,1.705C27.915,29.866,33.223,10.454,29.451,7.87Z" transform="translate(0 0)" fill="#a1785d" fill-rule="evenodd"/>
          </g>
          <path id="Trazado_3632" data-name="Trazado 3632" d="M3.861,13.293A28.562,28.562,0,0,0,.055,26.919c-.982,19.552,11.151,57.659,33.426,59.06,9.461.6,22.041-5.351,27.69-15.324a25.188,25.188,0,0,0,2.281-5.442,40.06,40.06,0,0,0-.5-6.921,54.782,54.782,0,0,0-2.333-8.59c-1.053-3.324-2.491-7.874-4.659-15.185-1.215-4.1-1.865-6.393-2.3-7.908-.291-1.028-.482-1.707-.68-2.34A59.713,59.713,0,0,0,44.55,7.945C39.326,3.331,31.772-1.067,22.732.231,10.833,1.944,4.4,12.382,3.861,13.293Z" transform="translate(27.05 20.724)" fill="#efe0c4" fill-rule="evenodd"/>
          <g id="Grupo_1973" data-name="Grupo 1973" transform="translate(9.708 64.219)">
            <path id="Trazado_3633" data-name="Trazado 3633" d="M12.766,3.216A35.5,35.5,0,0,1,19.685,0a19.7,19.7,0,0,0-6.859,5.243,26.766,26.766,0,0,1,4.279-2.1c12.766-4.9,25.809,2.044,27.832,18.626l2.56,1.617c2.371-3.164,7.752-10.7,12.577-10.771a1.687,1.687,0,0,1,1.022.165l.006,0,.043.021c-.036.027-.074.052-.107.08-1.973,1.434-3.079,2.912-2.331,4.962l3.97-4.319.065-.07a.137.137,0,0,1,.032.012h0a6.031,6.031,0,0,1,1.877,1.224.012.012,0,0,0,.008,0l.071.061c-.094.028-.19.058-.284.09-2.59.854-4.991,3.079-3.894,5.446,1.291-1.015,3.087-3.579,4.679-4.869l.085-.07.008.008a5.058,5.058,0,0,1,1.448,1.882c1.518,2.882.827,5.839-.314,8.317-1.241,2.695-3.431,5.087-5.564,7.573C52.2,43.255,38.73,53.388,28.167,47.113l-.212-.148c-2.64-1.923-6.625-4.994-9.9-7.931q-1.377-1.26-2.689-2.563A101.182,101.182,0,0,1,1.889,19.454Q1.437,18.74,1,18.014q-.51-.857-1-1.73A37.649,37.649,0,0,1,12.766,3.216Z" transform="translate(2.366 1.363)" fill="#a1785d" fill-rule="evenodd"/>
            <path id="Trazado_3634" data-name="Trazado 3634" d="M15.191,6.606A19.7,19.7,0,0,1,22.05,1.363l.16-.073.217-.092c.126-.051.253-.1.379-.15s.247-.093.369-.137c.069-.026.138-.051.209-.072.11-.039.22-.075.333-.109.17-.055.339-.107.511-.151a.591.591,0,0,1,.06-.019q.225-.064.451-.117c.144-.037.29-.068.434-.1s.306-.064.46-.091c.1-.02.2-.038.3-.052A15.685,15.685,0,0,1,29.3.023c.127.006.252.015.382.023.487.036.974.091,1.457.17.143.023.283.048.427.074a18.972,18.972,0,0,1,2.97.8c.117.04.233.084.35.129s.231.086.348.134a20.977,20.977,0,0,1,2.095.962c.172.089.345.184.515.279.1.053.195.105.289.163s.185.107.276.161c.134.078.266.158.4.241q.635.392,1.243.821c.086.061.173.123.258.186.155.109.306.221.455.335s.3.231.449.35.291.232.436.351c.194.161.384.322.572.489.1.087.2.173.3.263.116.1.229.21.34.313s.223.212.335.319c.391.378.766.764,1.125,1.161.072.075.142.156.212.234.105.117.208.237.314.359l.171.2c.148.174.29.35.432.526.12.15.237.3.351.451.078.1.156.206.231.309q.143.191.279.387l.221.315c.083.123.167.246.248.371.074.109.143.218.211.329.207.32.4.643.583.967.059.107.117.211.175.316s.127.233.187.352c.038.072.074.147.111.217.054.1.107.209.157.313.065.133.128.268.189.4.079.171.155.343.227.516.059.134.114.269.167.406a.087.087,0,0,1,.009.026c.055.134.106.269.156.406s.1.266.141.4c.1.3.194.6.277.894.032.114.059.228.089.34.046.17.087.342.123.514.022.1.042.206.062.308.027.134.049.266.072.4a.024.024,0,0,1,0,.018c.022.131.043.268.06.4s.031.248.043.37c.017.156.032.313.039.471q.011.182.017.359c0,.134,0,.265.006.4.122-.235.248-.469.38-.7,0,0,0-.008.008-.012l.121-.211c.079-.134.161-.268.241-.4.062-.1.126-.2.189-.3s.13-.2.2-.3.131-.2.2-.293c.2-.291.411-.576.628-.855q.218-.279.444-.549c.151-.18.3-.359.462-.531.12-.135.244-.266.368-.4a.483.483,0,0,1,.04-.043L53.3,15.3c.061-.063.124-.127.187-.188.1-.1.2-.2.3-.3s.175-.164.264-.246c.036-.035.073-.07.113-.105.091-.084.182-.164.276-.246a.582.582,0,0,0,.055-.049q.185-.16.377-.315l0,0c.127-.107.261-.212.394-.318l0,0c.18-.138.358-.274.54-.406l0,0c.277-.2.557-.391.84-.577.48-.309.97-.6,1.475-.867.139-.071.275-.14.414-.2,6.747-3.052,15.046,6.021,15.086,12.005v0a19.885,19.885,0,0,1-1.937,4.974.032.032,0,0,1-.008.016c-.366.614-.8,1.3-1.319,2.078-1.167,1.752-2.353,3.53-3.774,5.355,0,0,0,0,0,0a64.382,64.382,0,0,1-6.346,6.626l.052-.019c-.185.162-.375.322-.568.483C55.374,46.641,48.278,52.577,38.5,53.43a28.654,28.654,0,0,1-9.38-.761,88.731,88.731,0,0,1-11.59-9.057c-.987-.887-1.953-1.8-2.881-2.747A103.238,103.238,0,0,1,1.2,24.088Q.588,23.138,0,22.17a45.265,45.265,0,0,1,2.366-4.524q.489.873,1,1.73.44.726.892,1.44A101.182,101.182,0,0,0,17.731,37.833q1.31,1.307,2.689,2.564c3.275,2.937,7.261,6.008,9.9,7.931l.212.148C41.1,54.751,54.568,44.618,63.261,34.492c2.133-2.486,4.323-4.878,5.564-7.573,1.141-2.478,1.832-5.436.314-8.317a5.058,5.058,0,0,0-1.448-1.882,2.589,2.589,0,0,0-.5-.542c-.055-.045-.11-.086-.167-.124a.012.012,0,0,1-.008,0,6.031,6.031,0,0,0-1.877-1.224h0a3.528,3.528,0,0,0-.81-.46,3.575,3.575,0,0,0-.862-.225l-.006,0a1.687,1.687,0,0,0-1.022-.165c-4.825.07-10.205,7.607-12.577,10.771L47.3,23.128C45.279,6.545,32.236-.4,19.47,4.5A26.766,26.766,0,0,0,15.191,6.606Z" transform="translate(0 0)" fill="#3d2f1a" fill-rule="evenodd"/>
            <path id="Trazado_3635" data-name="Trazado 3635" d="M4.167.151c.094-.032.19-.062.284-.09L4.38,0c.057.039.112.08.167.124a2.589,2.589,0,0,1,.5.542L5.037.658l-.085.07C3.36,2.018,1.563,4.582.273,5.6-.825,3.23,1.577,1.005,4.167.151Z" transform="translate(62.646 16.054)" fill="#3d2f1a" fill-rule="evenodd"/>
            <path id="Trazado_3636" data-name="Trazado 3636" d="M2.673.021,2.63,0a3.575,3.575,0,0,1,.862.225,3.528,3.528,0,0,1,.81.46A.137.137,0,0,0,4.27.673l-.065.07L.236,5.062C-.513,3.012.593,1.534,2.566.1,2.6.073,2.637.048,2.673.021Z" transform="translate(60.837 14.141)" fill="#3d2f1a" fill-rule="evenodd"/>
          </g>
        </g>
        <g id="Grupo_1975" data-name="Grupo 1975" transform="translate(0 24.056)">
          <path id="Trazado_3637" data-name="Trazado 3637" d="M93.024,26.223a9.182,9.182,0,0,1-2.143,2.005,38.761,38.761,0,0,1,1.269,5.348,30.073,30.073,0,0,1,.137,8.782,23.963,23.963,0,0,1-1.831,6.054,29.509,29.509,0,0,1-5.619,8.728c-3.777,4.039-7.648,5.765-13.376,8.415a74.309,74.309,0,0,1-16.119,5.217c-4.83.991-8.07,1.655-12.637,1.519C32.776,72,24.814,68.165,20.82,66.2c-1.215-.6-2.19-1.129-2.813-1.476a.009.009,0,0,0,0,0c-.22-.468-1.089-1.14-2.831-2.114-.121-.1-.237-.191-.354-.29a.027.027,0,0,0-.009-.009,20.265,20.265,0,0,1-2.721-3.025q-.67-.866-1.268-1.786a29.064,29.064,0,0,1-4.37-16.707,9.882,9.882,0,0,1-2.332-1.149C.261,37.065-1.133,32.372,1,29.152c1.623-2.451,4.826-3.342,7.964-2.49a36.012,36.012,0,0,1,1.955-4.555C16.635,10.968,27.408,4.461,39.282,1.621c5.8-1.39,17.555-2.765,23.63-.114C70.58,2.574,79,8.559,83.684,14.426c.187.237.374.476.559.719a7.213,7.213,0,0,1,8.147.184C95.522,17.761,95.807,22.636,93.024,26.223Z" transform="translate(0 0)" fill="#3d2f1a" fill-rule="evenodd"/>
          <path id="Trazado_3638" data-name="Trazado 3638" d="M4,19.756C14.87-1.419,45.551-1.629,50.914,1.39,57.6,2.01,65.466,7.7,69.538,12.8a38.938,38.938,0,0,1,7.58,17.141,24.509,24.509,0,0,1,.129,7.456c-1.123,7.513-6.033,13.172-12.93,17.365a55.7,55.7,0,0,1-14.368,5.889c-7.489-6.618-18.986-8.2-23.391,2.142-7.352-.811-16.409-3.539-21.821-10.5q-.556-.74-1.058-1.488c-3.446-5.318-4.9-12.816-2.485-23.3A33.173,33.173,0,0,1,4,19.754Z" transform="translate(11.279 4.453)" fill="#a1785d" fill-rule="evenodd"/>
          <path id="Trazado_1132" data-name="Trazado 1132" d="M37.3,11.813C26.064,14.372,14.925-2.123,0,16.672a22.481,22.481,0,0,0,3.2,8.194q.5.747,1.058,1.488c5.412,6.956,14.469,9.684,21.821,10.5a52.144,52.144,0,0,0,10.127.391,52.223,52.223,0,0,0,13.263-2.533,55.715,55.715,0,0,0,14.369-5.889c6.9-4.193,11.808-9.852,12.93-17.366a21.888,21.888,0,0,0,.218-3.825C61.878-10.138,53.116,8.213,37.3,11.813Z" transform="translate(11.727 30.602)" fill="#efe0c4" fill-rule="evenodd"/>
          <path id="Trazado_3639" data-name="Trazado 3639" d="M32.409,33.137a27.585,27.585,0,0,0-.347-3.632,38.942,38.942,0,0,0-7.58-17.141C20.411,7.262,12.548,1.575,5.858.954A10.436,10.436,0,0,0,2.7,0C8.687,1.63,15.047,6.483,18.571,10.9a39.074,39.074,0,0,1,7.477,16.544c.036.2.07.4.1.6a24.488,24.488,0,0,1,.129,7.458c-.512,3.752-4.879,10.626-12.93,17.365A68.983,68.983,0,0,1,0,61.609l4.381-1.235a50.581,50.581,0,0,0,5.826-1.711,49.6,49.6,0,0,0,9.055-4.335A37.831,37.831,0,0,0,23.1,51.669a29.7,29.7,0,0,0,3.311-3.042,22.271,22.271,0,0,0,4.9-8.021,21.023,21.023,0,0,0,1.1-7.468Z" transform="translate(56.816 4.935)" fill-rule="evenodd" opacity="0.13" style="isolation: isolate"/>
        </g>
        <g id="Grupo_1976" data-name="Grupo 1976" transform="translate(45.666 76.97)">
          <path id="Trazado_3497" data-name="Trazado 3497" d="M56.552.488A14.346,14.346,0,0,0,50.142.252C39.082,1.774,31.462,2.819,21.77,7.594A71.626,71.626,0,0,0,10.631,14.41c-3.956,2.947-5.362,4.22-6.324,5.4A16.469,16.469,0,0,0,.089,28.518,16.116,16.116,0,0,0,2.9,38.979c2.123,3.392,3.869,4.716,4.417,5.042a10.538,10.538,0,0,0,3.439,1.292,13.774,13.774,0,0,1-3.271-2.951,13.046,13.046,0,0,1-1.568-2.531,13.314,13.314,0,0,1-1.272-6.164A13.88,13.88,0,0,1,7.56,25.894c2.034-2.752,5.326-4.886,8.152-6.773a67.238,67.238,0,0,1,9.81-5.408,75.623,75.623,0,0,1,21.394-5.94,42.574,42.574,0,0,1,12.3-.055,12.352,12.352,0,0,1,4.113,1.274,9.96,9.96,0,0,1,2.221,1.715A13.721,13.721,0,0,1,68.63,15.3a22.507,22.507,0,0,0-2.548-6.378C65.067,7.209,62.049,2.11,56.552.488Z" transform="translate(0 0)" fill="#527e8f"/>
          <path id="Trazado_3498" data-name="Trazado 3498" d="M.059,0,0,.046H0Z" transform="translate(19.505 44.315)" fill="#527e8f"/>
          <path id="Trazado_3504" data-name="Trazado 3504" d="M54.576.44a42.8,42.8,0,0,0-12.3.055A75.622,75.622,0,0,0,20.886,6.435a67.061,67.061,0,0,0-9.81,5.408c-2.827,1.887-6.119,4.02-8.153,6.773A13.876,13.876,0,0,0,.008,26.389,13.318,13.318,0,0,0,1.28,32.552a13.075,13.075,0,0,0,1.568,2.532,13.79,13.79,0,0,0,3.271,2.95c8.012-2.91,14.164-5.618,18.445-7.632,0,0,12.063-5.5,18.793-5.975.959-.068,1.926-.1,2.9-.121,2.347-.049,4.706-.035,7-.292a22.221,22.221,0,0,0,2.968-.523,16.36,16.36,0,0,0,2.029-.646,23.3,23.3,0,0,0,4.31-1.954c.025-.016.044-.036.068-.052a5.461,5.461,0,0,0,1.822-3.162,14.6,14.6,0,0,0,.553-2.816,14.221,14.221,0,0,0-.462-5.291,14.32,14.32,0,0,0-3.21-5.687c-.125-.137-.251-.28-.426-.455A11.386,11.386,0,0,0,54.576.44ZM49.588,17.547l-.213.045-.105-.02-.006,0a6.327,6.327,0,0,1-1.731.323,6.144,6.144,0,0,1-1.922-.273,3.408,3.408,0,0,1-1.58-.851,1.156,1.156,0,0,1-.043-1.568,2.1,2.1,0,0,1,1.621-1.43,5.5,5.5,0,0,1,1.863-.18c1.234.065,4.139.572,4.2,1.721l-.006.2a.891.891,0,0,1-.133.38,1.127,1.127,0,0,1-.136.135l0,.057a.9.9,0,0,1-.131.38,2.141,2.141,0,0,1-.861.651c-.051.025-.1.045-.155.069A2.449,2.449,0,0,1,49.588,17.547Zm3.918-7.2a6.6,6.6,0,0,1,2.082-.339,6.268,6.268,0,0,1,2.669.472c.747.367,1,.863.482,1.434,0,.276-.195.58-.643.9a4.774,4.774,0,0,1-2.315.8,8.082,8.082,0,0,1-2.325-.169c-.736-.147-1.529-.426-1.607-1.029a1.014,1.014,0,0,1,.276-.747c.063-.537.691-1.08,1.381-1.33ZM51.444,6.521c1.091.359,2.111,1.363,1.339,2.121-.007.44-.4.869-1.456,1.155-.1.027-.2.046-.3.071-.116.043-.229.091-.346.13a.31.31,0,0,1-.179-.006,9.594,9.594,0,0,1-2.586.2,4.567,4.567,0,0,1-2.774-1.037.685.685,0,0,1-.269-.472.817.817,0,0,1,.285-.529c0-.016-.014-.028-.014-.043,0-.266.255-.532.524-.743a5.95,5.95,0,0,1,2.882-1.136,6.734,6.734,0,0,1,2.9.288ZM37.906,11.715c.012-.013.027-.022.04-.035a.864.864,0,0,1,.23-.537,1.828,1.828,0,0,1,1.016-.489,13.706,13.706,0,0,1,2.449-.222,7.6,7.6,0,0,1,1.2.125c.936.178,2.7.686,1.753,1.749a.906.906,0,0,1-.293.6,3.163,3.163,0,0,1-1.347.752,5.574,5.574,0,0,1-4.65-.417,1.476,1.476,0,0,1-.586-.66.838.838,0,0,1,.19-.865ZM19.078,28.949a8.152,8.152,0,0,1-.9.519l-1.568.933-.14.05-.091-.039-.543-.4-.478.285-.139.05-.092-.039L12.88,28.658c-.144-.106-.252-.191-.361-.271-.053.02-.1.036-.16.06-.944.395-1.854.86-2.761,1.318l-1.112.562c-.2-.136-.392-.288-.582-.441l-.67.339a16.061,16.061,0,0,1-2.612-2.4q1.251-.715,2.487-1.448c.434-.259,1.884-.9,2-1.311.129-.448-2.938-2.562-2.585-2.821a17.44,17.44,0,0,1,2.491-1.508A4.962,4.962,0,0,1,10.642,20a1.261,1.261,0,0,1,.68.271,1.49,1.49,0,0,1,.573-.169c.681,0,1.438,1,1.842,1.333l1.311,1.082c.646-.332,1.271-.678,1.955-.974a20.63,20.63,0,0,0,2.877-1.374.592.592,0,0,1,.289-.119l.217.1c.133.107.248.227.376.337.124-.07.251-.136.371-.212a.591.591,0,0,1,.288-.119l.218.1a15.239,15.239,0,0,1,2.222,2.21l.046.109-.1.127a15.654,15.654,0,0,1-2.783,1.462q-1.518.767-3.01,1.566a18.933,18.933,0,0,1,1.967,2.257c.267.42-.325.672-.9.972Zm11.9-5.979a2.011,2.011,0,0,1-.207.11l-.032.032-.151.069-.018.006c-.623.279-1.515.462-2.058.739a7.6,7.6,0,0,1-1.394.636.844.844,0,0,1-.37.039c-.278-.053-.3-.348-.191-.581a2.579,2.579,0,0,1,.91-.9,7.175,7.175,0,0,1,2.781-1.162c.8-.133,1.513.418.731,1.013Zm8.454-2.86c-.035.019-.086.029-.124.047a.413.413,0,0,1-.144.119.386.386,0,0,1-.258.033c-.644.177-1.483.239-2.034.437A7.655,7.655,0,0,1,35.4,21.2a.769.769,0,0,1-.36-.011c-.252-.092-.209-.4-.049-.62a2.923,2.923,0,0,1,1.071-.793,7.181,7.181,0,0,1,2.907-.8c.8-.025,1.34.635.461,1.133Z" transform="translate(4.634 7.279)" fill="#7da5b2"/>
          <path id="Trazado_3505" data-name="Trazado 3505" d="M1.613.516A2.264,2.264,0,0,0,.778.006,1.525,1.525,0,0,0,0,.143C.109.222.217.308.361.414L2.612,2.066l.091.039.14-.051.478-.285Z" transform="translate(17.153 35.524)" fill="#527e8f"/>
          <path id="Trazado_3506" data-name="Trazado 3506" d="M.543,2.886l.18-.047c.85-.4,1.614-.867,2.485-1.245A26.545,26.545,0,0,0,5.714.433C5.586.322,5.471.2,5.339.1L5.121,0a.591.591,0,0,0-.289.118A20.577,20.577,0,0,1,1.955,1.493c-.684.3-1.309.643-1.955.974l.449.371Z" transform="translate(19.681 27.328)" fill="#527e8f"/>
          <path id="Trazado_3507" data-name="Trazado 3507" d="M1.254,7.933Q2.5,7.218,3.741,6.485c.435-.259,1.884-.9,2-1.312.128-.448-2.939-2.562-2.586-2.82A17.413,17.413,0,0,1,5.65.845C5.93.7,6.327.444,6.7.271A1.254,1.254,0,0,0,6.022,0,4.976,4.976,0,0,0,4.4.742,17.493,17.493,0,0,0,1.906,2.252C1.553,2.51,4.62,4.623,4.491,5.072c-.119.415-1.569,1.052-2,1.311Q1.251,7.115,0,7.831a16.073,16.073,0,0,0,2.613,2.4l.67-.339A19.564,19.564,0,0,1,1.254,7.933Z" transform="translate(9.254 27.277)" fill="#527e8f"/>
          <path id="Trazado_3508" data-name="Trazado 3508" d="M1.351.767A5.493,5.493,0,0,1,3.214.586c1.234.066,4.14.572,4.2,1.721l0,.147a1.085,1.085,0,0,0,.135-.136.9.9,0,0,0,.133-.38l.005-.2C7.623.588,4.718.08,3.484.015A5.484,5.484,0,0,0,1.621.2,2.1,2.1,0,0,0,0,1.626,2.6,2.6,0,0,1,1.351.767Z" transform="translate(48.622 20.854)" fill="#527e8f"/>
          <path id="Trazado_3509" data-name="Trazado 3509" d="M0,1.67A2.631,2.631,0,0,1,1.112.911,6.541,6.541,0,0,1,3.194.573a6.239,6.239,0,0,1,2.668.471c.484.238.756.532.752.863.521-.572.265-1.068-.482-1.434A6.267,6.267,0,0,0,3.464,0,6.6,6.6,0,0,0,1.382.339C.691.59.063,1.133,0,1.67Z" transform="translate(56.757 17.293)" fill="#527e8f"/>
          <path id="Trazado_3510" data-name="Trazado 3510" d="M.524,1.183C.254,1.395,0,1.661,0,1.926c0,.016.012.028.014.044a2.388,2.388,0,0,1,.24-.216A5.968,5.968,0,0,1,3.135.619a6.74,6.74,0,0,1,2.9.288c.832.273,1.62.921,1.61,1.549C8.414,1.7,7.395.693,6.3.335a6.733,6.733,0,0,0-2.9-.287A5.95,5.95,0,0,0,.524,1.183Z" transform="translate(49.775 13.466)" fill="#527e8f"/>
          <path id="Trazado_3511" data-name="Trazado 3511" d="M.975.795A13.548,13.548,0,0,1,3.424.573,7.653,7.653,0,0,1,4.621.7c.751.143,2.029.5,2.024,1.177C7.594.81,5.828.3,4.892.124A7.66,7.66,0,0,0,3.695,0,13.645,13.645,0,0,0,1.246.222,1.824,1.824,0,0,0,.23.711.866.866,0,0,0,0,1.248,1.854,1.854,0,0,1,.975.795Z" transform="translate(42.58 17.711)" fill="#527e8f"/>
          <path id="Trazado_3512" data-name="Trazado 3512" d="M7.557,2.32a.9.9,0,0,0,.132-.38l0-.057,0-.147C7.638.587,4.733.081,3.5.015A5.478,5.478,0,0,0,1.636.2a2.606,2.606,0,0,0-1.351.859A1.155,1.155,0,0,0,.329,2.622a3.4,3.4,0,0,0,1.579.851,6.145,6.145,0,0,0,1.922.273,6.344,6.344,0,0,0,1.73-.322.423.423,0,0,1-.236-.2A.428.428,0,0,1,5.3,2.9a.417.417,0,0,1,.207-.242,2.356,2.356,0,0,0,.479-.242,2.013,2.013,0,0,0,.325-.291l.005-.007a.466.466,0,0,1,.268-.183.417.417,0,0,1,.491.325.422.422,0,0,1-.058.308,2.411,2.411,0,0,1-.475.47c.051-.024.1-.043.155-.068A2.135,2.135,0,0,0,7.557,2.32Z" transform="translate(48.338 21.425)" fill="#e50019"/>
          <path id="Trazado_3513" data-name="Trazado 3513" d="M6.139.472A6.239,6.239,0,0,0,3.471,0,6.541,6.541,0,0,0,1.389.34,2.631,2.631,0,0,0,.277,1.1,1.014,1.014,0,0,0,0,1.846c.077.6.87.881,1.607,1.029a8.061,8.061,0,0,0,2.325.169,4.775,4.775,0,0,0,2.315-.8c.449-.325.64-.628.643-.9C6.9,1,6.623.711,6.139.472ZM6.017,2.189a1.725,1.725,0,0,1-.513.394,1.95,1.95,0,0,1-.64.205.467.467,0,0,1-.309-.058.419.419,0,0,1-.183-.266A.415.415,0,0,1,4.7,1.973a1.522,1.522,0,0,0,.256-.06,1.618,1.618,0,0,0,.295-.149,1.291,1.291,0,0,0,.209-.19.4.4,0,0,1,.3-.109.422.422,0,0,1,.284.135.427.427,0,0,1,.109.3.456.456,0,0,1-.136.285Z" transform="translate(56.48 17.864)" fill="#45a735"/>
          <path id="Trazado_3514" data-name="Trazado 3514" d="M6.3.335a6.74,6.74,0,0,0-2.9-.288A5.968,5.968,0,0,0,.525,1.183a2.388,2.388,0,0,0-.24.216A.814.814,0,0,0,0,1.927.686.686,0,0,0,.269,2.4,4.568,4.568,0,0,0,3.043,3.437a9.6,9.6,0,0,0,2.586-.2A.536.536,0,0,1,5.5,3.183a.418.418,0,0,1-.183-.266.426.426,0,0,1,.057-.309.459.459,0,0,1,.266-.183L5.708,2.4A7.189,7.189,0,0,0,6.82,1.9a.416.416,0,1,1,.378.742,7.567,7.567,0,0,1-1.044.469c.1-.025.2-.045.3-.071C7.511,2.756,7.9,2.326,7.911,1.886,7.922,1.256,7.134.608,6.3.335Z" transform="translate(49.505 14.037)" fill="#482080"/>
          <path id="Trazado_3515" data-name="Trazado 3515" d="M.634,2.235a5.567,5.567,0,0,0,4.649.417A3.167,3.167,0,0,0,6.63,1.9a.908.908,0,0,0,.293-.6C6.927.621,5.649.266,4.9.124A7.6,7.6,0,0,0,3.7,0,13.542,13.542,0,0,0,1.253.221,1.857,1.857,0,0,0,.278.677a.434.434,0,0,0-.04.034.84.84,0,0,0-.191.866A1.473,1.473,0,0,0,.634,2.235Zm3.553-.158,1.053-.425a.475.475,0,0,1,.318-.025.417.417,0,0,1,.242.207.414.414,0,0,1-.182.56l-1.053.425a.466.466,0,0,1-.316.024.416.416,0,0,1-.062-.765Z" transform="translate(42.302 18.284)" fill="#ffd400"/>
          <path id="Trazado_3516" data-name="Trazado 3516" d="M4.107,0A7.175,7.175,0,0,0,1.2.8a2.915,2.915,0,0,0-1.07.793c-.16.222-.2.527.049.619a.771.771,0,0,0,.36.012A7.7,7.7,0,0,0,2.007,1.77c.551-.2,1.389-.261,2.034-.437a.418.418,0,0,1-.12-.775.421.421,0,0,1,.522.623c.038-.018.091-.028.125-.047C5.447.636,4.9-.025,4.107,0Z" transform="translate(39.497 26.256)" fill="#0a2446"/>
          <path id="Trazado_3517" data-name="Trazado 3517" d="M3.753.02A7.176,7.176,0,0,0,.972,1.182a2.568,2.568,0,0,0-.91.9c-.111.233-.086.528.191.581a.845.845,0,0,0,.37-.039,7.6,7.6,0,0,0,1.394-.636c.543-.278,1.435-.461,2.058-.739l-.108.038-.213-.013-.1-.045-.147-.161L3.476.962l0-.16L3.533.655,3.649.54,3.8.472,3.925.428,4.139.44l.1.045L4.38.647l.037.106,0,.16-.056.148-.082.082a1.938,1.938,0,0,0,.207-.11C5.267.438,4.558-.114,3.753.02Z" transform="translate(31.126 29.218)" fill="#0a2446"/>
          <path id="Trazado_3518" data-name="Trazado 3518" d="M12.138,5.619q1.491-.8,3.01-1.566a15.618,15.618,0,0,0,2.783-1.462l.1-.127-.045-.109A15.27,15.27,0,0,0,15.766.146l-.218-.1a.592.592,0,0,0-.289.119c-.12.076-.246.142-.37.212a26.413,26.413,0,0,1-2.507,1.162c-.871.378-1.634.845-2.485,1.245l-.18.046-.094-.049-.449-.37L7.864,1.333C7.46,1,6.7,0,6.022,0a1.485,1.485,0,0,0-.573.169C5.074.342,4.677.6,4.4.742A17.44,17.44,0,0,0,1.9,2.251c-.352.257,2.714,2.372,2.586,2.821-.12.415-1.569,1.052-2,1.311Q1.251,7.115,0,7.831A19.489,19.489,0,0,0,2.03,9.787c.191.153.383.3.582.441l1.113-.562c.906-.458,1.816-.922,2.761-1.317.059-.025.107-.041.16-.06a1.525,1.525,0,0,1,.778-.137,2.253,2.253,0,0,1,.835.51L9.967,9.914l.543.4.092.039.14-.051,1.568-.933c-.02.011-.039.023-.06.032a.416.416,0,1,1-.378-.741,8.14,8.14,0,0,0,.744-.413c-.594-.614-1.194-1.223-1.816-1.81a.419.419,0,0,1,.027-.589.426.426,0,0,1,.587.027q1.112,1.048,2.165,2.156a.42.42,0,0,1-.027.588c-.112.082-.23.154-.346.23.576-.3,1.168-.553.9-.972A18.879,18.879,0,0,0,12.138,5.619Zm-6.514-5a.429.429,0,0,1,.588.026l2.63,2.266a.419.419,0,0,1-.026.589.428.428,0,0,1-.588-.027L5.6,1.206A.419.419,0,0,1,5.625.619Zm5.99,4.212,5.114-2.552a.417.417,0,0,1,.379.742L11.992,5.573a.416.416,0,0,1-.377-.742Z" transform="translate(10.506 27.381)" fill="#0a2446"/>
          <path id="Trazado_3519" data-name="Trazado 3519" d="M1.679.136A.424.424,0,0,0,1.4,0a.4.4,0,0,0-.3.109A1.31,1.31,0,0,1,.883.3,1.651,1.651,0,0,1,.588.448a1.548,1.548,0,0,1-.257.06A.424.424,0,0,0,.065.691.429.429,0,0,0,.008,1a.418.418,0,0,0,.183.266A.466.466,0,0,0,.5,1.324a1.927,1.927,0,0,0,.639-.207A1.7,1.7,0,0,0,1.651.724.457.457,0,0,0,1.786.44.425.425,0,0,0,1.679.136Z" transform="translate(60.845 19.329)" fill="#fff3c9"/>
          <path id="Trazado_3520" data-name="Trazado 3520" d="M1.737.64A.421.421,0,0,0,1.795.332.431.431,0,0,0,1.611.066.422.422,0,0,0,1.3.008a.465.465,0,0,0-.267.183L1.031.2A2.009,2.009,0,0,1,.706.489,2.374,2.374,0,0,1,.227.732.415.415,0,0,0,.019.974a.428.428,0,0,0,.025.318.425.425,0,0,0,.236.2l.006,0,.105.02L.6,1.473a2.431,2.431,0,0,0,.657-.363A2.414,2.414,0,0,0,1.737.64Z" transform="translate(53.618 23.354)" fill="#fff3c9"/>
          <path id="Trazado_3521" data-name="Trazado 3521" d="M2.07.225a.423.423,0,0,0-.56-.182A7.212,7.212,0,0,1,.4.544L.332.567A.459.459,0,0,0,.065.749a.426.426,0,0,0-.057.309.418.418,0,0,0,.182.266.583.583,0,0,0,.13.053A.315.315,0,0,0,.5,1.383c.118-.039.231-.087.346-.13A7.561,7.561,0,0,0,1.89.784.424.424,0,0,0,2.07.225Z" transform="translate(54.815 15.894)" fill="#fff3c9"/>
          <path id="Trazado_3522" data-name="Trazado 3522" d="M.045,1.026a.42.42,0,0,0,.242.207A.471.471,0,0,0,.6,1.209Q1.13.995,1.657.783A.424.424,0,0,0,1.864.541.423.423,0,0,0,1.838.223.417.417,0,0,0,1.6.017a.471.471,0,0,0-.318.025L.226.467A.419.419,0,0,0,.019.709.426.426,0,0,0,.045,1.026Z" transform="translate(46.263 19.894)" fill="#fff3c9"/>
          <path id="Trazado_3523" data-name="Trazado 3523" d="M.214.049a.418.418,0,0,0,.12.775A.381.381,0,0,0,.592.79.415.415,0,0,0,.736.672.421.421,0,0,0,.214.049Z" transform="translate(43.203 26.765)" fill="#fff3c9"/>
          <path id="Trazado_3524" data-name="Trazado 3524" d="M.94.484l0-.16L.9.219.759.058.664.012.45,0,.324.044.174.112.058.227,0,.374l0,.16L.037.64.183.8l.1.045L.491.86.6.822.618.815.769.747.8.715.884.633Z" transform="translate(34.601 29.646)" fill="#fff3c9"/>
          <path id="Trazado_3525" data-name="Trazado 3525" d="M2.887,2.286Q1.833,1.18.722.131A.426.426,0,0,0,.135.1.419.419,0,0,0,.108.693C.73,1.28,1.33,1.889,1.924,2.5a7.847,7.847,0,0,1-.744.413.416.416,0,1,0,.378.742c.02-.01.039-.022.06-.032a8.152,8.152,0,0,0,.9-.519c.115-.076.233-.148.346-.229A.421.421,0,0,0,2.887,2.286Z" transform="translate(21.198 33.124)" fill="#fff3c9"/>
          <path id="Trazado_3526" data-name="Trazado 3526" d="M5.715.789A.417.417,0,0,0,5.336.047L.222,2.6A.416.416,0,0,0,.6,3.341Z" transform="translate(21.898 29.613)" fill="#fff3c9"/>
          <path id="Trazado_3527" data-name="Trazado 3527" d="M2.738,2.958a.428.428,0,0,0,.588.027A.419.419,0,0,0,3.352,2.4L.723.131A.428.428,0,0,0,.135.1.418.418,0,0,0,.107.692Z" transform="translate(15.996 27.896)" fill="#fff3c9"/>
        </g>
        <g id="Grupo_1977" data-name="Grupo 1977" transform="translate(65.306 85.664)">
          <path id="Trazado_3640" data-name="Trazado 3640" d="M32.2,24.525a14.85,14.85,0,0,0-1.115-5.575A33.724,33.724,0,0,0,25.431,8.543C23.374,5.958,21.39,3.467,17.808,1.7A11.607,11.607,0,0,0,11.339.037c-5.2.482-8.207,5.454-9.051,6.848A14.851,14.851,0,0,0,.014,15.3,15.724,15.724,0,0,0,2.66,23.014,24.4,24.4,0,0,0,10.229,30.6a25.193,25.193,0,0,0,9.639,4.469,10.015,10.015,0,0,0,3.531.187A9.971,9.971,0,0,0,28.5,32.9,11.633,11.633,0,0,0,32.2,24.525Z" transform="translate(0 0)" fill="#3d2f1a" fill-rule="evenodd"/>
          <path id="Trazado_3641" data-name="Trazado 3641" d="M20.367,9.7A26.887,26.887,0,0,0,17.026,5.63a28.3,28.3,0,0,0-4.328-3.7A13.289,13.289,0,0,0,10.916.907,7.772,7.772,0,0,0,8.525.09,4.394,4.394,0,0,0,6.237.225a3.921,3.921,0,0,0-1.579,1.1c.833.712,1.492,1.353,1.967,1.84C8.351,4.933,8.753,5.8,8.921,6.578A4.473,4.473,0,0,1,9,7.124a6.135,6.135,0,0,1-1.177-.514A8.49,8.49,0,0,1,5.5,4.405C4.956,3.767,4.325,2.994,3.633,2.1A15.605,15.605,0,0,0,1.269,5.4C2,6.224,2.582,6.95,3.024,7.518A13.36,13.36,0,0,1,4.464,9.644,10.631,10.631,0,0,1,4.983,10.8c-.151-.058-.373-.147-.633-.274A8.781,8.781,0,0,1,2.115,8.905,14.151,14.151,0,0,1,.59,7.24,8.571,8.571,0,0,0,.207,8.468a10.314,10.314,0,0,0-.154,3.087,14.5,14.5,0,0,0,2.2,5.6c1.653,2.485,4.737,4.4,10.907,8.226a7.993,7.993,0,0,0,3.781,1.363,6.559,6.559,0,0,0,3.9-.864c2.707-1.738,2.784-5.633,2.811-6.965C23.727,14.866,21.726,11.79,20.367,9.7Z" transform="translate(4.345 4.339)" fill="#a1785d" fill-rule="evenodd"/>
        </g>
        <g id="Grupo_1978" data-name="Grupo 1978" transform="translate(8.308 87.79)">
          <path id="Trazado_3642" data-name="Trazado 3642" d="M27.236,9.584c-6.5,8.836-4.973,12.866-9.7,15.535-1.159.654-.639.067-10.11,2.647C1.52,29.377.166,29.92.014,30.858-.274,32.64,3.9,35.1,7.476,36.25c9.045,2.9,17.876-1.452,22.077-3.523A42.675,42.675,0,0,0,44.09,20.832c2.773-3.56,6.425-8.39,5.311-13.852-.134-.66-.9-4.4-4-6.125-4.339-2.413-9.9.992-10.822,1.558C33.521,3.063,30.9,4.611,27.236,9.584Z" transform="translate(0 0.86)" fill="#a1785d" fill-rule="evenodd"/>
          <path id="Trazado_3643" data-name="Trazado 3643" d="M49.495,4.223A11.4,11.4,0,0,0,44.486.616a12.066,12.066,0,0,0-6.9-.2c-4.14.882-6.783,3.2-8.881,5.047a27.046,27.046,0,0,0-5.936,7.374A25.648,25.648,0,0,0,19.79,24a53.1,53.1,0,0,1,4.1-7.379A55.191,55.191,0,0,1,29.34,9.751c3.806-4.228,5.517-5.128,6.757-5.608a12.449,12.449,0,0,1,3.452-.789Q37.515,8.324,37.873,8.5q.381.19,3.471-5.043a6.259,6.259,0,0,1,3.681,1.183c-.217.452-.5,1.024-.832,1.681a15.683,15.683,0,0,0-1.231,2.669c-.15.494-.507,1.674-.235,1.818.363.192,1.731-1.527,2.6-3.1a13.413,13.413,0,0,0,.889-1.964A4.743,4.743,0,0,1,47,6.93a5.668,5.668,0,0,1,.269,3.564A19.3,19.3,0,0,1,44.7,17c-2.979,4.419-5.363,7.955-10.22,11.826-3.446,2.746-7.618,6.071-14.15,7.553-2.585.587-7.961,1.806-13.723-.293C2.863,34.723.276,32.437.019,32.772c-.243.317,1.844,2.657,4.425,4.359a20.039,20.039,0,0,0,10.609,3.136,31.64,31.64,0,0,0,7.137-1.323A35.1,35.1,0,0,0,30.018,35.3c6.888-4.111,11.1-8.634,14.917-12.8a26.2,26.2,0,0,0,5.525-8.355,10.544,10.544,0,0,0,.887-5.361A9.791,9.791,0,0,0,49.495,4.223Z" transform="translate(0.349 0)" fill="#3d2f1a" fill-rule="evenodd"/>
        </g>
        <g id="Grupo_1979" data-name="Grupo 1979" transform="translate(7.762 0)">
          <path id="Trazado_3452" data-name="Trazado 3452" d="M2.759,12.747c-.592.016-1.184.051-1.775.072.036.06,1.861-.115,1.9-.054,9.2-.729,16.666.666,25.4,3.649a66.445,66.445,0,0,1,18.163,9.927c-.1-4.663-1.035-9.793-4.692-12.684a17.984,17.984,0,0,0-5.245-2.564q-8.691-3.1-17.532-5.754Q11.164,2.995,3.253,1.016C2.489.824,1.333.434,0,0,.3.862.592,1.724.846,2.6A53.383,53.383,0,0,1,2.759,12.747Z" transform="translate(72.614 25.506)" fill="#ffe700"/>
          <path id="Trazado_3489" data-name="Trazado 3489" d="M11.084,47.818q2.361-.646,4.73-1.251,4.006-1.019,8.039-1.915Q34.483,42.29,45.277,40.8A272.536,272.536,0,0,1,73.6,38.322c.592-.021,1.183-.055,1.775-.072A53.642,53.642,0,0,0,73.46,28.1c-.253-.874-.549-1.737-.846-2.6a46.15,46.15,0,0,0-5.2-10.718C62.457,7.364,54.684,1.545,45.849.266,41.789-.319,37.811.181,33.771.612A81.844,81.844,0,0,0,20.311,2.7,27.036,27.036,0,0,0,7.533,9.991,27.649,27.649,0,0,0,1.619,21.307,43.7,43.7,0,0,0,.585,40.221c.356,2.156.79,7.168,2.494,8.712a2,2,0,0,0,.4.231C5.456,50.275,9.194,48.336,11.084,47.818ZM24.169,40.49c-2.023.325-4.047.958-6.062,1.211-.381-1.392.141-3.5.239-4.972l.174-.653.555-.333a43.521,43.521,0,0,1,10.263-2Q34.683,33.2,40.051,33a19.02,19.02,0,0,1,5.7.4,25.852,25.852,0,0,0-.218,4.475c-1.659.062-3.31.271-4.953.477q-5.195.657-10.393,1.308c-1.811.595-4.115.525-6.015.826Z" transform="translate(0)" fill="#ffe700"/>
          <path id="Trazado_3490" data-name="Trazado 3490" d="M2.056,5.371l.16-.227a7.387,7.387,0,0,0,.557-2.521A4.157,4.157,0,0,0,2.075.17L1.878,0l-.37.327C1.1,1.351,0,3.018,0,4.11,0,4.84,1.318,5.79,2.056,5.371Z" transform="translate(56.846 15.501)" fill="#fff3c9"/>
          <path id="Trazado_3491" data-name="Trazado 3491" d="M.949,4.443l.374-.026c.5-.19,1-.384,1.5-.573l.394-.284L3.175,3.1C2.912,2.411,1.563-.282.577.024-.7.418.5,3.488.776,4.194Z" transform="translate(20.912 15.8)" fill="#fff3c9"/>
        </g>
      </g>
      <g id="Capa_21" data-name="Capa 21" transform="translate(16.387 44.748)">
        <g id="Grupo_1981" data-name="Grupo 1981" transform="translate(0 0)">
          <g id="Grupo_1980" data-name="Grupo 1980">
            <path id="Trazado_3479" data-name="Trazado 3479" d="M.755,2.923A11.491,11.491,0,0,0,.326,7.078a15.8,15.8,0,0,1-.219,4.18,2.691,2.691,0,0,0-.059,1.261,16.629,16.629,0,0,0,7.058-5.65,1.206,1.206,0,0,1,.106-.1c.563-1.869.74-4.348-.513-5.733A3.153,3.153,0,0,0,5.459.225,3.2,3.2,0,0,0,3.6.072,3.326,3.326,0,0,0,2.451.628,4.766,4.766,0,0,0,.755,2.923Z" transform="translate(36.788 23.679)" fill="#ec411b"/>
            <path id="Trazado_3480" data-name="Trazado 3480" d="M13.493,6.123a16.322,16.322,0,0,1-11.781.506C.222,6.119-.749,8.377.749,8.891A19.047,19.047,0,0,0,22.5,1.978c.883-1.245-.892-2.67-1.839-1.6a1.3,1.3,0,0,0-.106.1A16.626,16.626,0,0,1,13.493,6.123Z" transform="translate(23.344 30.078)" fill="#3d2f1a"/>
            <path id="Trazado_1134" data-name="Trazado 1134" d="M5.764.027C-1.72-.622-1.747,10.452,4.7,11.069,12.2,11.787,13.2.674,5.764.027Z" transform="translate(46.756 0)" fill="#3d2f1a" fill-rule="evenodd"/>
            <path id="Trazado_1135" data-name="Trazado 1135" d="M4.312,10.972C12.119,12.42,13.431,1.336,6.688.116A5.575,5.575,0,0,0,.1,4.449C.085,4.526.07,4.6.058,4.68A5.638,5.638,0,0,0,4.312,10.972Z" transform="translate(9.57 4.639)" fill="#3d2f1a" fill-rule="evenodd"/>
            <path id="Trazado_1138" data-name="Trazado 1138" d="M.62,5.8c0-.371,3.953-1.952,8.832-3.532S18.287-.292,18.288.078,14.334,2.03,9.456,3.61.62,6.173.62,5.8ZM0,12.019c0-.349,4.2-.534,9.38-.412s9.373.5,9.371.851-4.2.534-9.381.413S0,12.368,0,12.019ZM.51,8.837c0,.359,4.089.137,9.134-.495s9.137-1.434,9.138-1.792-4.088-.137-9.134.494S.511,8.479.51,8.837Z" transform="translate(50.562 15.959)" fill="#3d2f1a" fill-rule="evenodd"/>
            <path id="Trazado_1139" data-name="Trazado 1139" d="M19.092,2.527c-.127-.359-4.5-1.177-9.775-1.829S-.124-.192,0,.167,4.506,1.345,9.777,2,19.219,2.885,19.092,2.527Zm2.751,5.908c-.124-.337-4.254.241-9.226,1.291s-8.9,2.176-8.78,2.512S8.091,12,13.063,10.947,21.966,8.772,21.842,8.435Zm-1.6-2.989c.125.346-3.912.869-9.016,1.167s-9.344.258-9.469-.09,3.912-.869,9.016-1.166,9.342-.257,9.468.09Z" transform="translate(0 24.589)" fill="#3d2f1a" fill-rule="evenodd"/>
            <path id="Trazado_1141" data-name="Trazado 1141" d="M1.223.023a1.479,1.479,0,1,1-1.2,1.713h0A1.478,1.478,0,0,1,1.222.023Z" transform="translate(15.634 7.535)" fill="#fff" fill-rule="evenodd"/>
            <path id="Trazado_1142" data-name="Trazado 1142" d="M1.223.023a1.479,1.479,0,0,1,1.712,1.2h0a1.478,1.478,0,0,1-1.2,1.712h0a1.48,1.48,0,0,1-1.713-1.2h0A1.48,1.48,0,0,1,1.223.023Z" transform="translate(52.328 2.568)" fill="#fff" fill-rule="evenodd"/>
          </g>
          <ellipse id="Elipse_10" data-name="Elipse 10" cx="7.686" cy="4.161" rx="7.686" ry="4.161" transform="matrix(0.984, -0.179, 0.179, 0.984, 24.295, 15.183)" fill="#3d2f1a"/>
        </g>
      </g>
    </g>
  </g>
</svg>
