<svg xmlns="http://www.w3.org/2000/svg" xmlns:xlink="http://www.w3.org/1999/xlink" width="97.786" height="89.637" viewBox="0 0 97.786 89.637">
  <defs>
    <clipPath id="clip-path">
      <path id="Path_250" data-name="Path 250" d="M124-301.851h8.149V-310H124Z" transform="translate(-124 310)" fill="none"/>
    </clipPath>
    <clipPath id="clip-path-2">
      <path id="Path_252" data-name="Path 252" d="M217-301.851h8.149V-310H217Z" transform="translate(-217 310)" fill="none"/>
    </clipPath>
    <clipPath id="clip-path-3">
      <path id="Path_254" data-name="Path 254" d="M93-239.851h8.149V-248H93Z" transform="translate(-93 248)" fill="none"/>
    </clipPath>
    <clipPath id="clip-path-4">
      <path id="Path_256" data-name="Path 256" d="M124-239.851h8.149V-248H124Z" transform="translate(-124 248)" fill="none"/>
    </clipPath>
    <clipPath id="clip-path-5">
      <path id="Path_258" data-name="Path 258" d="M155-239.851h8.149V-248H155Z" transform="translate(-155 248)" fill="none"/>
    </clipPath>
    <clipPath id="clip-path-6">
      <path id="Path_260" data-name="Path 260" d="M186-239.851h8.149V-248H186Z" transform="translate(-186 248)" fill="none"/>
    </clipPath>
    <clipPath id="clip-path-7">
      <path id="Path_262" data-name="Path 262" d="M217-239.851h8.149V-248H217Z" transform="translate(-217 248)" fill="none"/>
    </clipPath>
    <clipPath id="clip-path-8">
      <path id="Path_264" data-name="Path 264" d="M31-45.7h8.149V-62H31Z" transform="translate(-31 62)" fill="none"/>
    </clipPath>
    <clipPath id="clip-path-9">
      <path id="Path_266" data-name="Path 266" d="M310-45.7h8.149V-62H310Z" transform="translate(-310 62)" fill="none"/>
    </clipPath>
    <clipPath id="clip-path-10">
      <path id="Path_268" data-name="Path 268" d="M155-177.851h16.3V-186H155Z" transform="translate(-155 186)" fill="none"/>
    </clipPath>
    <clipPath id="clip-path-11">
      <path id="Path_270" data-name="Path 270" d="M155-146.851h16.3V-155H155Z" transform="translate(-155 155)" fill="none"/>
    </clipPath>
    <clipPath id="clip-path-12">
      <path id="Path_272" data-name="Path 272" d="M248-239.851h8.149V-248H248Z" transform="translate(-248 248)" fill="none"/>
    </clipPath>
    <clipPath id="clip-path-13">
      <path id="Path_274" data-name="Path 274" d="M62-99.553h8.149V-124H62Z" transform="translate(-62 124)" fill="none"/>
    </clipPath>
    <clipPath id="clip-path-14">
      <path id="Path_276" data-name="Path 276" d="M62-200.7h8.149V-217H62Z" transform="translate(-62 217)" fill="none"/>
    </clipPath>
    <clipPath id="clip-path-15">
      <path id="Path_278" data-name="Path 278" d="M124-208.851h8.149V-217H124Z" transform="translate(-124 217)" fill="none"/>
    </clipPath>
    <clipPath id="clip-path-16">
      <path id="Path_280" data-name="Path 280" d="M217-208.851h8.149V-217H217Z" transform="translate(-217 217)" fill="none"/>
    </clipPath>
    <clipPath id="clip-path-17">
      <path id="Path_282" data-name="Path 282" d="M155-208.851h16.3V-217H155Z" transform="translate(-155 217)" fill="none"/>
    </clipPath>
    <clipPath id="clip-path-18">
      <path id="Path_284" data-name="Path 284" d="M124-146.851h8.149V-155H124Z" transform="translate(-124 155)" fill="none"/>
    </clipPath>
    <clipPath id="clip-path-19">
      <path id="Path_286" data-name="Path 286" d="M217-115.851h8.149V-124H217Z" transform="translate(-217 124)" fill="none"/>
    </clipPath>
    <clipPath id="clip-path-20">
      <path id="Path_288" data-name="Path 288" d="M217-84.851h8.149V-93H217Z" transform="translate(-217 93)" fill="none"/>
    </clipPath>
    <clipPath id="clip-path-21">
      <path id="Path_290" data-name="Path 290" d="M124-115.851h8.149V-124H124Z" transform="translate(-124 124)" fill="none"/>
    </clipPath>
    <clipPath id="clip-path-22">
      <path id="Path_292" data-name="Path 292" d="M124-84.851h8.149V-93H124Z" transform="translate(-124 93)" fill="none"/>
    </clipPath>
    <clipPath id="clip-path-23">
      <path id="Path_294" data-name="Path 294" d="M62-146.851H78.3V-155H62Z" transform="translate(-62 155)" fill="none"/>
    </clipPath>
    <clipPath id="clip-path-24">
      <path id="Path_296" data-name="Path 296" d="M217-146.851h8.149V-155H217Z" transform="translate(-217 155)" fill="none"/>
    </clipPath>
    <clipPath id="clip-path-25">
      <path id="Path_298" data-name="Path 298" d="M248-146.851h16.3V-155H248Z" transform="translate(-248 155)" fill="none"/>
    </clipPath>
    <clipPath id="clip-path-26">
      <path id="Path_300" data-name="Path 300" d="M93-332.851h8.149V-341H93Z" transform="translate(-93 341)" fill="none"/>
    </clipPath>
    <clipPath id="clip-path-27">
      <path id="Path_302" data-name="Path 302" d="M31-200.7h8.149V-217H31Z" transform="translate(-31 217)" fill="none"/>
    </clipPath>
    <clipPath id="clip-path-28">
      <path id="Path_304" data-name="Path 304" d="M310-200.7h8.149V-217H310Z" transform="translate(-310 217)" fill="none"/>
    </clipPath>
    <clipPath id="clip-path-29">
      <path id="Path_306" data-name="Path 306" d="M279-200.7h8.149V-217H279Z" transform="translate(-279 217)" fill="none"/>
    </clipPath>
    <clipPath id="clip-path-30">
      <path id="Path_308" data-name="Path 308" d="M0-22.851H8.149V-31H0Z" transform="translate(0 31)" fill="none"/>
    </clipPath>
    <clipPath id="clip-path-31">
      <path id="Path_310" data-name="Path 310" d="M341-22.851h8.149V-31H341Z" transform="translate(-341 31)" fill="none"/>
    </clipPath>
    <clipPath id="clip-path-32">
      <path id="Path_312" data-name="Path 312" d="M248-332.851h8.149V-341H248Z" transform="translate(-248 341)" fill="none"/>
    </clipPath>
    <clipPath id="clip-path-33">
      <path id="Path_314" data-name="Path 314" d="M248-208.851h8.149V-217H248Z" transform="translate(-248 217)" fill="none"/>
    </clipPath>
    <clipPath id="clip-path-34">
      <path id="Path_316" data-name="Path 316" d="M248-177.851h8.149V-186H248Z" transform="translate(-248 186)" fill="none"/>
    </clipPath>
    <clipPath id="clip-path-35">
      <path id="Path_318" data-name="Path 318" d="M279-99.553h8.149V-124H279Z" transform="translate(-279 124)" fill="none"/>
    </clipPath>
    <clipPath id="clip-path-36">
      <path id="Path_320" data-name="Path 320" d="M93-208.851h8.149V-217H93Z" transform="translate(-93 217)" fill="none"/>
    </clipPath>
    <clipPath id="clip-path-37">
      <path id="Path_322" data-name="Path 322" d="M93-177.851h8.149V-186H93Z" transform="translate(-93 186)" fill="none"/>
    </clipPath>
    <clipPath id="clip-path-38">
      <path id="Path_324" data-name="Path 324" d="M124-177.851h8.149V-186H124Z" transform="translate(-124 186)" fill="none"/>
    </clipPath>
    <clipPath id="clip-path-39">
      <path id="Path_326" data-name="Path 326" d="M217-177.851h8.149V-186H217Z" transform="translate(-217 186)" fill="none"/>
    </clipPath>
    <clipPath id="clip-path-40">
      <path id="Path_328" data-name="Path 328" d="M93-270.851h8.149V-279H93Z" transform="translate(-93 279)" fill="none"/>
    </clipPath>
    <clipPath id="clip-path-41">
      <path id="Path_330" data-name="Path 330" d="M62-239.851h8.149V-248H62Z" transform="translate(-62 248)" fill="none"/>
    </clipPath>
    <clipPath id="clip-path-42">
      <path id="Path_332" data-name="Path 332" d="M217-270.851h8.149V-279H217Z" transform="translate(-217 279)" fill="none"/>
    </clipPath>
    <clipPath id="clip-path-43">
      <path id="Path_334" data-name="Path 334" d="M248-270.851h8.149V-279H248Z" transform="translate(-248 279)" fill="none"/>
    </clipPath>
    <clipPath id="clip-path-44">
      <path id="Path_336" data-name="Path 336" d="M279-239.851h8.149V-248H279Z" transform="translate(-279 248)" fill="none"/>
    </clipPath>
    <clipPath id="clip-path-45">
      <path id="Path_338" data-name="Path 338" d="M155-270.851h8.149V-279H155Z" transform="translate(-155 279)" fill="none"/>
    </clipPath>
    <clipPath id="clip-path-46">
      <path id="Path_340" data-name="Path 340" d="M155-301.851h8.149V-310H155Z" transform="translate(-155 310)" fill="none"/>
    </clipPath>
    <clipPath id="clip-path-47">
      <path id="Path_342" data-name="Path 342" d="M186-270.851h8.149V-279H186Z" transform="translate(-186 279)" fill="none"/>
    </clipPath>
    <clipPath id="clip-path-48">
      <path id="Path_344" data-name="Path 344" d="M186-301.851h8.149V-310H186Z" transform="translate(-186 310)" fill="none"/>
    </clipPath>
    <clipPath id="clip-path-49">
      <path id="Path_346" data-name="Path 346" d="M124-270.851h8.149V-279H124Z" transform="translate(-124 279)" fill="none"/>
    </clipPath>
  </defs>
  <g id="Group_1275" data-name="Group 1275" transform="translate(0 341)">
    <g id="Group_1226" data-name="Group 1226" transform="translate(32.595 -332.851)" clip-path="url(#clip-path)">
      <path id="Path_249" data-name="Path 249" d="M119-315h10.777v10.777H119Z" transform="translate(-120.314 313.686)" fill="#7a74cd"/>
    </g>
    <g id="Group_1227" data-name="Group 1227" transform="translate(57.042 -332.851)" clip-path="url(#clip-path-2)">
      <path id="Path_251" data-name="Path 251" d="M212-315h10.777v10.777H212Z" transform="translate(-213.314 313.686)" fill="#7a74cd"/>
    </g>
    <g id="Group_1228" data-name="Group 1228" transform="translate(24.447 -316.553)" clip-path="url(#clip-path-3)">
      <path id="Path_253" data-name="Path 253" d="M88-253H98.778v10.778H88Z" transform="translate(-89.314 251.686)" fill="#4a4494"/>
    </g>
    <g id="Group_1229" data-name="Group 1229" transform="translate(32.595 -316.553)" clip-path="url(#clip-path-4)">
      <path id="Path_255" data-name="Path 255" d="M119-253h10.777v10.778H119Z" transform="translate(-120.314 251.686)" fill="#fff"/>
    </g>
    <g id="Group_1230" data-name="Group 1230" transform="translate(40.744 -316.553)" clip-path="url(#clip-path-5)">
      <path id="Path_257" data-name="Path 257" d="M150-253h10.777v10.778H150Z" transform="translate(-151.314 251.686)" fill="#fff"/>
    </g>
    <g id="Group_1231" data-name="Group 1231" transform="translate(48.893 -316.553)" clip-path="url(#clip-path-6)">
      <path id="Path_259" data-name="Path 259" d="M181-253h10.777v10.778H181Z" transform="translate(-182.314 251.686)" fill="#1d2a5d"/>
    </g>
    <g id="Group_1232" data-name="Group 1232" transform="translate(57.042 -316.553)" clip-path="url(#clip-path-7)">
      <path id="Path_261" data-name="Path 261" d="M212-253h10.777v10.778H212Z" transform="translate(-213.314 251.686)" fill="#fff"/>
    </g>
    <g id="Group_1233" data-name="Group 1233" transform="translate(8.149 -267.66)" clip-path="url(#clip-path-8)">
      <path id="Path_263" data-name="Path 263" d="M26-67H36.778v18.926H26Z" transform="translate(-27.314 65.686)" fill="#7a74cd"/>
    </g>
    <g id="Group_1234" data-name="Group 1234" transform="translate(81.488 -267.66)" clip-path="url(#clip-path-9)">
      <path id="Path_265" data-name="Path 265" d="M305-67h10.777v18.926H305Z" transform="translate(-306.314 65.686)" fill="#7a74cd"/>
    </g>
    <g id="Group_1235" data-name="Group 1235" transform="translate(40.744 -300.256)" clip-path="url(#clip-path-10)">
      <path id="Path_267" data-name="Path 267" d="M150-191h18.926v10.778H150Z" transform="translate(-151.314 189.686)" fill="#d7e3e7"/>
    </g>
    <g id="Group_1236" data-name="Group 1236" transform="translate(40.744 -292.107)" clip-path="url(#clip-path-11)">
      <path id="Path_269" data-name="Path 269" d="M150-160h18.926v10.778H150Z" transform="translate(-151.314 158.686)" fill="#7a74cd"/>
    </g>
    <g id="Group_1237" data-name="Group 1237" transform="translate(65.191 -316.553)" clip-path="url(#clip-path-12)">
      <path id="Path_271" data-name="Path 271" d="M243-253h10.777v10.778H243Z" transform="translate(-244.314 251.686)" fill="#4a4494"/>
    </g>
    <g id="Group_1238" data-name="Group 1238" transform="translate(16.298 -283.958)" clip-path="url(#clip-path-13)">
      <path id="Path_273" data-name="Path 273" d="M57-129H67.778v27.075H57Z" transform="translate(-58.314 127.686)" fill="#7a74cd"/>
    </g>
    <g id="Group_1239" data-name="Group 1239" transform="translate(16.298 -308.405)" clip-path="url(#clip-path-14)">
      <path id="Path_275" data-name="Path 275" d="M57-222H67.778v18.926H57Z" transform="translate(-58.314 220.686)" fill="#4a4494"/>
    </g>
    <g id="Group_1240" data-name="Group 1240" transform="translate(32.595 -308.405)" clip-path="url(#clip-path-15)">
      <path id="Path_277" data-name="Path 277" d="M119-222h10.777v10.778H119Z" transform="translate(-120.314 220.686)" fill="#fff"/>
    </g>
    <g id="Group_1241" data-name="Group 1241" transform="translate(57.042 -308.405)" clip-path="url(#clip-path-16)">
      <path id="Path_279" data-name="Path 279" d="M212-222h10.777v10.778H212Z" transform="translate(-213.314 220.686)" fill="#d7e3e7"/>
    </g>
    <g id="Group_1242" data-name="Group 1242" transform="translate(40.744 -308.405)" clip-path="url(#clip-path-17)">
      <path id="Path_281" data-name="Path 281" d="M150-222h18.926v10.778H150Z" transform="translate(-151.314 220.686)" fill="#1d2a5d"/>
    </g>
    <g id="Group_1243" data-name="Group 1243" transform="translate(32.595 -292.107)" clip-path="url(#clip-path-18)">
      <path id="Path_283" data-name="Path 283" d="M119-160h10.777v10.778H119Z" transform="translate(-120.314 158.686)" fill="#4a4494"/>
    </g>
    <g id="Group_1244" data-name="Group 1244" transform="translate(57.042 -283.958)" clip-path="url(#clip-path-19)">
      <path id="Path_285" data-name="Path 285" d="M212-129h10.777v10.778H212Z" transform="translate(-213.314 127.686)" fill="#7a74cd"/>
    </g>
    <g id="Group_1245" data-name="Group 1245" transform="translate(57.042 -275.809)" clip-path="url(#clip-path-20)">
      <path id="Path_287" data-name="Path 287" d="M212-98h10.777v10.778H212Z" transform="translate(-213.314 96.686)" fill="#7a74cd"/>
    </g>
    <g id="Group_1246" data-name="Group 1246" transform="translate(32.595 -283.958)" clip-path="url(#clip-path-21)">
      <path id="Path_289" data-name="Path 289" d="M119-129h10.777v10.778H119Z" transform="translate(-120.314 127.686)" fill="#7a74cd"/>
    </g>
    <g id="Group_1247" data-name="Group 1247" transform="translate(32.595 -275.809)" clip-path="url(#clip-path-22)">
      <path id="Path_291" data-name="Path 291" d="M119-98h10.777v10.778H119Z" transform="translate(-120.314 96.686)" fill="#7a74cd"/>
    </g>
    <g id="Group_1248" data-name="Group 1248" transform="translate(16.298 -292.107)" clip-path="url(#clip-path-23)">
      <path id="Path_293" data-name="Path 293" d="M57-160H75.926v10.778H57Z" transform="translate(-58.314 158.686)" fill="#7a74cd"/>
    </g>
    <g id="Group_1249" data-name="Group 1249" transform="translate(57.042 -292.107)" clip-path="url(#clip-path-24)">
      <path id="Path_295" data-name="Path 295" d="M212-160h10.777v10.778H212Z" transform="translate(-213.314 158.686)" fill="#4a4494"/>
    </g>
    <g id="Group_1250" data-name="Group 1250" transform="translate(65.191 -292.107)" clip-path="url(#clip-path-25)">
      <path id="Path_297" data-name="Path 297" d="M243-160h18.926v10.778H243Z" transform="translate(-244.314 158.686)" fill="#7a74cd"/>
    </g>
    <g id="Group_1251" data-name="Group 1251" transform="translate(24.447 -341)" clip-path="url(#clip-path-26)">
      <path id="Path_299" data-name="Path 299" d="M88-346H98.778v10.778H88Z" transform="translate(-89.314 344.686)" fill="#7a74cd"/>
    </g>
    <g id="Group_1252" data-name="Group 1252" transform="translate(8.149 -308.405)" clip-path="url(#clip-path-27)">
      <path id="Path_301" data-name="Path 301" d="M26-222H36.778v18.926H26Z" transform="translate(-27.314 220.686)" fill="#7a74cd"/>
    </g>
    <g id="Group_1253" data-name="Group 1253" transform="translate(81.488 -308.405)" clip-path="url(#clip-path-28)">
      <path id="Path_303" data-name="Path 303" d="M305-222h10.777v18.926H305Z" transform="translate(-306.314 220.686)" fill="#7a74cd"/>
    </g>
    <g id="Group_1254" data-name="Group 1254" transform="translate(73.34 -308.405)" clip-path="url(#clip-path-29)">
      <path id="Path_305" data-name="Path 305" d="M274-222h10.778v18.926H274Z" transform="translate(-275.314 220.686)" fill="#4a4494"/>
    </g>
    <g id="Group_1255" data-name="Group 1255" transform="translate(0 -259.512)" clip-path="url(#clip-path-30)">
      <path id="Path_307" data-name="Path 307" d="M-5-36H5.778v10.778H-5Z" transform="translate(3.686 34.686)" fill="#7a74cd"/>
    </g>
    <g id="Group_1256" data-name="Group 1256" transform="translate(89.637 -259.512)" clip-path="url(#clip-path-31)">
      <path id="Path_309" data-name="Path 309" d="M336-36h10.778v10.778H336Z" transform="translate(-337.314 34.686)" fill="#7a74cd"/>
    </g>
    <g id="Group_1257" data-name="Group 1257" transform="translate(65.191 -341)" clip-path="url(#clip-path-32)">
      <path id="Path_311" data-name="Path 311" d="M243-346h10.777v10.778H243Z" transform="translate(-244.314 344.686)" fill="#7a74cd"/>
    </g>
    <g id="Group_1258" data-name="Group 1258" transform="translate(65.191 -308.405)" clip-path="url(#clip-path-33)">
      <path id="Path_313" data-name="Path 313" d="M243-222h10.777v10.778H243Z" transform="translate(-244.314 220.686)" fill="#4a4494"/>
    </g>
    <g id="Group_1259" data-name="Group 1259" transform="translate(65.191 -300.256)" clip-path="url(#clip-path-34)">
      <path id="Path_315" data-name="Path 315" d="M243-191h10.777v10.778H243Z" transform="translate(-244.314 189.686)" fill="#4a4494"/>
    </g>
    <g id="Group_1260" data-name="Group 1260" transform="translate(73.34 -283.958)" clip-path="url(#clip-path-35)">
      <path id="Path_317" data-name="Path 317" d="M274-129h10.778v27.075H274Z" transform="translate(-275.314 127.686)" fill="#7a74cd"/>
    </g>
    <g id="Group_1261" data-name="Group 1261" transform="translate(24.447 -308.405)" clip-path="url(#clip-path-36)">
      <path id="Path_319" data-name="Path 319" d="M88-222H98.778v10.778H88Z" transform="translate(-89.314 220.686)" fill="#4a4494"/>
    </g>
    <g id="Group_1262" data-name="Group 1262" transform="translate(24.447 -300.256)" clip-path="url(#clip-path-37)">
      <path id="Path_321" data-name="Path 321" d="M88-191H98.778v10.778H88Z" transform="translate(-89.314 189.686)" fill="#4a4494"/>
    </g>
    <g id="Group_1263" data-name="Group 1263" transform="translate(32.595 -300.256)" clip-path="url(#clip-path-38)">
      <path id="Path_323" data-name="Path 323" d="M119-191h10.777v10.778H119Z" transform="translate(-120.314 189.686)" fill="#fff"/>
    </g>
    <g id="Group_1264" data-name="Group 1264" transform="translate(57.042 -300.256)" clip-path="url(#clip-path-39)">
      <path id="Path_325" data-name="Path 325" d="M212-191h10.777v10.778H212Z" transform="translate(-213.314 189.686)" fill="#d7e3e7"/>
    </g>
    <g id="Group_1265" data-name="Group 1265" transform="translate(24.447 -324.702)" clip-path="url(#clip-path-40)">
      <path id="Path_327" data-name="Path 327" d="M88-284H98.778v10.778H88Z" transform="translate(-89.314 282.686)" fill="#7a74cd"/>
    </g>
    <g id="Group_1266" data-name="Group 1266" transform="translate(16.298 -316.553)" clip-path="url(#clip-path-41)">
      <path id="Path_329" data-name="Path 329" d="M57-253H67.778v10.778H57Z" transform="translate(-58.314 251.686)" fill="#7a74cd"/>
    </g>
    <g id="Group_1267" data-name="Group 1267" transform="translate(57.042 -324.702)" clip-path="url(#clip-path-42)">
      <path id="Path_331" data-name="Path 331" d="M212-284h10.777v10.778H212Z" transform="translate(-213.314 282.686)" fill="#4a4494"/>
    </g>
    <g id="Group_1268" data-name="Group 1268" transform="translate(65.191 -324.702)" clip-path="url(#clip-path-43)">
      <path id="Path_333" data-name="Path 333" d="M243-284h10.777v10.778H243Z" transform="translate(-244.314 282.686)" fill="#7a74cd"/>
    </g>
    <g id="Group_1269" data-name="Group 1269" transform="translate(73.34 -316.553)" clip-path="url(#clip-path-44)">
      <path id="Path_335" data-name="Path 335" d="M274-253h10.778v10.778H274Z" transform="translate(-275.314 251.686)" fill="#7a74cd"/>
    </g>
    <g id="Group_1270" data-name="Group 1270" transform="translate(40.744 -324.702)" clip-path="url(#clip-path-45)">
      <path id="Path_337" data-name="Path 337" d="M150-284h10.777v10.778H150Z" transform="translate(-151.314 282.686)" fill="#4a4494"/>
    </g>
    <g id="Group_1271" data-name="Group 1271" transform="translate(40.744 -332.851)" clip-path="url(#clip-path-46)">
      <path id="Path_339" data-name="Path 339" d="M150-315h10.777v10.777H150Z" transform="translate(-151.314 313.686)" fill="#7a74cd"/>
    </g>
    <g id="Group_1272" data-name="Group 1272" transform="translate(48.893 -324.702)" clip-path="url(#clip-path-47)">
      <path id="Path_341" data-name="Path 341" d="M181-284h10.777v10.778H181Z" transform="translate(-182.314 282.686)" fill="#4a4494"/>
    </g>
    <g id="Group_1273" data-name="Group 1273" transform="translate(48.893 -332.851)" clip-path="url(#clip-path-48)">
      <path id="Path_343" data-name="Path 343" d="M181-315h10.777v10.777H181Z" transform="translate(-182.314 313.686)" fill="#7a74cd"/>
    </g>
    <g id="Group_1274" data-name="Group 1274" transform="translate(32.595 -324.702)" clip-path="url(#clip-path-49)">
      <path id="Path_345" data-name="Path 345" d="M119-284h10.777v10.778H119Z" transform="translate(-120.314 282.686)" fill="#4a4494"/>
    </g>
  </g>
</svg>
