<svg xmlns="http://www.w3.org/2000/svg" width="134.771" height="12.414" viewBox="0 0 134.771 12.414"><path d="M5.231,6.214C3.853,5.434,2.47,4.658,1.1,3.869A2.026,2.026,0,0,1,.727.514a2.105,2.105,0,0,1,2.4-.252q3.725,2.088,7.433,4.2a1.907,1.907,0,0,1,.989,2.066,1.975,1.975,0,0,1-1.482,1.661.037.037,0,0,0-.016.041V8.224a2.76,2.76,0,0,1-2.063-.458C7.082,7.225,6.152,6.73,5.231,6.214Z" transform="translate(14.056)" fill="#109d58"/><path d="M6.347,2.053l2.79,1.6c.48.273.968.531,1.439.818a2.033,2.033,0,0,1,.9,2.363A2.1,2.1,0,0,1,9.357,8.273a2.135,2.135,0,0,1-.974-.293L1.073,3.848A1.953,1.953,0,0,1,0,1.987,1.993,1.993,0,0,1,1.2.2L1.414.094c.044,0,.1.02.112-.054h0C1.734.026,1.944,0,2.153,0A2.417,2.417,0,0,1,3.316.358C4.321.933,5.336,1.49,6.347,2.053Z" transform="translate(0 4.138)" fill="#4385f3"/><path d="M4.762,5.793c-1-.531-2-1.046-3-1.58A2.482,2.482,0,0,0,.619,3.879c-.207,0-.413.024-.619.037a8.1,8.1,0,0,1,1.017-.568Q3.912,1.795,6.812.255A2.2,2.2,0,0,1,9.426.675,1.812,1.812,0,0,1,9.46,3.129a2.353,2.353,0,0,1-.693.516Z" transform="translate(1.654)" fill="#e94436"/><path d="M5.166,0c.907.48,1.826.94,2.717,1.444a2.867,2.867,0,0,0,2.038.426c-.007.069-.075.082-.122.107Q6.468,3.754,3.127,5.523A2.168,2.168,0,0,1,.5,5.113,1.792,1.792,0,0,1,.4,2.744a2.242,2.242,0,0,1,.746-.586Q3.089,1.129,5.023.1A1.394,1.394,0,0,0,5.166,0Z" transform="translate(14.056 6.621)" fill="#fabc05"/><path d="M.125.044C.115.118.058.092.016.1A.1.1,0,0,1,.125.044Z" transform="translate(1.583 4.067)" fill="#e94436"/><path d="M.062.091A.037.037,0,0,1,.077.05.03.03,0,0,1,.062.091Z" transform="translate(23.907 8.205)" fill="#fabc05"/><path d="M2.332,8.509A4.513,4.513,0,0,1,.63,6.865,4.4,4.4,0,0,1,0,4.552,4.4,4.4,0,0,1,.63,2.239,4.661,4.661,0,0,1,4.676,0,5.121,5.121,0,0,1,6.548.341,3.76,3.76,0,0,1,7.99,1.3l-.768.742a2.773,2.773,0,0,0-1.1-.785A3.75,3.75,0,0,0,4.689.986a3.7,3.7,0,0,0-1.783.444A3.45,3.45,0,0,0,1.584,2.684a3.5,3.5,0,0,0-.5,1.869,3.491,3.491,0,0,0,.5,1.867A3.429,3.429,0,0,0,2.912,7.674a4.015,4.015,0,0,0,3.3.17A3.412,3.412,0,0,0,7.26,7.119,2.675,2.675,0,0,0,7.789,6.3a3.55,3.55,0,0,0,.253-1.064H4.7V4.273H9.032a3.446,3.446,0,0,1,.063.633,4.724,4.724,0,0,1-.264,1.561A3.437,3.437,0,0,1,7.986,7.8,4.375,4.375,0,0,1,4.672,9.1a4.727,4.727,0,0,1-2.34-.595Z" transform="translate(31.419 1.655)" fill="#ececec"/><path d="M2.471,8.275H0V0H2.471a4.415,4.415,0,0,1,2.2.52A3.6,3.6,0,0,1,6.109,1.984a4.438,4.438,0,0,1,.5,2.153,4.443,4.443,0,0,1-.5,2.153,3.6,3.6,0,0,1-1.442,1.46,4.429,4.429,0,0,1-2.092.527Z" transform="translate(42.168 1.655)" fill="#ececec"/><path d="M2.33,8.509A4.512,4.512,0,0,1,.63,6.865,4.4,4.4,0,0,1,0,4.552,4.4,4.4,0,0,1,.63,2.239,4.658,4.658,0,0,1,4.674,0,5.121,5.121,0,0,1,6.545.341,3.771,3.771,0,0,1,7.991,1.3l-.768.742a2.785,2.785,0,0,0-1.1-.785,3.842,3.842,0,0,0-3.219.17A3.459,3.459,0,0,0,1.586,2.684a3.5,3.5,0,0,0-.5,1.869A3.492,3.492,0,0,0,1.58,6.42,3.432,3.432,0,0,0,2.91,7.674a4.011,4.011,0,0,0,3.293.17,3.4,3.4,0,0,0,1.053-.724,2.652,2.652,0,0,0,.53-.822,3.551,3.551,0,0,0,.251-1.064H4.7V4.273H9.032a3.581,3.581,0,0,1,.063.633,4.726,4.726,0,0,1-.264,1.561A3.438,3.438,0,0,1,7.986,7.8,4.372,4.372,0,0,1,4.674,9.1,4.723,4.723,0,0,1,2.33,8.509Z" transform="translate(49.609 1.655)" fill="#ececec"/><path d="M2.3,8.5A4.393,4.393,0,0,1,.613,6.866,4.489,4.489,0,0,1,0,4.546,4.488,4.488,0,0,1,.613,2.228,4.4,4.4,0,0,1,2.3.6,4.84,4.84,0,0,1,4.691,0a4.547,4.547,0,0,1,1.852.37A4.33,4.33,0,0,1,8,1.423l-.772.719A3.345,3.345,0,0,0,6.1,1.266,3.358,3.358,0,0,0,4.691.982a3.738,3.738,0,0,0-1.808.444A3.375,3.375,0,0,0,1.574,2.679a3.562,3.562,0,0,0-.486,1.869,3.555,3.555,0,0,0,.486,1.866A3.369,3.369,0,0,0,2.883,7.668a3.738,3.738,0,0,0,1.808.448,3.612,3.612,0,0,0,2.8-1.3l.778.735A4.555,4.555,0,0,1,6.714,8.684,5.078,5.078,0,0,1,2.3,8.506Z" transform="translate(62.011 1.655)" fill="#ececec"/><path d="M1.6,6.18a3.116,3.116,0,0,1-1.178-1.2A3.37,3.37,0,0,1,0,3.31,3.372,3.372,0,0,1,.424,1.637,3.116,3.116,0,0,1,1.6.44a3.523,3.523,0,0,1,3.41,0,3.109,3.109,0,0,1,1.178,1.2A3.362,3.362,0,0,1,6.614,3.31,3.36,3.36,0,0,1,6.19,4.983a3.109,3.109,0,0,1-1.178,1.2,3.523,3.523,0,0,1-3.41,0Z" transform="translate(71.106 4.138)" fill="#ececec"/><path d="M1.5,6.185A2.989,2.989,0,0,1,.4,5,3.559,3.559,0,0,1,0,3.311a3.6,3.6,0,0,1,.4-1.7A2.952,2.952,0,0,1,1.5.429,3.042,3.042,0,0,1,3.1,0a2.884,2.884,0,0,1,1.683.47,2.573,2.573,0,0,1,.968,1.252l-.926.39a1.822,1.822,0,0,0-.68-.872A1.923,1.923,0,0,0,3.06.943a1.847,1.847,0,0,0-1.011.3,2.158,2.158,0,0,0-.749.834,2.6,2.6,0,0,0-.28,1.234A2.593,2.593,0,0,0,1.3,4.542a2.152,2.152,0,0,0,.752.837,1.847,1.847,0,0,0,1.011.3,2,2,0,0,0,1.122-.3,1.817,1.817,0,0,0,.7-.867l.9.391a2.734,2.734,0,0,1-1,1.245A2.889,2.889,0,0,1,3.1,6.619,3.009,3.009,0,0,1,1.5,6.185Z" transform="translate(77.721 4.138)" fill="#ececec"/><path d="M0,0H.954V2.438l-.044.808H.954A1.912,1.912,0,0,1,1.7,2.5a2.159,2.159,0,0,1,1.117-.3,2,2,0,0,1,1.593.63,2.448,2.448,0,0,1,.549,1.669V8.276H4.007V4.646a1.578,1.578,0,0,0-.392-1.179,1.406,1.406,0,0,0-1.022-.387,1.363,1.363,0,0,0-.826.276,2.069,2.069,0,0,0-.814,1.63V8.276H0Z" transform="translate(85.162 1.655)" fill="#ececec"/><path d="M1.034,6.345a1.917,1.917,0,0,1-.763-.739A2.107,2.107,0,0,1,0,4.536,1.88,1.88,0,0,1,.688,2.99a2.649,2.649,0,0,1,1.729-.556,3.571,3.571,0,0,1,.959.123,2.364,2.364,0,0,1,.679.284V2.464a1.462,1.462,0,0,0-.449-1.119A1.6,1.6,0,0,0,2.472.918a1.78,1.78,0,0,0-.887.227,1.677,1.677,0,0,0-.64.641L.227,1.2A2.368,2.368,0,0,1,1.152.318,2.72,2.72,0,0,1,2.461,0,2.468,2.468,0,0,1,4.293.667a2.472,2.472,0,0,1,.668,1.815V6.425h-.91V5.531H4.013a2.139,2.139,0,0,1-.741.771A2.026,2.026,0,0,1,2.16,6.62H2.123A2.308,2.308,0,0,1,1.034,6.345Z" transform="translate(91.777 4.138)" fill="#ececec"/><path d="M2.984,9.1a2.241,2.241,0,0,1-1.2-.335,2.2,2.2,0,0,1-.8-.8H.937V8.9H0V0H.977V2.623L.931,3.5H.977a2.177,2.177,0,0,1,.8-.814,2.241,2.241,0,0,1,1.2-.329A2.486,2.486,0,0,1,4.408,2.8,2.973,2.973,0,0,1,5.419,4,3.966,3.966,0,0,1,5.787,5.73a3.956,3.956,0,0,1-.368,1.739,2.977,2.977,0,0,1-1.011,1.2,2.488,2.488,0,0,1-1.4.435Z" transform="translate(98.391 1.655)" fill="#ececec"/><path d="M1.034,6.346a1.913,1.913,0,0,1-.763-.74A2.116,2.116,0,0,1,0,4.536,1.88,1.88,0,0,1,.686,2.99a2.655,2.655,0,0,1,1.729-.555,3.541,3.541,0,0,1,.96.122,2.364,2.364,0,0,1,.68.284V2.464a1.463,1.463,0,0,0-.449-1.119A1.6,1.6,0,0,0,2.47.918a1.771,1.771,0,0,0-.886.227,1.677,1.677,0,0,0-.64.641L.227,1.2A2.368,2.368,0,0,1,1.152.318,2.715,2.715,0,0,1,2.461,0,2.47,2.47,0,0,1,4.292.667a2.469,2.469,0,0,1,.669,1.815V6.425H4.045V5.531H4a2.141,2.141,0,0,1-.742.771,2.019,2.019,0,0,1-1.105.318H2.122A2.313,2.313,0,0,1,1.034,6.346Z" transform="translate(105.006 4.138)" fill="#ececec"/><path d="M0,.2H.979v.945h.048a2.184,2.184,0,0,1,.8-.819A2.1,2.1,0,0,1,2.951,0,2.049,2.049,0,0,1,4.13.341a1.891,1.891,0,0,1,.718.905A2.571,2.571,0,0,1,5.713.341,2.279,2.279,0,0,1,6.957,0a1.925,1.925,0,0,1,1.6.673A2.854,2.854,0,0,1,9.095,2.5V6.621H8.084V2.669a1.958,1.958,0,0,0-.349-1.3A1.308,1.308,0,0,0,6.693.964a1.37,1.37,0,0,0-.834.276,1.865,1.865,0,0,0-.591.751A2.415,2.415,0,0,0,5.057,3V6.621H4.03V2.681a1.978,1.978,0,0,0-.351-1.308A1.279,1.279,0,0,0,2.657.964a1.343,1.343,0,0,0-.832.293,1.885,1.885,0,0,0-.587.754,2.456,2.456,0,0,0-.211,1.014v3.6H0Z" transform="translate(111.62 4.138)" fill="#ececec"/><path d="M1.78,8.769a2.191,2.191,0,0,1-.8-.8H.934V8.9H0V0H.992V2.623L.946,3.5H.992a2.175,2.175,0,0,1,.8-.815,2.238,2.238,0,0,1,1.2-.328,2.477,2.477,0,0,1,1.42.435A2.962,2.962,0,0,1,5.42,4,3.975,3.975,0,0,1,5.787,5.73,3.97,3.97,0,0,1,5.42,7.469a2.966,2.966,0,0,1-1.006,1.2,2.476,2.476,0,0,1-1.42.434H2.947A2.23,2.23,0,0,1,1.78,8.769Z" transform="translate(122.369 1.655)" fill="#ececec"/><path d="M2.147,6.62a2.31,2.31,0,0,1-1.112-.274,1.929,1.929,0,0,1-.765-.74A2.107,2.107,0,0,1,0,4.536,1.881,1.881,0,0,1,.688,2.99a2.657,2.657,0,0,1,1.73-.555,3.535,3.535,0,0,1,.959.122,2.364,2.364,0,0,1,.68.284V2.464a1.46,1.46,0,0,0-.449-1.119A1.6,1.6,0,0,0,2.473.918a1.778,1.778,0,0,0-.887.227,1.671,1.671,0,0,0-.643.641L.224,1.2A2.385,2.385,0,0,1,1.151.318,2.721,2.721,0,0,1,2.461,0,2.471,2.471,0,0,1,4.293.667a2.465,2.465,0,0,1,.668,1.815V6.425H4.045V5.532H4a2.136,2.136,0,0,1-.741.77,2.027,2.027,0,0,1-1.084.318Z" transform="translate(129.81 4.138)" fill="#ececec"/></svg>