<svg xmlns="http://www.w3.org/2000/svg" width="100" height="89" viewBox="0 0 100 89"><path d="M96.154,23.217V15.478H92.308v-3.87H88.462V7.739H84.615V3.87H80.769V0H65.385V3.87H61.538v3.87H57.692v3.87H53.846v3.87H46.154v-3.87H42.308V7.739H38.462V3.87H34.615V0H19.231V3.87H15.385v3.87H11.538v3.87H7.692v3.87H3.846v7.739H0V38.7H3.846v7.739H7.692V50.3h3.846v3.87h3.846v3.87h3.846v3.87h3.846v3.87h3.846v3.87h3.846v3.87h3.846v3.87h3.846v3.87h3.846v3.87h3.846V89h7.692V85.13h3.846v-3.87h3.846v-3.87h3.846v-3.87h3.846v-3.87h3.846v-3.87h3.846v-3.87h3.846v-3.87h3.846v-3.87h3.846V50.3h3.846v-3.87h3.846V38.7H100V23.217H96.154" fill="#b61862"/><path d="M15,23H11.25V19.166H15V23Zm-3.75-7.667H3.75V11.5H0V7.667H3.75V3.833H7.5V0h3.75V3.833H15V11.5H11.25v3.832Z" transform="translate(16 16)" fill="#fff"/><path d="M23,27H19.166V23.143H23V27ZM11.5,23.143H3.833V19.286H0V7.714H3.833V3.857H7.667V0h11.5V3.857H23v7.714H19.166V7.714H15.333V3.857H11.5V7.714H7.667v3.857H3.833v3.857H7.667v3.857H11.5v3.855Z" transform="translate(12 12)" fill="#e54991"/><path d="M42.087,70H34.435V66.111H30.609V62.222H22.956V58.334H19.13V54.445H15.3V50.557H11.479V46.667H7.652V42.779H3.826V35H0V19.444H3.826V35H7.652v7.778h3.827v3.888H15.3v3.889H19.13v3.888h3.826v3.889h15.3V54.445h7.652V50.556h7.653V46.667h7.652V42.778h3.827V38.889H68.87V35H72.7V31.111h3.826V27.222h3.826V23.333h3.827V15.557H80.348V11.667H76.522V7.779H72.7V0h3.826V7.778h3.826v3.888h3.827v3.889H88V27.222H84.174v3.889H80.348V35H76.522v3.889H72.7v3.889H68.87v3.889H65.044v3.889H61.217v3.889H57.391v3.889H53.565v3.889H49.739v3.889H42.087V70Zm7.653-50.556H42.087V15.557H34.435V11.667H30.609V7.779H26.782V3.889H15.3V0H26.782V3.888h3.827V7.778h3.826v3.888h7.652v3.889h7.653v3.888Zm-42.088,0H3.826V11.667H7.652v7.777Zm45.914-3.889H49.739V11.667h3.826v3.888Zm3.826-3.889H53.565V7.778h3.826v3.888Zm-45.913,0H7.652V7.778h3.827v3.888ZM61.217,7.778H57.391V3.889h3.826V7.777Zm-45.913,0H11.479V3.889H15.3V7.777ZM65.044,3.889H61.217V0h3.827V3.888Z" transform="translate(4 4)" fill="#d34185"/><path d="M46.286,74H38.571V70.106H34.714v-3.9h3.857v3.9h7.715V74ZM54,66.21H50.143V62.316H46.286v-3.9h3.857v3.894H54v3.893Zm-7.714,0H42.429V62.316h3.857v3.893Zm11.571-3.894H54V58.422H50.143V54.527H54v3.894h3.857v3.894Zm-27-3.9H15.429V54.527H11.571v-3.9H7.714V46.737H3.857v-3.9H0V38.948H3.857v3.893h7.714v3.9h3.857v3.894h7.714v3.9H27v-3.9H23.143V46.738H15.429v-3.9h7.714v3.9H34.714v3.894h3.857v3.9H30.857V58.42Zm34.714-3.894H61.714V50.632H57.857V46.737h3.857v3.894h3.857v3.894Zm-7.714,0H54v-3.9h3.857v3.894Zm11.571-3.9H65.571V46.737H61.714v-3.9h3.857v3.894h3.857V50.63Zm-23.143,0H38.571V46.737H34.714V42.843H30.857V38.948h3.857v3.894h7.715v3.9h3.857V50.63ZM54,46.737H46.286v-3.9H42.429V38.948h3.857V35.053H42.429V31.158h3.857v3.894H54V31.159H46.286v-3.9H54v3.9h3.857v-3.9h3.857V23.37H57.857v-3.9h3.857v3.9h3.857v-3.9H61.714V15.579h3.857v3.893h3.857V15.579H65.571V7.79H61.714V0h3.857V7.789h3.857v3.894h3.857v3.9h3.856v7.79H73.286v3.894H69.429v3.9H65.571v3.894H61.714v3.9H57.857v3.894H54V38.948H50.143v3.894H54v3.894Zm23.143-3.9H73.286V38.948H69.429v3.893H65.571V38.948h3.857v-3.9h3.857v3.894h3.856v3.893ZM81,38.948H77.143V35.053H73.286V31.158h3.856v3.894H81v3.894Zm-42.429,0H34.714v-3.9h3.857v3.894ZM81,31.158H77.143v-3.9H81v3.894ZM42.429,23.369H34.714v-3.9H30.857V15.579h3.857v3.893h7.715v3.894Zm3.857-3.9H42.429V15.579h3.857v3.893Zm30.857-7.79H73.286V7.79H69.429v-3.9h3.857V7.789h3.856v3.893Zm-54-7.789H19.286V0h3.856V3.893Z" transform="translate(11 4)" fill="#ea589c"/><path d="M45.913,81H38.261V77.143H34.435V73.286H30.609V69.43H26.782V65.572H22.956V61.714h3.826v3.857h3.827v3.857H42.087v3.857h7.653v3.856H45.913V81Zm7.653-7.714H49.739V69.429H42.087V65.571h7.653V61.714h3.826v3.857h3.826v3.857H53.565v3.856Zm7.652-7.715H57.391V61.715H53.565V57.857h3.826v3.857h3.826V65.57Zm3.827-3.857H61.217V57.857H57.391V54h3.826V50.143h3.827V54H68.87v3.857H65.044v3.856ZM72.7,54H68.87V50.143H65.044V46.286H68.87v3.856H72.7V54ZM30.609,54H26.782V50.143H19.13V46.286H15.3V42.429H7.652V38.571H3.826V34.714H0V19.286H3.826V27H7.652v3.857H15.3V27H19.13V23.143h3.826V19.286h3.826V11.572H22.956V7.714H11.479V3.857H22.956V7.713h3.826v3.857h3.827v3.857h3.826v3.857h3.826v3.857h7.652V19.286h3.827V11.571h3.826V7.714h3.826V3.857h3.826V0h3.827V7.714H68.87v7.715H65.044v3.857H61.217v3.857h3.827V27H61.217v3.857H57.391V27H49.739v3.857H45.913v3.857h3.827v3.857H45.913v3.857H38.261V38.571H34.435v3.857h3.826v3.857h3.826v3.856H38.261V46.287H26.782V42.429H19.13v3.857h7.652v3.856h3.827V54Zm7.652-15.429h3.826V34.714H38.261ZM19.13,30.857v3.857h7.652V30.857ZM76.522,50.143H72.7V46.286H68.87V42.429H72.7V38.571h3.826v3.857h3.826v3.857H76.522v3.856ZM49.739,46.286H45.913V42.429h3.827v3.856Zm34.435-3.857H80.348V38.572H76.522V34.714h3.826v3.857h3.827v3.856Zm-26.783,0H53.565V38.571h3.826v3.856Zm0-7.714H49.739V30.857h7.652v3.857Zm30.609,0H80.348V30.857h3.827V19.286H88V34.713ZM68.87,23.143H65.044V19.286H68.87v3.855ZM72.7,19.286H68.87V15.429H72.7v3.856Zm11.479-3.857H80.348V11.571h3.827v3.856Zm-76.523,0H3.826V11.571H7.652v3.856Zm26.783-3.857H30.609V7.714H26.782V3.857h3.827V7.713h3.826V11.57Zm-22.956,0H7.652V7.714h3.827V11.57Z" transform="translate(8 4)" fill="#ef76ae"/></svg>