<svg xmlns="http://www.w3.org/2000/svg" width="75" height="70" viewBox="0 0 75 70"><rect width="67" height="70" transform="translate(4)" fill="#335f9d"/><rect width="75" height="62" transform="translate(0 4)" fill="#335f9d"/><rect width="67" height="61" transform="translate(4 5)" fill="#fff"/><path d="M3.031,6.067c-.819-.012-1.639-.022-2.459-.037-.492-.008-.5-.012-.5-.5,0-1.57,0-3.142,0-4.712C.062.631.033.445.017.259A.091.091,0,0,1,.056.122l-.01.01A7.649,7.649,0,0,1,2.826.14.446.446,0,0,1,3.2.606a33.392,33.392,0,0,1-.073,5.357c-.03.035-.062.069-.092.1" transform="translate(16.881 36.095)" fill="#000105"/><path d="M2.931.163C2.918.21,2.906.255,2.892.3,2.063.306,1.234.314.4.315.252.315.071.358,0,.149A16.613,16.613,0,0,0,2.931.163" transform="translate(14.005 36.054)" fill="#335f9d"/><path d="M22.758,14.656a18.353,18.353,0,0,1,.057,2.325c.02.493.016.5.514.5s.99,0,1.485,0c.946,0,.946,0,.946.911q0,3.892,0,7.782,0,5.449,0,10.9c0,.165-.01.331,0,.5.017.252-.113.323-.342.321q-.99-.009-1.98,0c-.614,0-.618.007-.622.625s-.012,1.226,0,1.839c.007.3-.106.435-.411.407-.117-.009-.235,0-.354,0q-10.646,0-21.294,0c-.21,0-.421-.027-.632-.04-.037-.059-.1-.117-.1-.184a46.791,46.791,0,0,1,.1-5.313.458.458,0,0,1,.136-.242,3.736,3.736,0,0,1,1.807-.105c.374.024.488.323.522.651a11.65,11.65,0,0,1,.026,1.412c-.009.515.226.735.728.7.118-.007.237,0,.354,0q7.454,0,14.907,0c1.088,0,1.111-.028,1.116-1.1.009-1.7.009-1.7,1.717-1.712.34,0,.717.115,1-.2a4.959,4.959,0,0,0,.09-1.891c-.009-.326-.249-.424-.535-.443-.471-.031-.943-.008-1.414-.023a.755.755,0,0,1-.841-.824c-.014-.589-.011-1.178,0-1.768.01-.561.307-.8.849-.8.4,0,.8,0,1.2-.008.166,0,.371.039.483-.066.554-.517.213-1.187.262-1.79.03-.392-.254-.513-.6-.525-.448-.015-.895,0-1.344-.016a.752.752,0,0,1-.845-.818c-.015-.59-.015-1.179,0-1.768a.745.745,0,0,1,.848-.812c.448-.007.9-.007,1.344-.009.4,0,.622-.171.618-.589,0-.046.005-.094.006-.142.019-1.921.045-1.633-1.549-1.657-1.138-.016-1.262-.134-1.278-1.252,0-.1,0,.023,0-.071-.012-1.8.147-1.645-1.633-1.648-2.9-.005-5.8,0-8.7-.005A1.709,1.709,0,0,1,8.3,17.512a5.837,5.837,0,0,1-.016-2.862c.59-.358,1.241-.16,1.865-.184.93-.037.964-.042.965-.953q0-6.12,0-12.239c0-.259,0-.519.017-.778A.465.465,0,0,1,11.675,0c.5.018.991.024,1.485,0a.5.5,0,0,1,.605.515,4,4,0,0,1,.019.565c-.094,2.564-.017,5.129-.053,7.694-.026,1.833.022,3.669.011,5.505,0,.416.22.425.554.4,2.82-.176,5.641-.127,8.461-.029" transform="translate(34.921 15.906)" fill="#000105"/><path d="M43.68,17.562q-3.782,0-7.563,0a1.208,1.208,0,0,0-.865.2.612.612,0,0,1-.731-.013c-.235-.166-.13-.406-.091-.643a5.932,5.932,0,0,0-.013-2.1,1.293,1.293,0,0,1-.035-.557,5.609,5.609,0,0,0,0-2.442,1.343,1.343,0,0,1,.011-.559A4.909,4.909,0,0,0,34.4,9.285a1.109,1.109,0,0,1-.019-.489,5.491,5.491,0,0,0,0-2.44.745.745,0,0,1,0-.35A11.908,11.908,0,0,0,34.5,3.477c.023-.363-.124-.514-.492-.5-.447.019-.9.011-1.342,0-.29-.006-.444.1-.432.412.007.188,0,.376,0,.565V16.612c0,.164-.009.33,0,.495.021.333-.132.462-.461.457-.825-.01-1.649,0-2.473,0-.01-.367.292-.3.5-.338a5.55,5.55,0,0,1,.917-.026c1.154,0,1.155,0,1.157-1.19q0-.883,0-1.766,0-4.693,0-9.388c0-1.857.153-1.631-1.684-1.65-.352,0-.705.011-1.058-.014-.589.031-1.179,0-1.767.015-.766.016-.841.079-.844.865-.01,2.711,0,5.421,0,8.131,0,.565.018,1.132-.01,1.7-.037.7-.2.858-.9.9-.47.029-.942.012-1.414.015-.438,0-.647.192-.644.639,0,.424.012.85-.01,1.272-.038.712-.188.864-.892.906-.4.023-.8,0-1.2.014a.959.959,0,0,0-.729.191,1.34,1.34,0,0,0-.163.953q-.006,9-.007,18c0,.367.1.76-.191,1.081l-10.571,0c-.165,0-.329,0-.494,0-.506-.015-.513-.016-.521-.506-.012-.8-.014-1.6-.019-2.4l.1-.09a2.27,2.27,0,0,1,1.042-.125c2.146-.005,4.291,0,6.436-.005.908,0,.962-.056.963-.962q.006-7.566,0-15.134c0-.957-.047-1-.994-1q-6.047-.006-12.094,0c-.975,0-1.017.067-1.044,1.049a41.621,41.621,0,0,1-.085,4.377.432.432,0,0,1-.172.2A16.123,16.123,0,0,1,.005,23.2q0-4-.005-7.989c0-.682-.026-.635.671-.635q9.439,0,18.878,0c.9,0,.83.141.834-.822,0-.566.018-1.132-.006-1.7-.014-.352.128-.447.456-.437.659.018,1.32.009,1.98,0,.5,0,.509-.011.513-.5.006-1.013,0-2.027,0-3.041,0-1.533,0-3.063,0-4.6,0-.6.007-.607.629-.61s1.272-.011,1.91,0c.3.007.419-.1.411-.406-.017-.635-.008-1.272,0-1.909,0-.543.006-.543.578-.538.358.514.172,1.1.193,1.647.036.926.094,1,1.028.957a1.451,1.451,0,0,0,.618-.122.8.8,0,0,1,.867,0,.762.762,0,0,0,.266.09c1.08.23,1.391-.024,1.5-1.123.046-.485-.212-.979.06-1.451.094-.007.188-.011.281-.024.325-.044.464.058.449.422-.031.681,0,1.365-.014,2.047-.007.306.107.415.409.408.611-.015,1.224-.008,1.836,0,.633,0,.641.007.643.605q.006,4.272.007,8.544c0,1.6-.007,3.2,0,4.8,0,.6.007.608.627.608,2.471,0,4.942,0,7.414.007.216,0,.468-.118.65.113" transform="translate(14 13)" fill="#000105"/><path d="M.011,20.312c.008-1.012.022-2.025.022-3.038Q.037,9,.04.733C.04.491-.077.217.145,0,.468.359.37.8.37,1.217Q.381,9.992.376,18.768c0,1.245,0,1.2,1.248,1.257,5.706.27,11.414.063,17.12.138,1.229.015,2.444-.228,3.673-.146a1.4,1.4,0,0,1,.939.225c-.071.182-.231.126-.36.127-.589.006-1.177,0-1.766,0-.828.006-.732-.085-.738.771,0,.565-.012,1.131,0,1.7.007.3-.108.436-.411.411-.14-.01-.282,0-.424,0H3.616c-.608-.008-.61-.009-.614-.623s-.01-1.225,0-1.837c.006-.282-.059-.437-.385-.423-.587.027-1.176.024-1.764.033-.309.192-.606.267-.856-.093l.011,0" transform="translate(34.336 30.559)" fill="#a1a4a0"/><path d="M2.856,6.057c-.8,0-1.594-.007-2.391.024C.086,6.1,0,5.952,0,5.6.021,3.817.019,2.035.026.254L.014.267A4.521,4.521,0,0,1,2.627.12a.492.492,0,0,1,.4.515q.118,2.531,0,5.062a.652.652,0,0,1-.188.372l.013-.012" transform="translate(19.885 41.908)" fill="#000105"/><path d="M4.532.029a5.467,5.467,0,0,1,.007,2.427c-.047.255-.132.381-.394.379a7.157,7.157,0,0,0-1.195.015c-.352.057-.4-.424-.719-.328-.238.073-.367.352-.676.321C1.23,2.81.9,2.842.571,2.834.024,2.821.013,2.816,0,2.281,0,1.531,0,.78,0,.029q2.264-.058,4.529,0" transform="translate(40.851 13.005)" fill="#000105"/><path d="M0,0C.275.124.575.02.856.093a11.528,11.528,0,0,1-.13,2.528c-.1.375.134.728.14,1.111A13.039,13.039,0,0,1,.713,5.764c-.659.04-.663.04-.664-.6,0-1.462,0-2.924,0-4.386A2.438,2.438,0,0,0,0,0" transform="translate(34.336 50.866)" fill="#000105"/><path d="M23.211,34.869c-1.245-.036-2.49.089-3.729.1q-7.884.077-15.769,0c-1.1-.011-2.2-.107-3.307-.108-.262,0-.4-.085-.382-.364.011-.188,0-.377,0-.565q0-9.228,0-18.456c0-.282-.016-.564-.024-.847.139-.131.312-.075.471-.076.612-.007,1.224,0,1.837,0,.54,0,.545-.006.549-.52.005-.612,0-1.224,0-1.837,0-.517.008-.521.55-.526.659,0,1.319-.019,1.978.007.354.014.437-.118.426-.447-.023-.658-.007-1.319-.007-1.978q0-4.274,0-8.546c0-.782-.109-.7.727-.7.7,0,1.41.02,2.115.031a1.406,1.406,0,0,1,.212.943c0,4.234.049,8.47-.027,12.7-.022,1.26-.18,2.52-.081,3.784q5.37.009,10.741.017c.965,0,.837-.132.847.875,0,.542.012,1.084,0,1.625-.009.307.11.414.412.407.683-.015,1.368.017,2.049-.013.387-.017.477.131.465.485-.023.682-.022,1.366,0,2.049.009.316-.1.4-.407.4-.682-.019-1.368.017-2.049-.015-.39-.017-.484.134-.472.491.022.659.017,1.319,0,1.978-.008.325.083.465.439.452.7-.024,1.413,0,2.119-.011.271-.005.372.085.366.362-.014.73-.019,1.46,0,2.19.009.336-.155.382-.429.378-.683-.011-1.367.011-2.05-.01-.337-.011-.459.1-.449.442.02.705.022,1.413,0,2.119-.011.334.134.387.418.381.683-.015,1.367.008,2.05-.011.316-.008.481.057.461.421-.046.8.055,1.6-.054,2.4" transform="translate(34.48 15.932)" fill="#fffffe"/><path d="M.165,17.464c-.246-.137-.144-.374-.144-.566,0-.964.041-1.927.042-2.89Q.069,7.021.06.033C.931.023,1.8.019,2.672,0c.278-.006.381.113.362.379-.011.141,0,.283,0,.423V13.738c0,.1,0,.188,0,.283-.014.5-.014.513-.5.52-.636.008-1.273,0-1.909,0-.136,0-.285-.039-.4.084a2.317,2.317,0,0,0-.09,1.092c-.01.581.016,1.162.027,1.742" transform="translate(43.071 15.932)" fill="#a1a4a0"/><path d="M5.8,17.523c.1-1.645.017-3.293.043-4.938,0-.189-.007-.377,0-.565.007-.234-.094-.346-.335-.34-.844.021-1.692-.052-2.536.042,0-1.761.007-3.523,0-5.283,0-.571-.01-.568-.587-.584A16.141,16.141,0,0,1,0,5.773Q.013,3.369.027.965C.028.8.038.634.026.47,0,.145.117-.027.464,0,.58.013.7,0,.818,0H13.835c.812,0,.772-.067.772.757V16.75a3.075,3.075,0,0,0,0,.354c.043.359-.14.46-.458.425a1.884,1.884,0,0,0-.212,0l-8.136,0" transform="translate(16.926 30.454)" fill="#335f9d"/></svg>