<svg xmlns="http://www.w3.org/2000/svg" width="38" height="38" viewBox="0 0 38 38"><path d="M26.308,11.692V10.231H24.846V7.308H23.385V4.385H21.923V1.462H20.462V0H17.538V1.462H16.077V4.385H14.615V7.308H13.154v2.923H11.692v1.462H0v2.923H1.462v1.462H2.923v1.462H4.385V19H5.846v1.462H7.308v1.462H8.769v4.385H7.308v2.923H5.846v2.923H4.385v2.923H2.923V38H8.769V36.538h1.462V35.077h2.923V33.615h1.462V32.154h2.923V30.692h2.923v1.462h2.923v1.462h1.462v1.462h2.923v1.462h1.462V38h5.846V35.077H33.615V32.154H32.154V29.231H30.692V26.308H29.231V21.923h1.462V20.462h1.462V19h1.462V17.538h1.462V16.077h1.462V14.615H38V11.692H26.308" fill="#b56c02"/><path d="M16.077,14.615H14.615V10.231H11.692V5.846h1.462V2.923h1.462V0h1.462V2.923h1.462v7.308H16.077v4.383Zm-4.385,0H5.846V13.153H2.923V11.692H0V10.231H11.692v4.383Z" transform="translate(2.923 2.923)" fill="#fff"/><path d="M4.385,35.077H2.923V33.615H4.385v1.461Zm26.308-1.462H29.231V32.154H26.308V30.693H24.846V29.231H23.385V27.77H21.923V26.308H20.462V24.846H19V23.385H16.077v1.462H14.615v1.462H13.154V27.77H11.692v1.462H10.231v1.462H8.77v1.461H5.846V30.693H7.308V27.77H8.77V24.846h1.462V21.923h1.461V19H8.77V17.538H7.308V16.077H4.385V14.616H2.923V13.153H4.385v1.462H7.308v1.461h5.846v4.385h2.923V16.077h1.462V11.692H19v5.846H17.538v2.923h2.923v1.462h1.462v1.462h1.462v1.462h1.462V27.77h1.462v1.462H27.77v1.462h1.462v1.461h1.462v1.461Zm-24.846,0H4.385V32.153H5.846v1.461Zm19-17.538H21.923V11.692H19V5.846h1.462V8.77h1.462v1.462h1.462v1.461h8.769v1.462H29.231v1.462H24.846v1.461ZM1.462,13.153H0V11.692H1.462v1.461Zm11.692-1.462H11.692V8.77h1.462v2.921Zm1.462-4.384H13.154V5.846h1.462V7.307ZM19,4.385H17.538V2.923H19V4.384Zm-2.923,0H14.615V2.923h1.462V4.384Zm1.462-2.923H16.077V0h1.462V1.461Z" transform="translate(1.462 1.462)" fill="#fffe19"/><path d="M30.693,35.077H27.77V33.616H26.308V32.153H27.77v1.462h2.923v1.461Zm-24.846,0H2.923V33.615H4.385V32.154H2.923V30.693H4.385v1.461H7.308v1.462H5.846v1.461Zm23.385-2.923H27.77v-1.46H26.308V29.231H24.846V27.77H23.385V24.846H21.923V23.385H20.462V21.923H19V20.462h1.462V16.077h2.923V14.615H27.77v1.462H26.308v1.462H24.846V19H23.385v2.923h1.462v2.923h1.462V27.77H27.77v2.923h1.462v1.46Zm-20.462,0H7.308V30.693H8.77v1.46Zm14.615-1.461H21.923V29.232H20.462V27.771H19V26.309H17.538V24.847H14.615V23.385h2.923v1.462H19v1.462h1.462V27.77h1.462v1.462h1.462v1.461Zm-13.154,0H8.77V29.231h1.462v1.461Zm-4.385,0H4.385V27.77H5.846v2.922Zm5.845-1.462H10.231V27.77h1.461V29.23Zm1.462-1.462H11.692V26.308h1.462v1.461Zm-5.846,0H5.846V24.846H7.308v2.922Zm7.307-1.462H13.154V24.846h1.462v1.461ZM8.77,24.846H7.308V21.923H8.77v2.922Zm1.462-2.923H8.77V20.462H7.308V19H5.846V17.539H2.923V16.078H1.462V14.616H0V13.153H1.462v1.462H2.923v1.462H5.846v1.462H7.308V19h2.923v2.922Zm7.307-1.462H16.077V17.538h1.462v2.922Zm11.693-5.846H27.77V13.153h1.462v1.461Zm2.922-1.462H30.693V11.692h1.461v1.461Zm-10.23-2.922H20.462V8.771H19V5.847H17.538V2.924H16.077V0h1.462V2.923H19V5.846h1.462V8.77h1.462V10.23Z" transform="translate(2.923 1.462)" fill="#f7e12a"/><path d="M23.385,23.385H21.923V21.924H20.462V20.463H17.538V19H16.077V17.539H13.153V16.077H10.231v1.462H7.308V16.077H8.77V14.615h1.462V13.154h2.922v1.462h1.462v1.462h1.462v1.462h1.462V19h2.923v1.462h1.462v1.462h1.462v1.461ZM5.846,20.462H4.385V19H5.846v1.461ZM7.308,19H5.846V17.538H7.308V19Zm13.154-8.769H19V7.308h1.462V5.846h1.462V4.385h1.462V2.923h1.462V1.462H27.77V2.923H26.308V4.385H24.846V5.846H23.385V7.308H21.923V8.77H20.462V10.23Zm-16.077,0H2.923V8.771H1.462V7.309H0V5.846H1.462V7.308H2.923V8.77H4.385V10.23Zm24.846-8.77H27.77V0h1.462V1.461Z" transform="translate(7.308 13.154)" fill="#ef880a"/><rect width="2.923" height="4.385" transform="translate(14.615 13.154)" fill="#fff"/><rect width="2.923" height="4.385" transform="translate(14.615 17.538)" fill="#fffe19"/><rect width="2.923" height="4.385" transform="translate(20.462 13.154)" fill="#fffe19"/><rect width="2.923" height="4.385" transform="translate(20.462 17.538)" fill="#f7e12a"/></svg>