<svg id="Layer_1" data-name="Layer 1" xmlns="http://www.w3.org/2000/svg" viewBox="0 0 234.58 227.65"><defs><style>.cls-1{fill:#109d58;}.cls-2{fill:#4385f3;}.cls-3{fill:#e94436;}.cls-4{fill:#fabc05;}.cls-5{fill:#696e74;}</style></defs><path class="cls-1" d="M163.55,60.58c-9.47-5.5-19-11-28.41-16.5-9-5.26-10.23-16.84-2.63-23.62A14.22,14.22,0,0,1,149,18.69q25.63,14.68,51.17,29.56c5.43,3.19,7.74,8.34,6.8,14.54-.89,5.91-4.42,9.87-10.2,11.69a.26.26,0,0,0-.11.29l0-.06c-5.23,1.14-9.76-.5-14.19-3.22C176.28,67.68,169.87,64.2,163.55,60.58Z"/><path class="cls-2" d="M70.16,60.56,89.36,71.8c3.29,1.92,6.66,3.74,9.89,5.76a14.47,14.47,0,0,1-8.39,26.76,14.51,14.51,0,0,1-6.7-2.06Q59,87.74,33.89,73.2a13.79,13.79,0,0,1-7.34-13.1c.2-5.73,3.09-10,8.23-12.58.49-.24,1-.5,1.46-.75.3,0,.71.14.77-.38l0,0c1.44-.1,2.88-.3,4.32-.28a16.38,16.38,0,0,1,8,2.52C56.22,52.68,63.2,56.6,70.16,60.56Z"/><path class="cls-3" d="M70.16,60.56c-7-4-13.94-7.88-20.87-11.9a16.38,16.38,0,0,0-8-2.52c-1.44,0-2.88.18-4.32.28a55.39,55.39,0,0,1,7.09-4.28Q64.24,30.46,84.45,18.82a14.47,14.47,0,0,1,18.46,21.67,16.74,16.74,0,0,1-4.84,3.89Z"/><path class="cls-4" d="M163.55,60.58c6.32,3.62,12.73,7.1,18.94,10.91,4.43,2.72,9,4.36,14.19,3.22,0,.52-.51.62-.84.81Q172.59,89,149.32,102.34A14.25,14.25,0,0,1,131,99.24a14.42,14.42,0,0,1-.67-17.92,15.86,15.86,0,0,1,5.17-4.43q13.53-7.78,27-15.6A10,10,0,0,0,163.55,60.58Z"/><path class="cls-3" d="M37,46.39c-.06.52-.47.34-.77.38A.76.76,0,0,1,37,46.39Z"/><path class="cls-4" d="M196.66,74.77a.26.26,0,0,1,.11-.29A.21.21,0,0,1,196.66,74.77Z"/><path class="cls-5" d="M36.73,189a31.23,31.23,0,0,1-11.58-11.58,33.11,33.11,0,0,1,0-32.6A31.53,31.53,0,0,1,52.68,129a33.86,33.86,0,0,1,12.75,2.4,25.86,25.86,0,0,1,9.82,6.78L70,143.45a18.87,18.87,0,0,0-7.46-5.54,25.38,25.38,0,0,0-21.92,1.2,24,24,0,0,0-9,8.84,27.28,27.28,0,0,0,0,26.34,23.74,23.74,0,0,0,9.05,8.83,24.61,24.61,0,0,0,12.1,3.13,24.5,24.5,0,0,0,10.34-1.93,23,23,0,0,0,7.16-5.1,18.77,18.77,0,0,0,3.61-5.79,25.74,25.74,0,0,0,1.71-7.51H52.86v-6.78H82.37a26.19,26.19,0,0,1,.43,4.47,34.39,34.39,0,0,1-1.8,11A24.43,24.43,0,0,1,75.25,184q-8.49,9.18-22.57,9.18A31.4,31.4,0,0,1,36.73,189Z"/><path class="cls-5" d="M93.61,130.41h18.53a33.43,33.43,0,0,1,16.47,3.9,26.88,26.88,0,0,1,10.81,10.85,35.67,35.67,0,0,1,0,31.92,26.88,26.88,0,0,1-10.81,10.85,33.43,33.43,0,0,1-16.47,3.9H93.61Zm18.53,54.47q10.89,0,17.28-6.26t6.39-17.5q0-11.24-6.39-17.5t-17.28-6.27H100.81v47.53Z"/><path class="cls-5" d="M166.78,189a31.23,31.23,0,0,1-11.58-11.58,33.11,33.11,0,0,1,0-32.6A31.53,31.53,0,0,1,182.74,129a33.81,33.81,0,0,1,12.74,2.4,25.78,25.78,0,0,1,9.82,6.78l-5.23,5.24a18.87,18.87,0,0,0-7.46-5.54,25.38,25.38,0,0,0-21.92,1.2,23.88,23.88,0,0,0-9,8.84,27.28,27.28,0,0,0,0,26.34,23.74,23.74,0,0,0,9,8.83,26.49,26.49,0,0,0,22.43,1.2,22.91,22.91,0,0,0,7.17-5.1,18.75,18.75,0,0,0,3.6-5.79,25.42,25.42,0,0,0,1.72-7.51H182.91v-6.78h29.51a25.21,25.21,0,0,1,.43,4.47,34.39,34.39,0,0,1-1.8,11A24.31,24.31,0,0,1,205.3,184q-8.49,9.18-22.56,9.18A31.41,31.41,0,0,1,166.78,189Z"/></svg>