<svg width="178" height="114" viewBox="0 0 178 114" fill="none" xmlns="http://www.w3.org/2000/svg">
<path d="M48.6782 9.25666L64.4421 0L89.2793 13.8392L114.117 0L129.88 9.25666L89.0044 32.4442L48.6782 9.25666Z" fill="#252E33"/>
<path d="M48.6782 9.25677L64.5337 18.3302V47.9333L48.6782 56.7317V9.25677Z" fill="#7EB41D"/>
<path d="M89.2793 80.469V61.8639L64.5337 47.8415L48.6782 56.7315L89.2793 80.469Z" fill="#7EB41D"/>
<path d="M105.043 47.8416C105.043 55.7235 105.043 63.5137 105.043 71.3957C99.8191 74.4201 94.5034 77.4446 89.2793 80.4691C89.2793 66.4466 89.2793 52.4241 89.2793 38.4016C94.5034 41.6093 99.8191 44.8171 105.043 48.0248L89.2793 38.4016L105.043 47.8416Z" fill="#252E33"/>
<path d="M129.88 9.25677C124.565 12.2812 119.341 15.2141 114.025 18.2385C114.025 28.1368 114.025 38.035 114.025 47.9333L129.88 56.7317V9.25677Z" fill="#7EB41D"/>
<path d="M73.5156 47.8415L89.2795 38.3098V56.8231L73.5156 47.9331" fill="#252E33"/>
<path d="M5.17449 88.1218L13.3368 108.485L21.4991 88.1218H25.7688V113.079H22.4765V103.36L22.7851 92.8698L14.5886 113.079H12.0678L3.88842 92.9212L4.21422 103.36V113.079H0.921875V88.1218H5.17449Z" fill="#252E33"/>
<path d="M38.7839 113.421C36.2689 113.421 34.2226 112.599 32.645 110.953C31.0674 109.296 30.2787 107.085 30.2787 104.32V103.737C30.2787 101.897 30.6273 100.257 31.3247 98.8175C32.0334 97.3663 33.0166 96.235 34.2741 95.4237C35.543 94.601 36.9148 94.1896 38.3895 94.1896C40.8016 94.1896 42.6764 94.9838 44.0139 96.5721C45.3514 98.1605 46.0202 100.434 46.0202 103.394V104.714H33.451C33.4967 106.542 34.0283 108.022 35.0457 109.153C36.0746 110.273 37.3778 110.833 38.9554 110.833C40.0757 110.833 41.0245 110.605 41.8019 110.147C42.5792 109.69 43.2594 109.085 43.8425 108.331L45.7801 109.839C44.2254 112.227 41.8933 113.421 38.7839 113.421ZM38.3895 96.795C37.1091 96.795 36.0346 97.2635 35.1657 98.2005C34.2969 99.1261 33.7596 100.429 33.5539 102.109H42.8479V101.869C42.7564 100.257 42.322 99.0118 41.5447 98.1319C40.7673 97.2406 39.7156 96.795 38.3895 96.795Z" fill="#252E33"/>
<path d="M52.7078 94.5324L52.8107 96.8635C54.2282 95.0809 56.0802 94.1896 58.3665 94.1896C62.2876 94.1896 64.2653 96.4007 64.2996 100.823V113.079H61.1273V100.806C61.1159 99.4689 60.8072 98.4804 60.2013 97.8405C59.6069 97.2006 58.6752 96.8807 57.4062 96.8807C56.3774 96.8807 55.4743 97.1549 54.6969 97.7034C53.9196 98.2519 53.3137 98.9718 52.8793 99.8631V113.079H49.7069V94.5324H52.7078Z" fill="#252E33"/>
<path d="M73.3879 90.0416V94.5324H76.8517V96.9835H73.3879V108.485C73.3879 109.228 73.5422 109.788 73.8508 110.165C74.1595 110.53 74.6854 110.713 75.4284 110.713C75.7942 110.713 76.2972 110.645 76.9374 110.507V113.079C76.1029 113.307 75.2912 113.421 74.5025 113.421C73.0849 113.421 72.016 112.993 71.2958 112.136C70.5756 111.279 70.2155 110.062 70.2155 108.485V96.9835H66.8375V94.5324H70.2155V90.0416H73.3879Z" fill="#252E33"/>
<path d="M79.3895 103.634C79.3895 101.817 79.7439 100.183 80.4527 98.7318C81.1729 97.2806 82.1675 96.1608 83.4364 95.3723C84.7167 94.5838 86.1743 94.1896 87.809 94.1896C90.3355 94.1896 92.376 95.0638 93.9307 96.8121C95.4969 98.5604 96.28 100.886 96.28 103.788V104.011C96.28 105.817 95.9313 107.439 95.234 108.879C94.5481 110.307 93.5592 111.422 92.2674 112.221C90.9871 113.021 89.5124 113.421 87.8433 113.421C85.3283 113.421 83.2878 112.547 81.7216 110.799C80.1669 109.05 79.3895 106.736 79.3895 103.857V103.634ZM82.579 104.011C82.579 106.068 83.0534 107.719 84.0023 108.965C84.9625 110.21 86.2429 110.833 87.8433 110.833C89.4552 110.833 90.7356 110.205 91.6844 108.948C92.6332 107.679 93.1077 105.908 93.1077 103.634C93.1077 101.6 92.6218 99.9545 91.6501 98.6976C90.6898 97.4292 89.4095 96.795 87.809 96.795C86.2429 96.795 84.9797 97.4177 84.0194 98.6633C83.0591 99.9088 82.579 101.691 82.579 104.011Z" fill="#252E33"/>
<path d="M109.226 97.3777C108.746 97.2977 108.226 97.2578 107.666 97.2578C105.585 97.2578 104.174 98.1434 103.431 99.9145V113.079H100.258V94.5324H103.345L103.396 96.675C104.437 95.0181 105.911 94.1896 107.82 94.1896C108.438 94.1896 108.906 94.2696 109.226 94.4296V97.3777Z" fill="#252E33"/>
<path d="M128.122 111.292H140.435V113.078H125.998V88.0743H128.122V111.292Z" fill="#7EB41D"/>
<path d="M155.711 113.078C155.505 112.494 155.374 111.63 155.317 110.485C154.598 111.424 153.679 112.151 152.56 112.666C151.452 113.169 150.276 113.421 149.032 113.421C147.251 113.421 145.807 112.923 144.699 111.927C143.603 110.931 143.055 109.672 143.055 108.149C143.055 106.34 143.803 104.909 145.298 103.856C146.805 102.803 148.901 102.276 151.583 102.276H155.3V100.164C155.3 98.8359 154.889 97.7941 154.067 97.0385C153.256 96.2715 152.069 95.8879 150.505 95.8879C149.077 95.8879 147.896 96.2543 146.96 96.987C146.023 97.7197 145.555 98.6012 145.555 99.6316L143.5 99.6144C143.5 98.1376 144.185 96.861 145.555 95.7849C146.925 94.6973 148.609 94.1535 150.607 94.1535C152.674 94.1535 154.301 94.6744 155.488 95.7162C156.687 96.7466 157.303 98.1891 157.338 100.044V108.836C157.338 110.634 157.526 111.979 157.903 112.872V113.078H155.711ZM149.272 111.601C150.642 111.601 151.863 111.269 152.936 110.605C154.021 109.941 154.809 109.054 155.3 107.943V103.856H151.635C149.591 103.879 147.993 104.257 146.84 104.989C145.687 105.711 145.11 106.707 145.11 107.978C145.11 109.019 145.493 109.884 146.257 110.571C147.034 111.258 148.039 111.601 149.272 111.601Z" fill="#7EB41D"/>
<path d="M177.734 103.976C177.734 106.873 177.095 109.174 175.816 110.88C174.537 112.574 172.819 113.421 170.661 113.421C168.081 113.421 166.129 112.46 164.804 110.536L164.719 113.078H162.801V86.7005H164.839V97.1931C166.14 95.1667 168.07 94.1535 170.627 94.1535C172.819 94.1535 174.549 94.9949 175.816 96.6779C177.095 98.3494 177.734 100.679 177.734 103.667V103.976ZM175.679 103.616C175.679 101.166 175.205 99.2767 174.258 97.9487C173.31 96.6092 171.974 95.9394 170.25 95.9394C168.937 95.9394 167.824 96.2657 166.911 96.9183C165.997 97.5594 165.307 98.5039 164.839 99.7518V108.132C165.866 110.468 167.681 111.635 170.285 111.635C171.974 111.635 173.293 110.966 174.24 109.626C175.2 108.287 175.679 106.283 175.679 103.616Z" fill="#7EB41D"/>
</svg>
