<svg xmlns="http://www.w3.org/2000/svg" xmlns:xlink="http://www.w3.org/1999/xlink" width="146.709" height="30.336" viewBox="0 0 146.709 30.336">
  <defs>
    <linearGradient id="linear-gradient" x1="0.5" y1="1" x2="0.5" gradientUnits="objectBoundingBox">
      <stop offset="0" stop-color="#008837"/>
      <stop offset="0.011" stop-color="#008837"/>
      <stop offset="0.32" stop-color="#008837"/>
      <stop offset="0.322" stop-color="#ff0"/>
      <stop offset="0.691" stop-color="#ff0"/>
      <stop offset="0.696" stop-color="#f71818"/>
    </linearGradient>
  </defs>
  <g id="Group_1361" data-name="Group 1361" transform="translate(0.5 0)">
    <line id="Line_1" data-name="Line 1" x2="116.028" transform="translate(30.181 24.208)" fill="none" stroke="#df5c8b" stroke-miterlimit="10" stroke-width="3"/>
    <g id="Group_1359" data-name="Group 1359" transform="translate(29.922 0)">
      <path id="Path_433" data-name="Path 433" d="M539.144,95.758c-.748-3.868-2.013-3.789-2.013-3.789v3.613s-.115,2.285,1.841,2.285h.343c1.958,0,1.841-2.285,1.841-2.285V91.969s-1.264-.079-2.013,3.789" transform="translate(-500.426 -91.969)" fill="#df5c8b"/>
      <path id="Path_434" data-name="Path 434" d="M975.838,168.714h22.641v-12.37H975.838Zm6.055-8.538h-1.177v6.25H979.59v-6.25h-1.173v-1.043h3.476Zm3.047,6.25h-1.125v-7.293h1.125Zm5.515-4.835h-1.064v-.781c0-.52-.226-.718-.583-.718s-.584.2-.584.718v3.939c0,.52.226.706.584.706s.583-.186.583-.706v-1.042h1.064v.968c0,1.166-.573,1.833-1.68,1.833s-1.676-.667-1.676-1.833v-3.79c0-1.167.572-1.834,1.676-1.834s1.68.667,1.68,1.834Zm3.62,4.918c-1.1,0-1.678-.667-1.678-1.833v-.448h1.064v.522c0,.52.225.706.583.706s.584-.186.584-.706-.225-.928-.963-1.586a2.836,2.836,0,0,1-1.238-2.279c0-1.167.563-1.834,1.658-1.834s1.656.667,1.656,1.834v.228h-1.064v-.3c0-.52-.205-.718-.562-.718s-.564.2-.564.718.225.927.962,1.585a2.841,2.841,0,0,1,1.239,2.28c0,1.166-.575,1.833-1.678,1.833" transform="translate(-882.451 -148.027)" fill="#df5c8b"/>
      <path id="Path_435" data-name="Path 435" d="M253.051,154.226h3.96v1.23h.045a4.723,4.723,0,0,1,3.29-1.572,4.31,4.31,0,0,1,4,2.14,5.026,5.026,0,0,1,3.8-2.14c2.1,0,4.475,1.07,4.475,4.327v7.7h-3.96V159.3a1.957,1.957,0,0,0-2.014-2.187,1.778,1.778,0,0,0-1.835,1.822v6.97H260.86V159.3a1.957,1.957,0,0,0-2.014-2.187,1.8,1.8,0,0,0-1.835,1.96v6.832h-3.96Z" transform="translate(-253.051 -145.884)" fill="#7dc3cd"/>
      <path id="Path_436" data-name="Path 436" d="M425.826,162.086c0,2.3.605,3.189,2.261,3.189s2.26-.889,2.26-3.189v-5.558h3.959v6.536c0,3.918-1.923,5.491-6.219,5.491s-6.221-1.573-6.221-5.491v-6.536h3.959Z" transform="translate(-400.055 -148.187)" fill="#7dc3cd"/>
      <path id="Path_437" data-name="Path 437" d="M514.721,156.528h3.959v13.484c0,2.073-.984,4.464-4.139,4.464a6.043,6.043,0,0,1-3.155-.728l1.231-3.256a2.164,2.164,0,0,0,1.007.341c.671,0,1.1-.5,1.1-1.594Z" transform="translate(-478.009 -148.187)" fill="#7dc3cd"/>
      <path id="Path_438" data-name="Path 438" d="M586.32,160.62a2.363,2.363,0,0,0,2.483,2.415,3.129,3.129,0,0,0,2.8-1.3l2.863,1.457c-1.3,2.209-3.4,3.052-5.951,3.052a6.185,6.185,0,1,1,0-12.369c3.492,0,6.152,2.095,6.152,6.2a4.47,4.47,0,0,1-.021.547Zm4.475-2.232a2.051,2.051,0,0,0-2.171-1.891,1.989,1.989,0,0,0-2.192,1.891Z" transform="translate(-539.675 -145.879)" fill="#7dc3cd"/>
      <path id="Path_439" data-name="Path 439" d="M692.677,154.225h3.959v1.686h.046a4.49,4.49,0,0,1,3.511-2.027,4.714,4.714,0,0,1,2.508.728l-1.657,3.418a3.3,3.3,0,0,0-2.059-.639,2.409,2.409,0,0,0-2.35,2.368v6.151h-3.959Z" transform="translate(-635.876 -145.884)" fill="#7dc3cd"/>
      <path id="Path_440" data-name="Path 440" d="M775.563,160.62a2.363,2.363,0,0,0,2.484,2.415,3.131,3.131,0,0,0,2.8-1.3l2.865,1.457c-1.3,2.209-3.4,3.052-5.952,3.052a6.186,6.186,0,1,1,0-12.369c3.49,0,6.152,2.095,6.152,6.2a4.335,4.335,0,0,1-.022.547Zm4.475-2.232a2.05,2.05,0,0,0-2.17-1.891,1.99,1.99,0,0,0-2.193,1.891Z" transform="translate(-704.467 -145.879)" fill="#7dc3cd"/>
      <path id="Path_441" data-name="Path 441" d="M884.826,154.79l-1.3,2.641a6.386,6.386,0,0,0-2.551-.729c-.872,0-1.231.16-1.231.706,0,.616.805.8,1.79,1.116,1.522.478,3.489,1.345,3.489,3.737,0,3.439-3.087,3.985-5.435,3.985a6.807,6.807,0,0,1-4.432-1.573l1.612-2.755a5.71,5.71,0,0,0,2.842,1.344c.559,0,1.23-.068,1.23-.843,0-.842-1.252-.912-2.551-1.594-1.162-.616-2.327-1.436-2.327-3.19,0-2.392,1.993-3.758,5.013-3.758a8.636,8.636,0,0,1,3.849.912" transform="translate(-794.78 -145.879)" fill="#7dc3cd"/>
    </g>
    <path id="Path_442" data-name="Path 442" d="M21.458,112.154A13.289,13.289,0,0,1,34.675,98.761a13.466,13.466,0,0,1,.064,26.931A13.5,13.5,0,0,1,21.458,112.154Z" transform="translate(-21.458 -97.883)" fill="#7dc3cd" stroke="#fff" stroke-miterlimit="10" stroke-width="1"/>
    <path id="Path_443" data-name="Path 443" d="M95.407,159.031c-1.59-9.477-4.282-9.288-4.282-9.288l.057,8.861s-.3,5.6,3.859,5.6h.731c4.16,0,3.906-5.56,3.906-5.56l.009-8.9s-2.691-.19-4.283,9.288" transform="translate(-82.124 -142.278)" fill="url(#linear-gradient)"/>
    <g id="Group_1360" data-name="Group 1360" transform="translate(29.755 26.168)">
      <path id="Path_444" data-name="Path 444" d="M251.757,300.828h.708v2.737h-.708Z" transform="translate(-251.757 -300.011)" fill="#df5c8b"/>
      <path id="Path_445" data-name="Path 445" d="M263.514,300.828v2.737h-.583l-1.1-1.458v1.458h-.693v-2.737h.583l1.1,1.458v-1.458Z" transform="translate(-259.922 -300.011)" fill="#df5c8b"/>
      <path id="Path_446" data-name="Path 446" d="M282.54,303.169a1.389,1.389,0,0,1-.465-.219l.232-.571a1.452,1.452,0,0,0,.39.2,1.368,1.368,0,0,0,.436.074q.408,0,.408-.223a.184.184,0,0,0-.116-.174,2.023,2.023,0,0,0-.374-.119,3.332,3.332,0,0,1-.472-.143.8.8,0,0,1-.325-.244.7.7,0,0,1-.136-.454.837.837,0,0,1,.125-.452.853.853,0,0,1,.374-.319,1.419,1.419,0,0,1,.609-.117,1.979,1.979,0,0,1,.486.061,1.417,1.417,0,0,1,.422.178l-.218.575a1.363,1.363,0,0,0-.693-.211.54.54,0,0,0-.307.068.209.209,0,0,0-.1.178.175.175,0,0,0,.114.164,1.932,1.932,0,0,0,.368.113,3.217,3.217,0,0,1,.474.143.817.817,0,0,1,.325.242.686.686,0,0,1,.138.452.822.822,0,0,1-.125.446.871.871,0,0,1-.375.319,1.4,1.4,0,0,1-.608.119A2.123,2.123,0,0,1,282.54,303.169Z" transform="translate(-278.158 -299.642)" fill="#df5c8b"/>
      <path id="Path_447" data-name="Path 447" d="M303.062,300.951a.9.9,0,0,1,.386.352,1.128,1.128,0,0,1,0,1.073.9.9,0,0,1-.386.35,1.321,1.321,0,0,1-.59.123h-.436v.716h-.708v-2.737h1.144A1.323,1.323,0,0,1,303.062,300.951Zm-.3,1.185a.384.384,0,0,0,.111-.3.392.392,0,0,0-.111-.3.46.46,0,0,0-.329-.105h-.393v.8h.393A.465.465,0,0,0,302.758,302.136Z" transform="translate(-294.923 -300.011)" fill="#df5c8b"/>
      <path id="Path_448" data-name="Path 448" d="M321.439,300.828h.708v2.737h-.708Z" transform="translate(-312.436 -300.011)" fill="#df5c8b"/>
      <path id="Path_449" data-name="Path 449" d="M331.911,302.838h-.386v.727h-.708v-2.737h1.144a1.322,1.322,0,0,1,.59.123.9.9,0,0,1,.386.352,1.034,1.034,0,0,1,.136.538,1.023,1.023,0,0,1-.127.518.889.889,0,0,1-.363.346l.54.86h-.758Zm.336-1.294a.46.46,0,0,0-.329-.105h-.393v.8h.393a.465.465,0,0,0,.329-.1.384.384,0,0,0,.111-.3A.392.392,0,0,0,332.247,301.544Z" transform="translate(-320.602 -300.011)" fill="#df5c8b"/>
      <path id="Path_450" data-name="Path 450" d="M350.94,303.033h-1.058l-.2.532h-.722l1.1-2.737h.7l1.108,2.737h-.736Zm-.207-.571-.322-.876-.322.876Z" transform="translate(-336.404 -300.011)" fill="#df5c8b"/>
      <path id="Path_451" data-name="Path 451" d="M374.124,302.838h-.386v.727h-.708v-2.737h1.144a1.322,1.322,0,0,1,.59.123.9.9,0,0,1,.386.352,1.034,1.034,0,0,1,.136.538,1.023,1.023,0,0,1-.127.518.889.889,0,0,1-.363.346l.54.86h-.758Zm.336-1.294a.461.461,0,0,0-.329-.105h-.393v.8h.393a.465.465,0,0,0,.329-.1.384.384,0,0,0,.111-.3A.392.392,0,0,0,374.46,301.544Z" transform="translate(-357.361 -300.011)" fill="#df5c8b"/>
      <path id="Path_452" data-name="Path 452" d="M393.035,315.6a.443.443,0,0,1,.114.317.779.779,0,0,1-.021.18,1.983,1.983,0,0,1-.1.27l-.225.571h-.425l.168-.637a.362.362,0,0,1-.155-.151.47.47,0,0,1-.055-.233.443.443,0,0,1,.114-.317.385.385,0,0,1,.293-.121A.381.381,0,0,1,393.035,315.6Z" transform="translate(-374.174 -312.766)" fill="#df5c8b"/>
      <path id="Path_453" data-name="Path 453" d="M411.636,303.565l-.007-1.451-.643,1.181h-.315l-.64-1.142v1.412h-.654v-2.737h.583l.879,1.58.858-1.58h.582l.007,2.737Z" transform="translate(-389.012 -300.011)" fill="#df5c8b"/>
      <path id="Path_454" data-name="Path 454" d="M435.448,303.067a1.317,1.317,0,0,1-.5-.508,1.571,1.571,0,0,1,0-1.462,1.316,1.316,0,0,1,.5-.508,1.474,1.474,0,0,1,1.426,0,1.316,1.316,0,0,1,.5.508,1.571,1.571,0,0,1,0,1.462,1.316,1.316,0,0,1-.5.508,1.474,1.474,0,0,1-1.426,0Zm1.056-.555a.679.679,0,0,0,.243-.276.979.979,0,0,0,0-.817.68.68,0,0,0-.243-.276.651.651,0,0,0-.686,0,.679.679,0,0,0-.243.276.978.978,0,0,0,0,.817.678.678,0,0,0,.243.276.651.651,0,0,0,.686,0Z" transform="translate(-411.125 -299.642)" fill="#df5c8b"/>
      <path id="Path_455" data-name="Path 455" d="M457.836,301.442h-.768v-.614h2.241v.614h-.765v2.123h-.708Z" transform="translate(-430.541 -300.011)" fill="#df5c8b"/>
      <path id="Path_456" data-name="Path 456" d="M476.459,300.828h.708v2.737h-.708Z" transform="translate(-447.427 -300.011)" fill="#df5c8b"/>
      <path id="Path_457" data-name="Path 457" d="M486.295,300.828l-1.072,2.737h-.7l-1.069-2.737h.765l.679,1.783.693-1.783Z" transform="translate(-453.521 -300.011)" fill="#df5c8b"/>
      <path id="Path_458" data-name="Path 458" d="M505.545,303.033h-1.058l-.2.532h-.722l1.1-2.737h.7l1.108,2.737h-.736Zm-.207-.571-.322-.876-.322.876Z" transform="translate(-471.034 -300.011)" fill="#df5c8b"/>
      <path id="Path_459" data-name="Path 459" d="M528.729,302.838h-.386v.727h-.708v-2.737h1.144a1.323,1.323,0,0,1,.59.123.9.9,0,0,1,.386.352,1.033,1.033,0,0,1,.136.538,1.022,1.022,0,0,1-.127.518.887.887,0,0,1-.363.346l.54.86h-.758Zm.336-1.294a.46.46,0,0,0-.329-.105h-.393v.8h.393a.465.465,0,0,0,.329-.1.384.384,0,0,0,.111-.3A.392.392,0,0,0,529.065,301.544Z" transform="translate(-491.991 -300.011)" fill="#df5c8b"/>
      <path id="Path_460" data-name="Path 460" d="M555.327,302.584v.981h-.708v-.993l-.954-1.744h.747l.594,1.087.593-1.087h.686Z" transform="translate(-514.657 -300.011)" fill="#df5c8b"/>
      <path id="Path_461" data-name="Path 461" d="M585.383,302.967v.6h-2.009v-2.737h1.962v.6h-1.262v.461h1.112v.579h-1.112v.5Z" transform="translate(-540.528 -300.011)" fill="#df5c8b"/>
      <path id="Path_462" data-name="Path 462" d="M601.963,300.828h1.183a1.539,1.539,0,0,1,.729.168,1.2,1.2,0,0,1,.493.477,1.581,1.581,0,0,1,0,1.447,1.2,1.2,0,0,1-.493.477,1.538,1.538,0,0,1-.729.168h-1.183Zm1.154,2.119a.689.689,0,0,0,.517-.2.879.879,0,0,0,0-1.1.689.689,0,0,0-.517-.2h-.447v1.5Z" transform="translate(-556.715 -300.011)" fill="#df5c8b"/>
      <path id="Path_463" data-name="Path 463" d="M624.955,303.288a1.333,1.333,0,0,1-.309-.942v-1.517h.708v1.494q0,.657.475.657t.472-.657v-1.494h.7v1.517a1.333,1.333,0,0,1-.309.942,1.3,1.3,0,0,1-1.734,0Z" transform="translate(-576.467 -300.011)" fill="#df5c8b"/>
      <path id="Path_464" data-name="Path 464" d="M646.23,303.069a1.3,1.3,0,0,1-.491-.506,1.6,1.6,0,0,1,0-1.47,1.3,1.3,0,0,1,.491-.506,1.379,1.379,0,0,1,.706-.182,1.4,1.4,0,0,1,.618.133,1.209,1.209,0,0,1,.458.383l-.45.446a.72.72,0,0,0-.59-.321.679.679,0,0,0-.363.1.654.654,0,0,0-.247.276,1,1,0,0,0,0,.817.653.653,0,0,0,.247.276.679.679,0,0,0,.363.1.721.721,0,0,0,.59-.321l.45.446a1.207,1.207,0,0,1-.458.383,1.4,1.4,0,0,1-.618.133A1.378,1.378,0,0,1,646.23,303.069Z" transform="translate(-594.679 -299.642)" fill="#df5c8b"/>
      <path id="Path_465" data-name="Path 465" d="M666.291,303.033h-1.058l-.2.532h-.722l1.1-2.737h.7l1.108,2.737h-.736Zm-.207-.571-.322-.876-.322.876Z" transform="translate(-611.01 -300.011)" fill="#df5c8b"/>
      <path id="Path_466" data-name="Path 466" d="M689.476,302.838h-.386v.727h-.708v-2.737h1.144a1.323,1.323,0,0,1,.59.123.9.9,0,0,1,.386.352,1.034,1.034,0,0,1,.136.538,1.021,1.021,0,0,1-.127.518.887.887,0,0,1-.363.346l.54.86h-.758Zm.336-1.294a.46.46,0,0,0-.329-.105h-.393v.8h.393a.465.465,0,0,0,.329-.1.384.384,0,0,0,.111-.3A.391.391,0,0,0,689.812,301.544Z" transform="translate(-631.969 -300.011)" fill="#df5c8b"/>
      <path id="Path_467" data-name="Path 467" d="M719.16,303.565l-.007-1.451-.643,1.181h-.315l-.64-1.142v1.412H716.9v-2.737h.583l.879,1.58.858-1.58h.583l.007,2.737Z" transform="translate(-656.803 -300.011)" fill="#df5c8b"/>
      <path id="Path_468" data-name="Path 468" d="M742.943,297.525h-1.058l-.2.532h-.722l1.1-2.737h.7l1.108,2.737h-.736Zm-.393-3.022h.679l-.672.594h-.486Zm.186,2.452-.322-.876-.322.876Z" transform="translate(-677.759 -294.503)" fill="#df5c8b"/>
      <path id="Path_469" data-name="Path 469" d="M764.144,303.169a1.388,1.388,0,0,1-.465-.219l.232-.571a1.452,1.452,0,0,0,.39.2,1.366,1.366,0,0,0,.436.074q.407,0,.407-.223a.184.184,0,0,0-.116-.174,2.015,2.015,0,0,0-.374-.119,3.337,3.337,0,0,1-.472-.143.8.8,0,0,1-.325-.244.7.7,0,0,1-.136-.454.839.839,0,0,1,.125-.452.855.855,0,0,1,.374-.319,1.42,1.42,0,0,1,.609-.117,1.979,1.979,0,0,1,.486.061,1.415,1.415,0,0,1,.422.178l-.218.575a1.363,1.363,0,0,0-.693-.211.54.54,0,0,0-.307.068.209.209,0,0,0-.1.178.175.175,0,0,0,.114.164,1.93,1.93,0,0,0,.368.113,3.228,3.228,0,0,1,.474.143.816.816,0,0,1,.325.242.686.686,0,0,1,.138.452.821.821,0,0,1-.125.446.87.87,0,0,1-.375.319,1.405,1.405,0,0,1-.608.119A2.124,2.124,0,0,1,764.144,303.169Z" transform="translate(-697.537 -299.642)" fill="#df5c8b"/>
      <path id="Path_470" data-name="Path 470" d="M790.655,303.069a1.3,1.3,0,0,1-.491-.506,1.6,1.6,0,0,1,0-1.47,1.3,1.3,0,0,1,.491-.506,1.379,1.379,0,0,1,.706-.182,1.4,1.4,0,0,1,.618.133,1.209,1.209,0,0,1,.458.383l-.45.446a.72.72,0,0,0-.59-.321.679.679,0,0,0-.363.1.655.655,0,0,0-.247.276,1,1,0,0,0,0,.817.654.654,0,0,0,.247.276.679.679,0,0,0,.363.1.72.72,0,0,0,.59-.321l.45.446a1.208,1.208,0,0,1-.458.383,1.4,1.4,0,0,1-.618.133A1.377,1.377,0,0,1,790.655,303.069Z" transform="translate(-720.444 -299.642)" fill="#df5c8b"/>
      <path id="Path_471" data-name="Path 471" d="M813.776,300.828v2.737h-.707V302.5H812.1v1.067H811.4v-2.737h.708v1.028h.965v-1.028Z" transform="translate(-739.089 -300.011)" fill="#df5c8b"/>
      <path id="Path_472" data-name="Path 472" d="M833.692,300.828h.708v2.737h-.708Z" transform="translate(-758.504 -300.011)" fill="#df5c8b"/>
      <path id="Path_473" data-name="Path 473" d="M842.743,303.069a1.3,1.3,0,0,1-.491-.506,1.6,1.6,0,0,1,0-1.47,1.3,1.3,0,0,1,.491-.506,1.378,1.378,0,0,1,.706-.182,1.4,1.4,0,0,1,.618.133,1.21,1.21,0,0,1,.458.383l-.45.446a.72.72,0,0,0-.59-.321.68.68,0,0,0-.363.1.655.655,0,0,0-.247.276,1,1,0,0,0,0,.817.654.654,0,0,0,.247.276.68.68,0,0,0,.363.1.72.72,0,0,0,.59-.321l.45.446a1.208,1.208,0,0,1-.458.383,1.4,1.4,0,0,1-.618.133A1.377,1.377,0,0,1,842.743,303.069Z" transform="translate(-765.802 -299.642)" fill="#df5c8b"/>
      <path id="Path_474" data-name="Path 474" d="M862.8,303.033h-1.058l-.2.532h-.722l1.1-2.737h.7l1.108,2.737H863Zm-.207-.571-.322-.876-.322.876Z" transform="translate(-782.134 -300.011)" fill="#df5c8b"/>
      <path id="Path_475" data-name="Path 475" d="M884,303.169a1.389,1.389,0,0,1-.465-.219l.232-.571a1.449,1.449,0,0,0,.39.2,1.366,1.366,0,0,0,.436.074q.407,0,.407-.223a.184.184,0,0,0-.116-.174,2.015,2.015,0,0,0-.373-.119,3.339,3.339,0,0,1-.472-.143.8.8,0,0,1-.325-.244.7.7,0,0,1-.136-.454.837.837,0,0,1,.125-.452.853.853,0,0,1,.373-.319,1.421,1.421,0,0,1,.609-.117,1.977,1.977,0,0,1,.486.061,1.418,1.418,0,0,1,.422.178l-.218.575a1.363,1.363,0,0,0-.693-.211.54.54,0,0,0-.307.068.209.209,0,0,0-.1.178.175.175,0,0,0,.114.164,1.928,1.928,0,0,0,.368.113,3.216,3.216,0,0,1,.474.143.816.816,0,0,1,.325.242.686.686,0,0,1,.138.452.822.822,0,0,1-.125.446.871.871,0,0,1-.375.319,1.4,1.4,0,0,1-.608.119A2.123,2.123,0,0,1,884,303.169Z" transform="translate(-801.911 -299.642)" fill="#df5c8b"/>
      <path id="Path_476" data-name="Path 476" d="M912.852,302.967v.6h-2.009v-2.737h1.962v.6h-1.261v.461h1.111v.579h-1.111v.5Z" transform="translate(-825.687 -300.011)" fill="#df5c8b"/>
      <path id="Path_477" data-name="Path 477" d="M931.812,300.828v2.737h-.582l-1.1-1.458v1.458h-.693v-2.737h.583l1.1,1.458v-1.458Z" transform="translate(-841.874 -300.011)" fill="#df5c8b"/>
      <path id="Path_478" data-name="Path 478" d="M958.719,301.442h-.768v-.614h2.241v.614h-.765v2.123h-.708Z" transform="translate(-866.708 -300.011)" fill="#df5c8b"/>
      <path id="Path_479" data-name="Path 479" d="M979.352,302.967v.6h-2.009v-2.737h1.962v.6h-1.262v.461h1.111v.579h-1.111v.5Z" transform="translate(-883.595 -300.011)" fill="#df5c8b"/>
      <path id="Path_480" data-name="Path 480" d="M995.578,303.069a1.3,1.3,0,0,1-.491-.506,1.6,1.6,0,0,1,0-1.47,1.3,1.3,0,0,1,.491-.506,1.379,1.379,0,0,1,.706-.182,1.4,1.4,0,0,1,.618.133,1.209,1.209,0,0,1,.458.383l-.45.446a.72.72,0,0,0-.59-.321.679.679,0,0,0-.363.1.655.655,0,0,0-.247.276,1,1,0,0,0,0,.817.655.655,0,0,0,.247.276.679.679,0,0,0,.363.1.72.72,0,0,0,.59-.321l.45.446a1.208,1.208,0,0,1-.458.383,1.4,1.4,0,0,1-.618.133A1.378,1.378,0,0,1,995.578,303.069Z" transform="translate(-898.89 -299.642)" fill="#df5c8b"/>
      <path id="Path_481" data-name="Path 481" d="M1018.7,300.828v2.737h-.583l-1.1-1.458v1.458h-.693v-2.737h.583l1.1,1.458v-1.458Z" transform="translate(-917.535 -300.011)" fill="#df5c8b"/>
      <path id="Path_482" data-name="Path 482" d="M1038.3,303.067a1.315,1.315,0,0,1-.5-.508,1.57,1.57,0,0,1,0-1.462,1.315,1.315,0,0,1,.5-.508,1.475,1.475,0,0,1,1.426,0,1.316,1.316,0,0,1,.5.508,1.571,1.571,0,0,1,0,1.462,1.316,1.316,0,0,1-.5.508,1.475,1.475,0,0,1-1.426,0Zm1.056-.555a.68.68,0,0,0,.243-.276.98.98,0,0,0,0-.817.681.681,0,0,0-.243-.276.651.651,0,0,0-.686,0,.678.678,0,0,0-.243.276.978.978,0,0,0,0,.817.678.678,0,0,0,.243.276.651.651,0,0,0,.686,0Z" transform="translate(-936.083 -299.642)" fill="#df5c8b"/>
      <path id="Path_483" data-name="Path 483" d="M1062.018,300.828h.708v2.123h1.194v.614h-1.9Z" transform="translate(-957.329 -300.011)" fill="#df5c8b"/>
      <path id="Path_484" data-name="Path 484" d="M1078.269,303.067a1.316,1.316,0,0,1-.5-.508,1.571,1.571,0,0,1,0-1.462,1.316,1.316,0,0,1,.5-.508,1.474,1.474,0,0,1,1.426,0,1.316,1.316,0,0,1,.5.508,1.572,1.572,0,0,1,0,1.462,1.317,1.317,0,0,1-.5.508,1.474,1.474,0,0,1-1.426,0Zm1.056-.555a.68.68,0,0,0,.243-.276.98.98,0,0,0,0-.817.681.681,0,0,0-.243-.276.652.652,0,0,0-.686,0,.68.68,0,0,0-.243.276.979.979,0,0,0,0,.817.679.679,0,0,0,.243.276.651.651,0,0,0,.686,0Z" transform="translate(-970.891 -299.642)" fill="#df5c8b"/>
      <path id="Path_485" data-name="Path 485" d="M1102.8,301.769h.625V302.9a1.576,1.576,0,0,1-.493.258,1.806,1.806,0,0,1-.557.09,1.386,1.386,0,0,1-.708-.182,1.294,1.294,0,0,1-.493-.506,1.6,1.6,0,0,1,0-1.47,1.287,1.287,0,0,1,.5-.506,1.421,1.421,0,0,1,.718-.182,1.48,1.48,0,0,1,.629.129,1.225,1.225,0,0,1,.465.371l-.45.446a.766.766,0,0,0-.607-.305.672.672,0,0,0-.518.213.806.806,0,0,0-.2.569.886.886,0,0,0,.09.4.673.673,0,0,0,.25.278.684.684,0,0,0,.368.1.839.839,0,0,0,.383-.09Z" transform="translate(-991.269 -299.642)" fill="#df5c8b"/>
      <path id="Path_486" data-name="Path 486" d="M1123.29,295.32H1124v2.737h-.708Zm.482-.817h.679l-.672.594h-.486Z" transform="translate(-1010.685 -294.503)" fill="#df5c8b"/>
      <path id="Path_487" data-name="Path 487" d="M1132.32,303.033h-1.058l-.2.532h-.722l1.1-2.737h.7l1.108,2.737h-.736Zm-.207-.571-.322-.876-.322.876Z" transform="translate(-1016.826 -300.011)" fill="#df5c8b"/>
    </g>
  </g>
</svg>
